G04 #@! TF.GenerationSoftware,KiCad,Pcbnew,(5.1.2)-2*
G04 #@! TF.CreationDate,2019-11-27T23:52:17-06:00*
G04 #@! TF.ProjectId,ti99-joystick,74693939-2d6a-46f7-9973-7469636b2e6b,rev?*
G04 #@! TF.SameCoordinates,Original*
G04 #@! TF.FileFunction,Legend,Top*
G04 #@! TF.FilePolarity,Positive*
%FSLAX46Y46*%
G04 Gerber Fmt 4.6, Leading zero omitted, Abs format (unit mm)*
G04 Created by KiCad (PCBNEW (5.1.2)-2) date 2019-11-27 23:52:17*
%MOMM*%
%LPD*%
G04 APERTURE LIST*
%ADD10C,0.120000*%
G04 APERTURE END LIST*
D10*
X115544000Y-71056000D02*
G75*
G03X114484000Y-72116000I0J-1060000D01*
G01*
X145454000Y-72116000D02*
G75*
G03X144394000Y-71056000I-1060000J0D01*
G01*
X115544000Y-83676000D02*
G75*
G02X114484000Y-82616000I0J1060000D01*
G01*
X144394000Y-83676000D02*
G75*
G03X145454000Y-82616000I0J1060000D01*
G01*
X122102530Y-75304256D02*
G75*
G02X123737311Y-73356000I1634781J288256D01*
G01*
X137835470Y-75304256D02*
G75*
G03X136200689Y-73356000I-1634781J288256D01*
G01*
X122931267Y-80004256D02*
G75*
G03X124566048Y-81376000I1634781J288256D01*
G01*
X137006733Y-80004256D02*
G75*
G02X135371952Y-81376000I-1634781J288256D01*
G01*
X115544000Y-71056000D02*
X144394000Y-71056000D01*
X145454000Y-72116000D02*
X145454000Y-82616000D01*
X144394000Y-83676000D02*
X115544000Y-83676000D01*
X114484000Y-82616000D02*
X114484000Y-72116000D01*
X135259000Y-70161662D02*
X135759000Y-70161662D01*
X135759000Y-70161662D02*
X135509000Y-70594675D01*
X135509000Y-70594675D02*
X135259000Y-70161662D01*
X123737311Y-73356000D02*
X136200689Y-73356000D01*
X124566048Y-81376000D02*
X135371952Y-81376000D01*
X137835470Y-75304256D02*
X137006733Y-80004256D01*
X122102530Y-75304256D02*
X122931267Y-80004256D01*
X160550000Y-81423000D02*
X153250000Y-81423000D01*
X160550000Y-83423000D02*
X160550000Y-81423000D01*
X153250000Y-83423000D02*
X160550000Y-83423000D01*
X121495000Y-70755000D02*
X114195000Y-70755000D01*
X114195000Y-70755000D02*
X114195000Y-72755000D01*
X114195000Y-72755000D02*
X121495000Y-72755000D01*
X166795000Y-82788000D02*
X174095000Y-82788000D01*
X174095000Y-82788000D02*
X174095000Y-80788000D01*
X174095000Y-80788000D02*
X166795000Y-80788000D01*
X109557000Y-81169000D02*
X102257000Y-81169000D01*
X102257000Y-81169000D02*
X102257000Y-83169000D01*
X102257000Y-83169000D02*
X109557000Y-83169000D01*
X145774000Y-70755000D02*
X138474000Y-70755000D01*
X145774000Y-72755000D02*
X145774000Y-70755000D01*
X138474000Y-72755000D02*
X145774000Y-72755000D01*
X94637000Y-72755000D02*
X101937000Y-72755000D01*
X94637000Y-70755000D02*
X94637000Y-72755000D01*
X101937000Y-70755000D02*
X94637000Y-70755000D01*
X149352000Y-73771000D02*
X156652000Y-73771000D01*
X156652000Y-73771000D02*
X156652000Y-71771000D01*
X156652000Y-71771000D02*
X149352000Y-71771000D01*
X91523000Y-81042000D02*
X84223000Y-81042000D01*
X84223000Y-81042000D02*
X84223000Y-83042000D01*
X84223000Y-83042000D02*
X91523000Y-83042000D01*
X145774000Y-82058000D02*
X138474000Y-82058000D01*
X145774000Y-84058000D02*
X145774000Y-82058000D01*
X138474000Y-84058000D02*
X145774000Y-84058000D01*
X114576000Y-83423000D02*
X121876000Y-83423000D01*
X114576000Y-81423000D02*
X114576000Y-83423000D01*
X121876000Y-81423000D02*
X114576000Y-81423000D01*
M02*
