M48
; DRILL file {KiCad (5.1.2)-2} date 11/27/2019 11:52:25 PM
; FORMAT={3:3/ absolute / metric / suppress leading zeros}
; #@! TF.CreationDate,2019-11-27T23:52:25-06:00
; #@! TF.GenerationSoftware,Kicad,Pcbnew,(5.1.2)-2
FMAT,2
METRIC,TZ
T1C0.400
T2C1.000
T3C3.200
%
G90
G05
T1
X106553Y-73279
X113284Y-82423
X125857Y-71755
T2
X124429Y-75946
X125814Y-78786
X127199Y-75946
X128584Y-78786
X129969Y-75946
X131354Y-78786
X132739Y-75946
X134124Y-78786
X135509Y-75946
X90901Y-75946
X92286Y-78786
X93671Y-75946
X95056Y-78786
X96441Y-75946
X97826Y-78786
X99211Y-75946
X100596Y-78786
X101981Y-75946
X157957Y-75946
X159342Y-78786
X160727Y-75946
X162112Y-78786
X163497Y-75946
X164882Y-78786
X166267Y-75946
X167652Y-78786
X169037Y-75946
T3
X117469Y-77366
X142469Y-77366
X83941Y-77366
X108941Y-77366
X150997Y-77366
X175997Y-77366
T0
M30
