G04 #@! TF.GenerationSoftware,KiCad,Pcbnew,(5.1.2)-2*
G04 #@! TF.CreationDate,2019-11-27T23:52:17-06:00*
G04 #@! TF.ProjectId,ti99-joystick,74693939-2d6a-46f7-9973-7469636b2e6b,rev?*
G04 #@! TF.SameCoordinates,Original*
G04 #@! TF.FileFunction,Copper,L1,Top*
G04 #@! TF.FilePolarity,Positive*
%FSLAX46Y46*%
G04 Gerber Fmt 4.6, Leading zero omitted, Abs format (unit mm)*
G04 Created by KiCad (PCBNEW (5.1.2)-2) date 2019-11-27 23:52:17*
%MOMM*%
%LPD*%
G04 APERTURE LIST*
%ADD10R,1.600000X1.600000*%
%ADD11C,1.600000*%
%ADD12C,4.000000*%
%ADD13R,3.300000X1.700000*%
%ADD14C,0.800000*%
%ADD15C,0.250000*%
G04 APERTURE END LIST*
D10*
X135509000Y-75946000D03*
D11*
X132739000Y-75946000D03*
X129969000Y-75946000D03*
X127199000Y-75946000D03*
X124429000Y-75946000D03*
X134124000Y-78786000D03*
X131354000Y-78786000D03*
X128584000Y-78786000D03*
X125814000Y-78786000D03*
D12*
X117469000Y-77366000D03*
X142469000Y-77366000D03*
X83941000Y-77366000D03*
X108941000Y-77366000D03*
D11*
X92286000Y-78786000D03*
X95056000Y-78786000D03*
X97826000Y-78786000D03*
X100596000Y-78786000D03*
X90901000Y-75946000D03*
X93671000Y-75946000D03*
X96441000Y-75946000D03*
X99211000Y-75946000D03*
D10*
X101981000Y-75946000D03*
X169037000Y-75946000D03*
D11*
X166267000Y-75946000D03*
X163497000Y-75946000D03*
X160727000Y-75946000D03*
X157957000Y-75946000D03*
X167652000Y-78786000D03*
X164882000Y-78786000D03*
X162112000Y-78786000D03*
X159342000Y-78786000D03*
D12*
X175997000Y-77366000D03*
X150997000Y-77366000D03*
D13*
X153250000Y-82423000D03*
X158750000Y-82423000D03*
X115995000Y-71755000D03*
X121495000Y-71755000D03*
X172295000Y-81788000D03*
X166795000Y-81788000D03*
X104057000Y-82169000D03*
X109557000Y-82169000D03*
X138474000Y-71755000D03*
X143974000Y-71755000D03*
X101937000Y-71755000D03*
X96437000Y-71755000D03*
X154852000Y-72771000D03*
X149352000Y-72771000D03*
X86023000Y-82042000D03*
X91523000Y-82042000D03*
X138474000Y-83058000D03*
X143974000Y-83058000D03*
X121876000Y-82423000D03*
X116376000Y-82423000D03*
D14*
X125857000Y-71755000D03*
X106553000Y-73279000D03*
X113284000Y-82423000D03*
D15*
X125291315Y-71755000D02*
X121495000Y-71755000D01*
X125857000Y-71755000D02*
X125291315Y-71755000D01*
X152450000Y-82423000D02*
X153250000Y-82423000D01*
X151350000Y-81323000D02*
X152450000Y-82423000D01*
X131929998Y-81323000D02*
X151350000Y-81323000D01*
X129969000Y-79362002D02*
X131929998Y-81323000D01*
X129969000Y-75946000D02*
X129969000Y-79362002D01*
X170087000Y-75946000D02*
X169037000Y-75946000D01*
X174470001Y-80329001D02*
X170087000Y-75946000D01*
X174470001Y-83058001D02*
X174470001Y-80329001D01*
X174327992Y-83200010D02*
X174470001Y-83058001D01*
X161427010Y-83200010D02*
X174327992Y-83200010D01*
X160650000Y-82423000D02*
X161427010Y-83200010D01*
X158750000Y-82423000D02*
X160650000Y-82423000D01*
X116503000Y-71755000D02*
X115703000Y-71755000D01*
X114095000Y-71755000D02*
X115995000Y-71755000D01*
X109446002Y-71755000D02*
X114095000Y-71755000D01*
X105255002Y-75946000D02*
X109446002Y-71755000D01*
X101981000Y-75946000D02*
X105255002Y-75946000D01*
X171289000Y-82550000D02*
X172676000Y-82550000D01*
X170654000Y-81788000D02*
X172295000Y-81788000D01*
X167652000Y-78786000D02*
X170654000Y-81788000D01*
X111457000Y-82169000D02*
X109557000Y-82169000D01*
X112578001Y-81047999D02*
X111457000Y-82169000D01*
X125513003Y-81047999D02*
X112578001Y-81047999D01*
X127199000Y-79362002D02*
X125513003Y-81047999D01*
X127199000Y-75946000D02*
X127199000Y-79362002D01*
X165276000Y-82550000D02*
X167176000Y-82550000D01*
X164895000Y-81788000D02*
X166795000Y-81788000D01*
X164154999Y-81047999D02*
X164895000Y-81788000D01*
X159642997Y-81047999D02*
X164154999Y-81047999D01*
X153215997Y-74620999D02*
X159642997Y-81047999D01*
X128524001Y-74620999D02*
X153215997Y-74620999D01*
X127199000Y-75946000D02*
X128524001Y-74620999D01*
X101727370Y-78786000D02*
X100596000Y-78786000D01*
X101774000Y-78786000D02*
X101727370Y-78786000D01*
X104057000Y-81069000D02*
X101774000Y-78786000D01*
X104057000Y-82169000D02*
X104057000Y-81069000D01*
X105029000Y-71755000D02*
X101937000Y-71755000D01*
X106553000Y-73279000D02*
X105029000Y-71755000D01*
X136574000Y-71755000D02*
X138474000Y-71755000D01*
X127226002Y-71755000D02*
X136574000Y-71755000D01*
X124429000Y-74552002D02*
X127226002Y-71755000D01*
X124429000Y-75946000D02*
X124429000Y-74552002D01*
X145068000Y-71755000D02*
X145957000Y-70866000D01*
X143168000Y-71755000D02*
X145068000Y-71755000D01*
X158290000Y-70866000D02*
X163370000Y-75946000D01*
X145957000Y-70866000D02*
X158290000Y-70866000D01*
X163370000Y-75946000D02*
X163497000Y-76073000D01*
X96441000Y-71759000D02*
X96437000Y-71755000D01*
X96441000Y-75946000D02*
X96441000Y-71759000D01*
X157425000Y-72771000D02*
X160727000Y-76073000D01*
X154852000Y-72771000D02*
X157425000Y-72771000D01*
X125014001Y-79585999D02*
X125814000Y-78786000D01*
X124708999Y-79891001D02*
X125014001Y-79585999D01*
X106688001Y-79891001D02*
X124708999Y-79891001D01*
X104257999Y-77460999D02*
X106688001Y-79891001D01*
X99959999Y-77460999D02*
X104257999Y-77460999D01*
X99270999Y-78149999D02*
X99959999Y-77460999D01*
X99270999Y-79302003D02*
X99270999Y-78149999D01*
X96531002Y-82042000D02*
X99270999Y-79302003D01*
X91523000Y-82042000D02*
X96531002Y-82042000D01*
X148552000Y-72771000D02*
X149352000Y-72771000D01*
X147452000Y-73871000D02*
X148552000Y-72771000D01*
X127312998Y-73871000D02*
X147452000Y-73871000D01*
X125814000Y-75369998D02*
X127312998Y-73871000D01*
X125814000Y-78786000D02*
X125814000Y-75369998D01*
X86823000Y-82042000D02*
X86023000Y-82042000D01*
X91593999Y-77271001D02*
X86823000Y-82042000D01*
X92345999Y-77271001D02*
X91593999Y-77271001D01*
X93671000Y-75946000D02*
X92345999Y-77271001D01*
X123776000Y-82423000D02*
X121876000Y-82423000D01*
X126078370Y-82423000D02*
X123776000Y-82423000D01*
X128584000Y-79917370D02*
X126078370Y-82423000D01*
X136574000Y-83058000D02*
X138474000Y-83058000D01*
X131724630Y-83058000D02*
X136574000Y-83058000D01*
X128584000Y-79917370D02*
X131724630Y-83058000D01*
X128584000Y-78786000D02*
X128584000Y-79917370D01*
X144687000Y-83566000D02*
X142787000Y-83566000D01*
X167066999Y-75146001D02*
X166267000Y-75946000D01*
X167592001Y-74620999D02*
X167066999Y-75146001D01*
X176989001Y-74620999D02*
X167592001Y-74620999D01*
X178522001Y-76153999D02*
X176989001Y-74620999D01*
X178522001Y-79925253D02*
X178522001Y-76153999D01*
X174289254Y-84158000D02*
X178522001Y-79925253D01*
X145874000Y-84158000D02*
X174289254Y-84158000D01*
X144774000Y-83058000D02*
X145874000Y-84158000D01*
X143974000Y-83058000D02*
X144774000Y-83058000D01*
X116376000Y-82423000D02*
X113284000Y-82423000D01*
M02*
