G04 #@! TF.GenerationSoftware,KiCad,Pcbnew,(5.1.2)-2*
G04 #@! TF.CreationDate,2019-11-27T23:52:17-06:00*
G04 #@! TF.ProjectId,ti99-joystick,74693939-2d6a-46f7-9973-7469636b2e6b,rev?*
G04 #@! TF.SameCoordinates,Original*
G04 #@! TF.FileFunction,Soldermask,Top*
G04 #@! TF.FilePolarity,Negative*
%FSLAX46Y46*%
G04 Gerber Fmt 4.6, Leading zero omitted, Abs format (unit mm)*
G04 Created by KiCad (PCBNEW (5.1.2)-2) date 2019-11-27 23:52:17*
%MOMM*%
%LPD*%
G04 APERTURE LIST*
%ADD10C,0.100000*%
G04 APERTURE END LIST*
D10*
G36*
X145675000Y-83959000D02*
G01*
X142273000Y-83959000D01*
X142273000Y-82157000D01*
X145675000Y-82157000D01*
X145675000Y-83959000D01*
X145675000Y-83959000D01*
G37*
G36*
X140175000Y-83959000D02*
G01*
X136773000Y-83959000D01*
X136773000Y-82157000D01*
X140175000Y-82157000D01*
X140175000Y-83959000D01*
X140175000Y-83959000D01*
G37*
G36*
X123577000Y-83324000D02*
G01*
X120175000Y-83324000D01*
X120175000Y-81522000D01*
X123577000Y-81522000D01*
X123577000Y-83324000D01*
X123577000Y-83324000D01*
G37*
G36*
X160451000Y-83324000D02*
G01*
X157049000Y-83324000D01*
X157049000Y-81522000D01*
X160451000Y-81522000D01*
X160451000Y-83324000D01*
X160451000Y-83324000D01*
G37*
G36*
X154951000Y-83324000D02*
G01*
X151549000Y-83324000D01*
X151549000Y-81522000D01*
X154951000Y-81522000D01*
X154951000Y-83324000D01*
X154951000Y-83324000D01*
G37*
G36*
X118077000Y-83324000D02*
G01*
X114675000Y-83324000D01*
X114675000Y-81522000D01*
X118077000Y-81522000D01*
X118077000Y-83324000D01*
X118077000Y-83324000D01*
G37*
G36*
X111258000Y-83070000D02*
G01*
X107856000Y-83070000D01*
X107856000Y-81268000D01*
X111258000Y-81268000D01*
X111258000Y-83070000D01*
X111258000Y-83070000D01*
G37*
G36*
X105758000Y-83070000D02*
G01*
X102356000Y-83070000D01*
X102356000Y-81268000D01*
X105758000Y-81268000D01*
X105758000Y-83070000D01*
X105758000Y-83070000D01*
G37*
G36*
X87724000Y-82943000D02*
G01*
X84322000Y-82943000D01*
X84322000Y-81141000D01*
X87724000Y-81141000D01*
X87724000Y-82943000D01*
X87724000Y-82943000D01*
G37*
G36*
X93224000Y-82943000D02*
G01*
X89822000Y-82943000D01*
X89822000Y-81141000D01*
X93224000Y-81141000D01*
X93224000Y-82943000D01*
X93224000Y-82943000D01*
G37*
G36*
X173996000Y-82689000D02*
G01*
X170594000Y-82689000D01*
X170594000Y-80887000D01*
X173996000Y-80887000D01*
X173996000Y-82689000D01*
X173996000Y-82689000D01*
G37*
G36*
X168496000Y-82689000D02*
G01*
X165094000Y-82689000D01*
X165094000Y-80887000D01*
X168496000Y-80887000D01*
X168496000Y-82689000D01*
X168496000Y-82689000D01*
G37*
G36*
X131602228Y-77967703D02*
G01*
X131757100Y-78031853D01*
X131896481Y-78124985D01*
X132015015Y-78243519D01*
X132108147Y-78382900D01*
X132172297Y-78537772D01*
X132205000Y-78702184D01*
X132205000Y-78869816D01*
X132172297Y-79034228D01*
X132108147Y-79189100D01*
X132015015Y-79328481D01*
X131896481Y-79447015D01*
X131757100Y-79540147D01*
X131602228Y-79604297D01*
X131437816Y-79637000D01*
X131270184Y-79637000D01*
X131105772Y-79604297D01*
X130950900Y-79540147D01*
X130811519Y-79447015D01*
X130692985Y-79328481D01*
X130599853Y-79189100D01*
X130535703Y-79034228D01*
X130503000Y-78869816D01*
X130503000Y-78702184D01*
X130535703Y-78537772D01*
X130599853Y-78382900D01*
X130692985Y-78243519D01*
X130811519Y-78124985D01*
X130950900Y-78031853D01*
X131105772Y-77967703D01*
X131270184Y-77935000D01*
X131437816Y-77935000D01*
X131602228Y-77967703D01*
X131602228Y-77967703D01*
G37*
G36*
X159590228Y-77967703D02*
G01*
X159745100Y-78031853D01*
X159884481Y-78124985D01*
X160003015Y-78243519D01*
X160096147Y-78382900D01*
X160160297Y-78537772D01*
X160193000Y-78702184D01*
X160193000Y-78869816D01*
X160160297Y-79034228D01*
X160096147Y-79189100D01*
X160003015Y-79328481D01*
X159884481Y-79447015D01*
X159745100Y-79540147D01*
X159590228Y-79604297D01*
X159425816Y-79637000D01*
X159258184Y-79637000D01*
X159093772Y-79604297D01*
X158938900Y-79540147D01*
X158799519Y-79447015D01*
X158680985Y-79328481D01*
X158587853Y-79189100D01*
X158523703Y-79034228D01*
X158491000Y-78869816D01*
X158491000Y-78702184D01*
X158523703Y-78537772D01*
X158587853Y-78382900D01*
X158680985Y-78243519D01*
X158799519Y-78124985D01*
X158938900Y-78031853D01*
X159093772Y-77967703D01*
X159258184Y-77935000D01*
X159425816Y-77935000D01*
X159590228Y-77967703D01*
X159590228Y-77967703D01*
G37*
G36*
X162360228Y-77967703D02*
G01*
X162515100Y-78031853D01*
X162654481Y-78124985D01*
X162773015Y-78243519D01*
X162866147Y-78382900D01*
X162930297Y-78537772D01*
X162963000Y-78702184D01*
X162963000Y-78869816D01*
X162930297Y-79034228D01*
X162866147Y-79189100D01*
X162773015Y-79328481D01*
X162654481Y-79447015D01*
X162515100Y-79540147D01*
X162360228Y-79604297D01*
X162195816Y-79637000D01*
X162028184Y-79637000D01*
X161863772Y-79604297D01*
X161708900Y-79540147D01*
X161569519Y-79447015D01*
X161450985Y-79328481D01*
X161357853Y-79189100D01*
X161293703Y-79034228D01*
X161261000Y-78869816D01*
X161261000Y-78702184D01*
X161293703Y-78537772D01*
X161357853Y-78382900D01*
X161450985Y-78243519D01*
X161569519Y-78124985D01*
X161708900Y-78031853D01*
X161863772Y-77967703D01*
X162028184Y-77935000D01*
X162195816Y-77935000D01*
X162360228Y-77967703D01*
X162360228Y-77967703D01*
G37*
G36*
X165130228Y-77967703D02*
G01*
X165285100Y-78031853D01*
X165424481Y-78124985D01*
X165543015Y-78243519D01*
X165636147Y-78382900D01*
X165700297Y-78537772D01*
X165733000Y-78702184D01*
X165733000Y-78869816D01*
X165700297Y-79034228D01*
X165636147Y-79189100D01*
X165543015Y-79328481D01*
X165424481Y-79447015D01*
X165285100Y-79540147D01*
X165130228Y-79604297D01*
X164965816Y-79637000D01*
X164798184Y-79637000D01*
X164633772Y-79604297D01*
X164478900Y-79540147D01*
X164339519Y-79447015D01*
X164220985Y-79328481D01*
X164127853Y-79189100D01*
X164063703Y-79034228D01*
X164031000Y-78869816D01*
X164031000Y-78702184D01*
X164063703Y-78537772D01*
X164127853Y-78382900D01*
X164220985Y-78243519D01*
X164339519Y-78124985D01*
X164478900Y-78031853D01*
X164633772Y-77967703D01*
X164798184Y-77935000D01*
X164965816Y-77935000D01*
X165130228Y-77967703D01*
X165130228Y-77967703D01*
G37*
G36*
X167900228Y-77967703D02*
G01*
X168055100Y-78031853D01*
X168194481Y-78124985D01*
X168313015Y-78243519D01*
X168406147Y-78382900D01*
X168470297Y-78537772D01*
X168503000Y-78702184D01*
X168503000Y-78869816D01*
X168470297Y-79034228D01*
X168406147Y-79189100D01*
X168313015Y-79328481D01*
X168194481Y-79447015D01*
X168055100Y-79540147D01*
X167900228Y-79604297D01*
X167735816Y-79637000D01*
X167568184Y-79637000D01*
X167403772Y-79604297D01*
X167248900Y-79540147D01*
X167109519Y-79447015D01*
X166990985Y-79328481D01*
X166897853Y-79189100D01*
X166833703Y-79034228D01*
X166801000Y-78869816D01*
X166801000Y-78702184D01*
X166833703Y-78537772D01*
X166897853Y-78382900D01*
X166990985Y-78243519D01*
X167109519Y-78124985D01*
X167248900Y-78031853D01*
X167403772Y-77967703D01*
X167568184Y-77935000D01*
X167735816Y-77935000D01*
X167900228Y-77967703D01*
X167900228Y-77967703D01*
G37*
G36*
X98074228Y-77967703D02*
G01*
X98229100Y-78031853D01*
X98368481Y-78124985D01*
X98487015Y-78243519D01*
X98580147Y-78382900D01*
X98644297Y-78537772D01*
X98677000Y-78702184D01*
X98677000Y-78869816D01*
X98644297Y-79034228D01*
X98580147Y-79189100D01*
X98487015Y-79328481D01*
X98368481Y-79447015D01*
X98229100Y-79540147D01*
X98074228Y-79604297D01*
X97909816Y-79637000D01*
X97742184Y-79637000D01*
X97577772Y-79604297D01*
X97422900Y-79540147D01*
X97283519Y-79447015D01*
X97164985Y-79328481D01*
X97071853Y-79189100D01*
X97007703Y-79034228D01*
X96975000Y-78869816D01*
X96975000Y-78702184D01*
X97007703Y-78537772D01*
X97071853Y-78382900D01*
X97164985Y-78243519D01*
X97283519Y-78124985D01*
X97422900Y-78031853D01*
X97577772Y-77967703D01*
X97742184Y-77935000D01*
X97909816Y-77935000D01*
X98074228Y-77967703D01*
X98074228Y-77967703D01*
G37*
G36*
X95304228Y-77967703D02*
G01*
X95459100Y-78031853D01*
X95598481Y-78124985D01*
X95717015Y-78243519D01*
X95810147Y-78382900D01*
X95874297Y-78537772D01*
X95907000Y-78702184D01*
X95907000Y-78869816D01*
X95874297Y-79034228D01*
X95810147Y-79189100D01*
X95717015Y-79328481D01*
X95598481Y-79447015D01*
X95459100Y-79540147D01*
X95304228Y-79604297D01*
X95139816Y-79637000D01*
X94972184Y-79637000D01*
X94807772Y-79604297D01*
X94652900Y-79540147D01*
X94513519Y-79447015D01*
X94394985Y-79328481D01*
X94301853Y-79189100D01*
X94237703Y-79034228D01*
X94205000Y-78869816D01*
X94205000Y-78702184D01*
X94237703Y-78537772D01*
X94301853Y-78382900D01*
X94394985Y-78243519D01*
X94513519Y-78124985D01*
X94652900Y-78031853D01*
X94807772Y-77967703D01*
X94972184Y-77935000D01*
X95139816Y-77935000D01*
X95304228Y-77967703D01*
X95304228Y-77967703D01*
G37*
G36*
X92534228Y-77967703D02*
G01*
X92689100Y-78031853D01*
X92828481Y-78124985D01*
X92947015Y-78243519D01*
X93040147Y-78382900D01*
X93104297Y-78537772D01*
X93137000Y-78702184D01*
X93137000Y-78869816D01*
X93104297Y-79034228D01*
X93040147Y-79189100D01*
X92947015Y-79328481D01*
X92828481Y-79447015D01*
X92689100Y-79540147D01*
X92534228Y-79604297D01*
X92369816Y-79637000D01*
X92202184Y-79637000D01*
X92037772Y-79604297D01*
X91882900Y-79540147D01*
X91743519Y-79447015D01*
X91624985Y-79328481D01*
X91531853Y-79189100D01*
X91467703Y-79034228D01*
X91435000Y-78869816D01*
X91435000Y-78702184D01*
X91467703Y-78537772D01*
X91531853Y-78382900D01*
X91624985Y-78243519D01*
X91743519Y-78124985D01*
X91882900Y-78031853D01*
X92037772Y-77967703D01*
X92202184Y-77935000D01*
X92369816Y-77935000D01*
X92534228Y-77967703D01*
X92534228Y-77967703D01*
G37*
G36*
X126062228Y-77967703D02*
G01*
X126217100Y-78031853D01*
X126356481Y-78124985D01*
X126475015Y-78243519D01*
X126568147Y-78382900D01*
X126632297Y-78537772D01*
X126665000Y-78702184D01*
X126665000Y-78869816D01*
X126632297Y-79034228D01*
X126568147Y-79189100D01*
X126475015Y-79328481D01*
X126356481Y-79447015D01*
X126217100Y-79540147D01*
X126062228Y-79604297D01*
X125897816Y-79637000D01*
X125730184Y-79637000D01*
X125565772Y-79604297D01*
X125410900Y-79540147D01*
X125271519Y-79447015D01*
X125152985Y-79328481D01*
X125059853Y-79189100D01*
X124995703Y-79034228D01*
X124963000Y-78869816D01*
X124963000Y-78702184D01*
X124995703Y-78537772D01*
X125059853Y-78382900D01*
X125152985Y-78243519D01*
X125271519Y-78124985D01*
X125410900Y-78031853D01*
X125565772Y-77967703D01*
X125730184Y-77935000D01*
X125897816Y-77935000D01*
X126062228Y-77967703D01*
X126062228Y-77967703D01*
G37*
G36*
X128832228Y-77967703D02*
G01*
X128987100Y-78031853D01*
X129126481Y-78124985D01*
X129245015Y-78243519D01*
X129338147Y-78382900D01*
X129402297Y-78537772D01*
X129435000Y-78702184D01*
X129435000Y-78869816D01*
X129402297Y-79034228D01*
X129338147Y-79189100D01*
X129245015Y-79328481D01*
X129126481Y-79447015D01*
X128987100Y-79540147D01*
X128832228Y-79604297D01*
X128667816Y-79637000D01*
X128500184Y-79637000D01*
X128335772Y-79604297D01*
X128180900Y-79540147D01*
X128041519Y-79447015D01*
X127922985Y-79328481D01*
X127829853Y-79189100D01*
X127765703Y-79034228D01*
X127733000Y-78869816D01*
X127733000Y-78702184D01*
X127765703Y-78537772D01*
X127829853Y-78382900D01*
X127922985Y-78243519D01*
X128041519Y-78124985D01*
X128180900Y-78031853D01*
X128335772Y-77967703D01*
X128500184Y-77935000D01*
X128667816Y-77935000D01*
X128832228Y-77967703D01*
X128832228Y-77967703D01*
G37*
G36*
X100844228Y-77967703D02*
G01*
X100999100Y-78031853D01*
X101138481Y-78124985D01*
X101257015Y-78243519D01*
X101350147Y-78382900D01*
X101414297Y-78537772D01*
X101447000Y-78702184D01*
X101447000Y-78869816D01*
X101414297Y-79034228D01*
X101350147Y-79189100D01*
X101257015Y-79328481D01*
X101138481Y-79447015D01*
X100999100Y-79540147D01*
X100844228Y-79604297D01*
X100679816Y-79637000D01*
X100512184Y-79637000D01*
X100347772Y-79604297D01*
X100192900Y-79540147D01*
X100053519Y-79447015D01*
X99934985Y-79328481D01*
X99841853Y-79189100D01*
X99777703Y-79034228D01*
X99745000Y-78869816D01*
X99745000Y-78702184D01*
X99777703Y-78537772D01*
X99841853Y-78382900D01*
X99934985Y-78243519D01*
X100053519Y-78124985D01*
X100192900Y-78031853D01*
X100347772Y-77967703D01*
X100512184Y-77935000D01*
X100679816Y-77935000D01*
X100844228Y-77967703D01*
X100844228Y-77967703D01*
G37*
G36*
X134372228Y-77967703D02*
G01*
X134527100Y-78031853D01*
X134666481Y-78124985D01*
X134785015Y-78243519D01*
X134878147Y-78382900D01*
X134942297Y-78537772D01*
X134975000Y-78702184D01*
X134975000Y-78869816D01*
X134942297Y-79034228D01*
X134878147Y-79189100D01*
X134785015Y-79328481D01*
X134666481Y-79447015D01*
X134527100Y-79540147D01*
X134372228Y-79604297D01*
X134207816Y-79637000D01*
X134040184Y-79637000D01*
X133875772Y-79604297D01*
X133720900Y-79540147D01*
X133581519Y-79447015D01*
X133462985Y-79328481D01*
X133369853Y-79189100D01*
X133305703Y-79034228D01*
X133273000Y-78869816D01*
X133273000Y-78702184D01*
X133305703Y-78537772D01*
X133369853Y-78382900D01*
X133462985Y-78243519D01*
X133581519Y-78124985D01*
X133720900Y-78031853D01*
X133875772Y-77967703D01*
X134040184Y-77935000D01*
X134207816Y-77935000D01*
X134372228Y-77967703D01*
X134372228Y-77967703D01*
G37*
G36*
X151595254Y-75393818D02*
G01*
X151955170Y-75542900D01*
X151968513Y-75548427D01*
X152304436Y-75772884D01*
X152590116Y-76058564D01*
X152680765Y-76194229D01*
X152814574Y-76394489D01*
X152969182Y-76767746D01*
X153048000Y-77163993D01*
X153048000Y-77568007D01*
X152969182Y-77964254D01*
X152853506Y-78243520D01*
X152814573Y-78337513D01*
X152590116Y-78673436D01*
X152304436Y-78959116D01*
X151968513Y-79183573D01*
X151968512Y-79183574D01*
X151968511Y-79183574D01*
X151595254Y-79338182D01*
X151199007Y-79417000D01*
X150794993Y-79417000D01*
X150398746Y-79338182D01*
X150025489Y-79183574D01*
X150025488Y-79183574D01*
X150025487Y-79183573D01*
X149689564Y-78959116D01*
X149403884Y-78673436D01*
X149179427Y-78337513D01*
X149140494Y-78243520D01*
X149024818Y-77964254D01*
X148946000Y-77568007D01*
X148946000Y-77163993D01*
X149024818Y-76767746D01*
X149179426Y-76394489D01*
X149313236Y-76194229D01*
X149403884Y-76058564D01*
X149689564Y-75772884D01*
X150025487Y-75548427D01*
X150038830Y-75542900D01*
X150398746Y-75393818D01*
X150794993Y-75315000D01*
X151199007Y-75315000D01*
X151595254Y-75393818D01*
X151595254Y-75393818D01*
G37*
G36*
X118067254Y-75393818D02*
G01*
X118427170Y-75542900D01*
X118440513Y-75548427D01*
X118776436Y-75772884D01*
X119062116Y-76058564D01*
X119152765Y-76194229D01*
X119286574Y-76394489D01*
X119441182Y-76767746D01*
X119520000Y-77163993D01*
X119520000Y-77568007D01*
X119441182Y-77964254D01*
X119325506Y-78243520D01*
X119286573Y-78337513D01*
X119062116Y-78673436D01*
X118776436Y-78959116D01*
X118440513Y-79183573D01*
X118440512Y-79183574D01*
X118440511Y-79183574D01*
X118067254Y-79338182D01*
X117671007Y-79417000D01*
X117266993Y-79417000D01*
X116870746Y-79338182D01*
X116497489Y-79183574D01*
X116497488Y-79183574D01*
X116497487Y-79183573D01*
X116161564Y-78959116D01*
X115875884Y-78673436D01*
X115651427Y-78337513D01*
X115612494Y-78243520D01*
X115496818Y-77964254D01*
X115418000Y-77568007D01*
X115418000Y-77163993D01*
X115496818Y-76767746D01*
X115651426Y-76394489D01*
X115785236Y-76194229D01*
X115875884Y-76058564D01*
X116161564Y-75772884D01*
X116497487Y-75548427D01*
X116510830Y-75542900D01*
X116870746Y-75393818D01*
X117266993Y-75315000D01*
X117671007Y-75315000D01*
X118067254Y-75393818D01*
X118067254Y-75393818D01*
G37*
G36*
X84539254Y-75393818D02*
G01*
X84899170Y-75542900D01*
X84912513Y-75548427D01*
X85248436Y-75772884D01*
X85534116Y-76058564D01*
X85624765Y-76194229D01*
X85758574Y-76394489D01*
X85913182Y-76767746D01*
X85992000Y-77163993D01*
X85992000Y-77568007D01*
X85913182Y-77964254D01*
X85797506Y-78243520D01*
X85758573Y-78337513D01*
X85534116Y-78673436D01*
X85248436Y-78959116D01*
X84912513Y-79183573D01*
X84912512Y-79183574D01*
X84912511Y-79183574D01*
X84539254Y-79338182D01*
X84143007Y-79417000D01*
X83738993Y-79417000D01*
X83342746Y-79338182D01*
X82969489Y-79183574D01*
X82969488Y-79183574D01*
X82969487Y-79183573D01*
X82633564Y-78959116D01*
X82347884Y-78673436D01*
X82123427Y-78337513D01*
X82084494Y-78243520D01*
X81968818Y-77964254D01*
X81890000Y-77568007D01*
X81890000Y-77163993D01*
X81968818Y-76767746D01*
X82123426Y-76394489D01*
X82257236Y-76194229D01*
X82347884Y-76058564D01*
X82633564Y-75772884D01*
X82969487Y-75548427D01*
X82982830Y-75542900D01*
X83342746Y-75393818D01*
X83738993Y-75315000D01*
X84143007Y-75315000D01*
X84539254Y-75393818D01*
X84539254Y-75393818D01*
G37*
G36*
X109539254Y-75393818D02*
G01*
X109899170Y-75542900D01*
X109912513Y-75548427D01*
X110248436Y-75772884D01*
X110534116Y-76058564D01*
X110624765Y-76194229D01*
X110758574Y-76394489D01*
X110913182Y-76767746D01*
X110992000Y-77163993D01*
X110992000Y-77568007D01*
X110913182Y-77964254D01*
X110797506Y-78243520D01*
X110758573Y-78337513D01*
X110534116Y-78673436D01*
X110248436Y-78959116D01*
X109912513Y-79183573D01*
X109912512Y-79183574D01*
X109912511Y-79183574D01*
X109539254Y-79338182D01*
X109143007Y-79417000D01*
X108738993Y-79417000D01*
X108342746Y-79338182D01*
X107969489Y-79183574D01*
X107969488Y-79183574D01*
X107969487Y-79183573D01*
X107633564Y-78959116D01*
X107347884Y-78673436D01*
X107123427Y-78337513D01*
X107084494Y-78243520D01*
X106968818Y-77964254D01*
X106890000Y-77568007D01*
X106890000Y-77163993D01*
X106968818Y-76767746D01*
X107123426Y-76394489D01*
X107257236Y-76194229D01*
X107347884Y-76058564D01*
X107633564Y-75772884D01*
X107969487Y-75548427D01*
X107982830Y-75542900D01*
X108342746Y-75393818D01*
X108738993Y-75315000D01*
X109143007Y-75315000D01*
X109539254Y-75393818D01*
X109539254Y-75393818D01*
G37*
G36*
X176595254Y-75393818D02*
G01*
X176955170Y-75542900D01*
X176968513Y-75548427D01*
X177304436Y-75772884D01*
X177590116Y-76058564D01*
X177680765Y-76194229D01*
X177814574Y-76394489D01*
X177969182Y-76767746D01*
X178048000Y-77163993D01*
X178048000Y-77568007D01*
X177969182Y-77964254D01*
X177853506Y-78243520D01*
X177814573Y-78337513D01*
X177590116Y-78673436D01*
X177304436Y-78959116D01*
X176968513Y-79183573D01*
X176968512Y-79183574D01*
X176968511Y-79183574D01*
X176595254Y-79338182D01*
X176199007Y-79417000D01*
X175794993Y-79417000D01*
X175398746Y-79338182D01*
X175025489Y-79183574D01*
X175025488Y-79183574D01*
X175025487Y-79183573D01*
X174689564Y-78959116D01*
X174403884Y-78673436D01*
X174179427Y-78337513D01*
X174140494Y-78243520D01*
X174024818Y-77964254D01*
X173946000Y-77568007D01*
X173946000Y-77163993D01*
X174024818Y-76767746D01*
X174179426Y-76394489D01*
X174313236Y-76194229D01*
X174403884Y-76058564D01*
X174689564Y-75772884D01*
X175025487Y-75548427D01*
X175038830Y-75542900D01*
X175398746Y-75393818D01*
X175794993Y-75315000D01*
X176199007Y-75315000D01*
X176595254Y-75393818D01*
X176595254Y-75393818D01*
G37*
G36*
X143067254Y-75393818D02*
G01*
X143427170Y-75542900D01*
X143440513Y-75548427D01*
X143776436Y-75772884D01*
X144062116Y-76058564D01*
X144152765Y-76194229D01*
X144286574Y-76394489D01*
X144441182Y-76767746D01*
X144520000Y-77163993D01*
X144520000Y-77568007D01*
X144441182Y-77964254D01*
X144325506Y-78243520D01*
X144286573Y-78337513D01*
X144062116Y-78673436D01*
X143776436Y-78959116D01*
X143440513Y-79183573D01*
X143440512Y-79183574D01*
X143440511Y-79183574D01*
X143067254Y-79338182D01*
X142671007Y-79417000D01*
X142266993Y-79417000D01*
X141870746Y-79338182D01*
X141497489Y-79183574D01*
X141497488Y-79183574D01*
X141497487Y-79183573D01*
X141161564Y-78959116D01*
X140875884Y-78673436D01*
X140651427Y-78337513D01*
X140612494Y-78243520D01*
X140496818Y-77964254D01*
X140418000Y-77568007D01*
X140418000Y-77163993D01*
X140496818Y-76767746D01*
X140651426Y-76394489D01*
X140785236Y-76194229D01*
X140875884Y-76058564D01*
X141161564Y-75772884D01*
X141497487Y-75548427D01*
X141510830Y-75542900D01*
X141870746Y-75393818D01*
X142266993Y-75315000D01*
X142671007Y-75315000D01*
X143067254Y-75393818D01*
X143067254Y-75393818D01*
G37*
G36*
X99459228Y-75127703D02*
G01*
X99614100Y-75191853D01*
X99753481Y-75284985D01*
X99872015Y-75403519D01*
X99965147Y-75542900D01*
X100029297Y-75697772D01*
X100062000Y-75862184D01*
X100062000Y-76029816D01*
X100029297Y-76194228D01*
X99965147Y-76349100D01*
X99872015Y-76488481D01*
X99753481Y-76607015D01*
X99614100Y-76700147D01*
X99459228Y-76764297D01*
X99294816Y-76797000D01*
X99127184Y-76797000D01*
X98962772Y-76764297D01*
X98807900Y-76700147D01*
X98668519Y-76607015D01*
X98549985Y-76488481D01*
X98456853Y-76349100D01*
X98392703Y-76194228D01*
X98360000Y-76029816D01*
X98360000Y-75862184D01*
X98392703Y-75697772D01*
X98456853Y-75542900D01*
X98549985Y-75403519D01*
X98668519Y-75284985D01*
X98807900Y-75191853D01*
X98962772Y-75127703D01*
X99127184Y-75095000D01*
X99294816Y-75095000D01*
X99459228Y-75127703D01*
X99459228Y-75127703D01*
G37*
G36*
X93919228Y-75127703D02*
G01*
X94074100Y-75191853D01*
X94213481Y-75284985D01*
X94332015Y-75403519D01*
X94425147Y-75542900D01*
X94489297Y-75697772D01*
X94522000Y-75862184D01*
X94522000Y-76029816D01*
X94489297Y-76194228D01*
X94425147Y-76349100D01*
X94332015Y-76488481D01*
X94213481Y-76607015D01*
X94074100Y-76700147D01*
X93919228Y-76764297D01*
X93754816Y-76797000D01*
X93587184Y-76797000D01*
X93422772Y-76764297D01*
X93267900Y-76700147D01*
X93128519Y-76607015D01*
X93009985Y-76488481D01*
X92916853Y-76349100D01*
X92852703Y-76194228D01*
X92820000Y-76029816D01*
X92820000Y-75862184D01*
X92852703Y-75697772D01*
X92916853Y-75542900D01*
X93009985Y-75403519D01*
X93128519Y-75284985D01*
X93267900Y-75191853D01*
X93422772Y-75127703D01*
X93587184Y-75095000D01*
X93754816Y-75095000D01*
X93919228Y-75127703D01*
X93919228Y-75127703D01*
G37*
G36*
X124677228Y-75127703D02*
G01*
X124832100Y-75191853D01*
X124971481Y-75284985D01*
X125090015Y-75403519D01*
X125183147Y-75542900D01*
X125247297Y-75697772D01*
X125280000Y-75862184D01*
X125280000Y-76029816D01*
X125247297Y-76194228D01*
X125183147Y-76349100D01*
X125090015Y-76488481D01*
X124971481Y-76607015D01*
X124832100Y-76700147D01*
X124677228Y-76764297D01*
X124512816Y-76797000D01*
X124345184Y-76797000D01*
X124180772Y-76764297D01*
X124025900Y-76700147D01*
X123886519Y-76607015D01*
X123767985Y-76488481D01*
X123674853Y-76349100D01*
X123610703Y-76194228D01*
X123578000Y-76029816D01*
X123578000Y-75862184D01*
X123610703Y-75697772D01*
X123674853Y-75542900D01*
X123767985Y-75403519D01*
X123886519Y-75284985D01*
X124025900Y-75191853D01*
X124180772Y-75127703D01*
X124345184Y-75095000D01*
X124512816Y-75095000D01*
X124677228Y-75127703D01*
X124677228Y-75127703D01*
G37*
G36*
X127447228Y-75127703D02*
G01*
X127602100Y-75191853D01*
X127741481Y-75284985D01*
X127860015Y-75403519D01*
X127953147Y-75542900D01*
X128017297Y-75697772D01*
X128050000Y-75862184D01*
X128050000Y-76029816D01*
X128017297Y-76194228D01*
X127953147Y-76349100D01*
X127860015Y-76488481D01*
X127741481Y-76607015D01*
X127602100Y-76700147D01*
X127447228Y-76764297D01*
X127282816Y-76797000D01*
X127115184Y-76797000D01*
X126950772Y-76764297D01*
X126795900Y-76700147D01*
X126656519Y-76607015D01*
X126537985Y-76488481D01*
X126444853Y-76349100D01*
X126380703Y-76194228D01*
X126348000Y-76029816D01*
X126348000Y-75862184D01*
X126380703Y-75697772D01*
X126444853Y-75542900D01*
X126537985Y-75403519D01*
X126656519Y-75284985D01*
X126795900Y-75191853D01*
X126950772Y-75127703D01*
X127115184Y-75095000D01*
X127282816Y-75095000D01*
X127447228Y-75127703D01*
X127447228Y-75127703D01*
G37*
G36*
X130217228Y-75127703D02*
G01*
X130372100Y-75191853D01*
X130511481Y-75284985D01*
X130630015Y-75403519D01*
X130723147Y-75542900D01*
X130787297Y-75697772D01*
X130820000Y-75862184D01*
X130820000Y-76029816D01*
X130787297Y-76194228D01*
X130723147Y-76349100D01*
X130630015Y-76488481D01*
X130511481Y-76607015D01*
X130372100Y-76700147D01*
X130217228Y-76764297D01*
X130052816Y-76797000D01*
X129885184Y-76797000D01*
X129720772Y-76764297D01*
X129565900Y-76700147D01*
X129426519Y-76607015D01*
X129307985Y-76488481D01*
X129214853Y-76349100D01*
X129150703Y-76194228D01*
X129118000Y-76029816D01*
X129118000Y-75862184D01*
X129150703Y-75697772D01*
X129214853Y-75542900D01*
X129307985Y-75403519D01*
X129426519Y-75284985D01*
X129565900Y-75191853D01*
X129720772Y-75127703D01*
X129885184Y-75095000D01*
X130052816Y-75095000D01*
X130217228Y-75127703D01*
X130217228Y-75127703D01*
G37*
G36*
X132987228Y-75127703D02*
G01*
X133142100Y-75191853D01*
X133281481Y-75284985D01*
X133400015Y-75403519D01*
X133493147Y-75542900D01*
X133557297Y-75697772D01*
X133590000Y-75862184D01*
X133590000Y-76029816D01*
X133557297Y-76194228D01*
X133493147Y-76349100D01*
X133400015Y-76488481D01*
X133281481Y-76607015D01*
X133142100Y-76700147D01*
X132987228Y-76764297D01*
X132822816Y-76797000D01*
X132655184Y-76797000D01*
X132490772Y-76764297D01*
X132335900Y-76700147D01*
X132196519Y-76607015D01*
X132077985Y-76488481D01*
X131984853Y-76349100D01*
X131920703Y-76194228D01*
X131888000Y-76029816D01*
X131888000Y-75862184D01*
X131920703Y-75697772D01*
X131984853Y-75542900D01*
X132077985Y-75403519D01*
X132196519Y-75284985D01*
X132335900Y-75191853D01*
X132490772Y-75127703D01*
X132655184Y-75095000D01*
X132822816Y-75095000D01*
X132987228Y-75127703D01*
X132987228Y-75127703D01*
G37*
G36*
X96689228Y-75127703D02*
G01*
X96844100Y-75191853D01*
X96983481Y-75284985D01*
X97102015Y-75403519D01*
X97195147Y-75542900D01*
X97259297Y-75697772D01*
X97292000Y-75862184D01*
X97292000Y-76029816D01*
X97259297Y-76194228D01*
X97195147Y-76349100D01*
X97102015Y-76488481D01*
X96983481Y-76607015D01*
X96844100Y-76700147D01*
X96689228Y-76764297D01*
X96524816Y-76797000D01*
X96357184Y-76797000D01*
X96192772Y-76764297D01*
X96037900Y-76700147D01*
X95898519Y-76607015D01*
X95779985Y-76488481D01*
X95686853Y-76349100D01*
X95622703Y-76194228D01*
X95590000Y-76029816D01*
X95590000Y-75862184D01*
X95622703Y-75697772D01*
X95686853Y-75542900D01*
X95779985Y-75403519D01*
X95898519Y-75284985D01*
X96037900Y-75191853D01*
X96192772Y-75127703D01*
X96357184Y-75095000D01*
X96524816Y-75095000D01*
X96689228Y-75127703D01*
X96689228Y-75127703D01*
G37*
G36*
X169888000Y-76797000D02*
G01*
X168186000Y-76797000D01*
X168186000Y-75095000D01*
X169888000Y-75095000D01*
X169888000Y-76797000D01*
X169888000Y-76797000D01*
G37*
G36*
X136360000Y-76797000D02*
G01*
X134658000Y-76797000D01*
X134658000Y-75095000D01*
X136360000Y-75095000D01*
X136360000Y-76797000D01*
X136360000Y-76797000D01*
G37*
G36*
X158205228Y-75127703D02*
G01*
X158360100Y-75191853D01*
X158499481Y-75284985D01*
X158618015Y-75403519D01*
X158711147Y-75542900D01*
X158775297Y-75697772D01*
X158808000Y-75862184D01*
X158808000Y-76029816D01*
X158775297Y-76194228D01*
X158711147Y-76349100D01*
X158618015Y-76488481D01*
X158499481Y-76607015D01*
X158360100Y-76700147D01*
X158205228Y-76764297D01*
X158040816Y-76797000D01*
X157873184Y-76797000D01*
X157708772Y-76764297D01*
X157553900Y-76700147D01*
X157414519Y-76607015D01*
X157295985Y-76488481D01*
X157202853Y-76349100D01*
X157138703Y-76194228D01*
X157106000Y-76029816D01*
X157106000Y-75862184D01*
X157138703Y-75697772D01*
X157202853Y-75542900D01*
X157295985Y-75403519D01*
X157414519Y-75284985D01*
X157553900Y-75191853D01*
X157708772Y-75127703D01*
X157873184Y-75095000D01*
X158040816Y-75095000D01*
X158205228Y-75127703D01*
X158205228Y-75127703D01*
G37*
G36*
X160975228Y-75127703D02*
G01*
X161130100Y-75191853D01*
X161269481Y-75284985D01*
X161388015Y-75403519D01*
X161481147Y-75542900D01*
X161545297Y-75697772D01*
X161578000Y-75862184D01*
X161578000Y-76029816D01*
X161545297Y-76194228D01*
X161481147Y-76349100D01*
X161388015Y-76488481D01*
X161269481Y-76607015D01*
X161130100Y-76700147D01*
X160975228Y-76764297D01*
X160810816Y-76797000D01*
X160643184Y-76797000D01*
X160478772Y-76764297D01*
X160323900Y-76700147D01*
X160184519Y-76607015D01*
X160065985Y-76488481D01*
X159972853Y-76349100D01*
X159908703Y-76194228D01*
X159876000Y-76029816D01*
X159876000Y-75862184D01*
X159908703Y-75697772D01*
X159972853Y-75542900D01*
X160065985Y-75403519D01*
X160184519Y-75284985D01*
X160323900Y-75191853D01*
X160478772Y-75127703D01*
X160643184Y-75095000D01*
X160810816Y-75095000D01*
X160975228Y-75127703D01*
X160975228Y-75127703D01*
G37*
G36*
X163745228Y-75127703D02*
G01*
X163900100Y-75191853D01*
X164039481Y-75284985D01*
X164158015Y-75403519D01*
X164251147Y-75542900D01*
X164315297Y-75697772D01*
X164348000Y-75862184D01*
X164348000Y-76029816D01*
X164315297Y-76194228D01*
X164251147Y-76349100D01*
X164158015Y-76488481D01*
X164039481Y-76607015D01*
X163900100Y-76700147D01*
X163745228Y-76764297D01*
X163580816Y-76797000D01*
X163413184Y-76797000D01*
X163248772Y-76764297D01*
X163093900Y-76700147D01*
X162954519Y-76607015D01*
X162835985Y-76488481D01*
X162742853Y-76349100D01*
X162678703Y-76194228D01*
X162646000Y-76029816D01*
X162646000Y-75862184D01*
X162678703Y-75697772D01*
X162742853Y-75542900D01*
X162835985Y-75403519D01*
X162954519Y-75284985D01*
X163093900Y-75191853D01*
X163248772Y-75127703D01*
X163413184Y-75095000D01*
X163580816Y-75095000D01*
X163745228Y-75127703D01*
X163745228Y-75127703D01*
G37*
G36*
X166515228Y-75127703D02*
G01*
X166670100Y-75191853D01*
X166809481Y-75284985D01*
X166928015Y-75403519D01*
X167021147Y-75542900D01*
X167085297Y-75697772D01*
X167118000Y-75862184D01*
X167118000Y-76029816D01*
X167085297Y-76194228D01*
X167021147Y-76349100D01*
X166928015Y-76488481D01*
X166809481Y-76607015D01*
X166670100Y-76700147D01*
X166515228Y-76764297D01*
X166350816Y-76797000D01*
X166183184Y-76797000D01*
X166018772Y-76764297D01*
X165863900Y-76700147D01*
X165724519Y-76607015D01*
X165605985Y-76488481D01*
X165512853Y-76349100D01*
X165448703Y-76194228D01*
X165416000Y-76029816D01*
X165416000Y-75862184D01*
X165448703Y-75697772D01*
X165512853Y-75542900D01*
X165605985Y-75403519D01*
X165724519Y-75284985D01*
X165863900Y-75191853D01*
X166018772Y-75127703D01*
X166183184Y-75095000D01*
X166350816Y-75095000D01*
X166515228Y-75127703D01*
X166515228Y-75127703D01*
G37*
G36*
X91149228Y-75127703D02*
G01*
X91304100Y-75191853D01*
X91443481Y-75284985D01*
X91562015Y-75403519D01*
X91655147Y-75542900D01*
X91719297Y-75697772D01*
X91752000Y-75862184D01*
X91752000Y-76029816D01*
X91719297Y-76194228D01*
X91655147Y-76349100D01*
X91562015Y-76488481D01*
X91443481Y-76607015D01*
X91304100Y-76700147D01*
X91149228Y-76764297D01*
X90984816Y-76797000D01*
X90817184Y-76797000D01*
X90652772Y-76764297D01*
X90497900Y-76700147D01*
X90358519Y-76607015D01*
X90239985Y-76488481D01*
X90146853Y-76349100D01*
X90082703Y-76194228D01*
X90050000Y-76029816D01*
X90050000Y-75862184D01*
X90082703Y-75697772D01*
X90146853Y-75542900D01*
X90239985Y-75403519D01*
X90358519Y-75284985D01*
X90497900Y-75191853D01*
X90652772Y-75127703D01*
X90817184Y-75095000D01*
X90984816Y-75095000D01*
X91149228Y-75127703D01*
X91149228Y-75127703D01*
G37*
G36*
X102832000Y-76797000D02*
G01*
X101130000Y-76797000D01*
X101130000Y-75095000D01*
X102832000Y-75095000D01*
X102832000Y-76797000D01*
X102832000Y-76797000D01*
G37*
G36*
X151053000Y-73672000D02*
G01*
X147651000Y-73672000D01*
X147651000Y-71870000D01*
X151053000Y-71870000D01*
X151053000Y-73672000D01*
X151053000Y-73672000D01*
G37*
G36*
X156553000Y-73672000D02*
G01*
X153151000Y-73672000D01*
X153151000Y-71870000D01*
X156553000Y-71870000D01*
X156553000Y-73672000D01*
X156553000Y-73672000D01*
G37*
G36*
X140175000Y-72656000D02*
G01*
X136773000Y-72656000D01*
X136773000Y-70854000D01*
X140175000Y-70854000D01*
X140175000Y-72656000D01*
X140175000Y-72656000D01*
G37*
G36*
X145675000Y-72656000D02*
G01*
X142273000Y-72656000D01*
X142273000Y-70854000D01*
X145675000Y-70854000D01*
X145675000Y-72656000D01*
X145675000Y-72656000D01*
G37*
G36*
X103638000Y-72656000D02*
G01*
X100236000Y-72656000D01*
X100236000Y-70854000D01*
X103638000Y-70854000D01*
X103638000Y-72656000D01*
X103638000Y-72656000D01*
G37*
G36*
X98138000Y-72656000D02*
G01*
X94736000Y-72656000D01*
X94736000Y-70854000D01*
X98138000Y-70854000D01*
X98138000Y-72656000D01*
X98138000Y-72656000D01*
G37*
G36*
X117696000Y-72656000D02*
G01*
X114294000Y-72656000D01*
X114294000Y-70854000D01*
X117696000Y-70854000D01*
X117696000Y-72656000D01*
X117696000Y-72656000D01*
G37*
G36*
X123196000Y-72656000D02*
G01*
X119794000Y-72656000D01*
X119794000Y-70854000D01*
X123196000Y-70854000D01*
X123196000Y-72656000D01*
X123196000Y-72656000D01*
G37*
M02*
