G04 #@! TF.GenerationSoftware,KiCad,Pcbnew,(5.1.2)-2*
G04 #@! TF.CreationDate,2019-11-27T23:52:17-06:00*
G04 #@! TF.ProjectId,ti99-joystick,74693939-2d6a-46f7-9973-7469636b2e6b,rev?*
G04 #@! TF.SameCoordinates,Original*
G04 #@! TF.FileFunction,Copper,L2,Bot*
G04 #@! TF.FilePolarity,Positive*
%FSLAX46Y46*%
G04 Gerber Fmt 4.6, Leading zero omitted, Abs format (unit mm)*
G04 Created by KiCad (PCBNEW (5.1.2)-2) date 2019-11-27 23:52:17*
%MOMM*%
%LPD*%
G04 APERTURE LIST*
%ADD10R,1.600000X1.600000*%
%ADD11C,1.600000*%
%ADD12C,4.000000*%
%ADD13C,0.800000*%
%ADD14C,0.250000*%
G04 APERTURE END LIST*
D10*
X135509000Y-75946000D03*
D11*
X132739000Y-75946000D03*
X129969000Y-75946000D03*
X127199000Y-75946000D03*
X124429000Y-75946000D03*
X134124000Y-78786000D03*
X131354000Y-78786000D03*
X128584000Y-78786000D03*
X125814000Y-78786000D03*
D12*
X117469000Y-77366000D03*
X142469000Y-77366000D03*
X83941000Y-77366000D03*
X108941000Y-77366000D03*
D11*
X92286000Y-78786000D03*
X95056000Y-78786000D03*
X97826000Y-78786000D03*
X100596000Y-78786000D03*
X90901000Y-75946000D03*
X93671000Y-75946000D03*
X96441000Y-75946000D03*
X99211000Y-75946000D03*
D10*
X101981000Y-75946000D03*
X169037000Y-75946000D03*
D11*
X166267000Y-75946000D03*
X163497000Y-75946000D03*
X160727000Y-75946000D03*
X157957000Y-75946000D03*
X167652000Y-78786000D03*
X164882000Y-78786000D03*
X162112000Y-78786000D03*
X159342000Y-78786000D03*
D12*
X175997000Y-77366000D03*
X150997000Y-77366000D03*
D13*
X125857000Y-71755000D03*
X106553000Y-73279000D03*
X113284000Y-82423000D03*
D14*
X95310000Y-79917370D02*
X99212630Y-83820000D01*
X95310000Y-78786000D02*
X95310000Y-79917370D01*
X131939001Y-76745999D02*
X132739000Y-75946000D01*
X131130003Y-76745999D02*
X131939001Y-76745999D01*
X130028999Y-77847003D02*
X131130003Y-76745999D01*
X130028999Y-79302003D02*
X130028999Y-77847003D01*
X125511002Y-83820000D02*
X130028999Y-79302003D01*
X125476000Y-83820000D02*
X125511002Y-83820000D01*
X125476000Y-83820000D02*
X125735000Y-83820000D01*
X99212630Y-83820000D02*
X125476000Y-83820000D01*
X132153999Y-79585999D02*
X131354000Y-78786000D01*
X132806001Y-80238001D02*
X132153999Y-79585999D01*
X160786999Y-80238001D02*
X132806001Y-80238001D01*
X162112000Y-78913000D02*
X160786999Y-80238001D01*
X129969000Y-75946000D02*
X125857000Y-71834000D01*
X125857000Y-71834000D02*
X125857000Y-71755000D01*
X124429000Y-75946000D02*
X121762000Y-73279000D01*
X121762000Y-73279000D02*
X106553000Y-73279000D01*
X100010999Y-76745999D02*
X99211000Y-75946000D01*
X100536001Y-77271001D02*
X100010999Y-76745999D01*
X101274001Y-77271001D02*
X100536001Y-77271001D01*
X103894001Y-79891001D02*
X101274001Y-77271001D01*
X111317686Y-79891001D02*
X103894001Y-79891001D01*
X113284000Y-81857315D02*
X111317686Y-79891001D01*
X113284000Y-82423000D02*
X113284000Y-81857315D01*
M02*
