%
M48
METRIC,000.000
T01C0.40
T02C1.00
T03C3.20
%
T01
X026552Y011721
X033284Y002576
X045857Y013245
X026552Y028721
X033284Y019577
X045857Y030245
X026552Y045721
X033284Y036577
X045857Y047245
X026552Y062721
X033284Y053577
X045857Y064245
X026552Y079721
X033284Y070577
X045857Y081245
X026552Y096721
X033284Y087577
X045857Y098245
T02
X044429Y009054
X045813Y006213
X047199Y009054
X048584Y006213
X049968Y009054
X051354Y006213
X052739Y009054
X054123Y006213
X055508Y009054
X010900Y009054
X012286Y006213
X013671Y009054
X015055Y006213
X016441Y009054
X017825Y006213
X019211Y009054
X020596Y006213
X021980Y009054
X077957Y009054
X079342Y006213
X080727Y009054
X082112Y006213
X083497Y009054
X084882Y006213
X086267Y009054
X087651Y006213
X089037Y009054
X044429Y026054
X045813Y023214
X047199Y026054
X048584Y023214
X049968Y026054
X051354Y023214
X052739Y026054
X054123Y023214
X055508Y026054
X010900Y026054
X012286Y023214
X013671Y026054
X015055Y023214
X016441Y026054
X017825Y023214
X019211Y026054
X020596Y023214
X021980Y026054
X077957Y026054
X079342Y023214
X080727Y026054
X082112Y023214
X083497Y026054
X084882Y023214
X086267Y026054
X087651Y023214
X089037Y026054
X044429Y043054
X045813Y040214
X047199Y043054
X048584Y040214
X049968Y043054
X051354Y040214
X052739Y043054
X054123Y040214
X055508Y043054
X010900Y043054
X012286Y040214
X013671Y043054
X015055Y040214
X016441Y043054
X017825Y040214
X019211Y043054
X020596Y040214
X021980Y043054
X077957Y043054
X079342Y040214
X080727Y043054
X082112Y040214
X083497Y043054
X084882Y040214
X086267Y043054
X087651Y040214
X089037Y043054
X044429Y060054
X045813Y057214
X047199Y060054
X048584Y057214
X049968Y060054
X051354Y057214
X052739Y060054
X054123Y057214
X055508Y060054
X010900Y060054
X012286Y057214
X013671Y060054
X015055Y057214
X016441Y060054
X017825Y057214
X019211Y060054
X020596Y057214
X021980Y060054
X077957Y060054
X079342Y057214
X080727Y060054
X082112Y057214
X083497Y060054
X084882Y057214
X086267Y060054
X087651Y057214
X089037Y060054
X044429Y077054
X045813Y074214
X047199Y077054
X048584Y074214
X049968Y077054
X051354Y074214
X052739Y077054
X054123Y074214
X055508Y077054
X010900Y077054
X012286Y074214
X013671Y077054
X015055Y074214
X016441Y077054
X017825Y074214
X019211Y077054
X020596Y074214
X021980Y077054
X077957Y077054
X079342Y074214
X080727Y077054
X082112Y074214
X083497Y077054
X084882Y074214
X086267Y077054
X087651Y074214
X089037Y077054
X044429Y094054
X045813Y091214
X047199Y094054
X048584Y091214
X049968Y094054
X051354Y091214
X052739Y094054
X054123Y091214
X055508Y094054
X010900Y094054
X012286Y091214
X013671Y094054
X015055Y091214
X016441Y094054
X017825Y091214
X019211Y094054
X020596Y091214
X021980Y094054
X077957Y094054
X079342Y091214
X080727Y094054
X082112Y091214
X083497Y094054
X084882Y091214
X086267Y094054
X087651Y091214
X089037Y094054
T03
X037468Y007634
X062468Y007634
X003941Y007634
X028941Y007634
X070997Y007634
X095997Y007634
X037468Y024634
X062468Y024634
X003941Y024634
X028941Y024634
X070997Y024634
X095997Y024634
X037468Y041634
X062468Y041634
X003941Y041634
X028941Y041634
X070997Y041634
X095997Y041634
X037468Y058634
X062468Y058634
X003941Y058634
X028941Y058634
X070997Y058634
X095997Y058634
X037468Y075634
X062468Y075634
X003941Y075634
X028941Y075634
X070997Y075634
X095997Y075634
X037468Y092634
X062468Y092634
X003941Y092634
X028941Y092634
X070997Y092634
X095997Y092634
M30