%
M48
METRIC,000.000
T01C0.50
%
T01
X008785Y083250
X007785Y083250
X006785Y083250
X005785Y083250
X004785Y083250
X003785Y083250
X003429Y084750
X004429Y084750
X005429Y084750
X006429Y084750
X007429Y084750
X008429Y084750
X042785Y083250
X041785Y083250
X040785Y083250
X039785Y083250
X038785Y083250
X037785Y083250
X037429Y084750
X038429Y084750
X039429Y084750
X040429Y084750
X041429Y084750
X042429Y084750
X095785Y083250
X094785Y083250
X093785Y083250
X092785Y083250
X091785Y083250
X090785Y083250
X090429Y084750
X091429Y084750
X092429Y084750
X093429Y084750
X094429Y084750
X095429Y084750
X068785Y083250
X067785Y083250
X066785Y083250
X065785Y083250
X064785Y083250
X063785Y083250
X064429Y084750
X065429Y084750
X066429Y084750
X067429Y084750
X068429Y084750
X007785Y066250
X006785Y066250
X005785Y066250
X004785Y066250
X003785Y066250
X002785Y066250
X002429Y067750
X003429Y067750
X004429Y067750
X005429Y067750
X006429Y067750
X007429Y067750
X006785Y049250
X005785Y049250
X004785Y049250
X003785Y049250
X002785Y049250
X002429Y050750
X003429Y050750
X004429Y050750
X005429Y050750
X006429Y050750
X007429Y050750
X006785Y032250
X005785Y032250
X004785Y032250
X003785Y032250
X002785Y032250
X001785Y032250
X002429Y033750
X003429Y033750
X004429Y033750
X005429Y033750
X006429Y033750
X006785Y015250
X005785Y015250
X004785Y015250
X003785Y015250
X002785Y015250
X001785Y015250
X001429Y016750
X002429Y016750
X003429Y016750
X004429Y016750
X005429Y016750
X006429Y016750
X041785Y066250
X040785Y066250
X039785Y066250
X038785Y066250
X037785Y066250
X037429Y067750
X038429Y067750
X039429Y067750
X040429Y067750
X041429Y067750
X042429Y067750
X041785Y049250
X040785Y049250
X039785Y049250
X038785Y049250
X037785Y049250
X036785Y049250
X036429Y050750
X037429Y050750
X038429Y050750
X039429Y050750
X040429Y050750
X041429Y050750
X039785Y032250
X038785Y032250
X037785Y032250
X036785Y032250
X035785Y032250
X035429Y033750
X036429Y033750
X037429Y033750
X038429Y033750
X039429Y033750
X040429Y033750
X039785Y015250
X038785Y015250
X037785Y015250
X036785Y015250
X035785Y015250
X034785Y015250
X034429Y016750
X035429Y016750
X036429Y016750
X037429Y016750
X038429Y016750
X039429Y016750
X067785Y066250
X066785Y066250
X065785Y066250
X064785Y066250
X063785Y066250
X063429Y067750
X064429Y067750
X065429Y067750
X066429Y067750
X067429Y067750
X068429Y067750
X067785Y032250
X066785Y032250
X065785Y032250
X064785Y032250
X063785Y032250
X063429Y033750
X064429Y033750
X065429Y033750
X066429Y033750
X067429Y033750
X068429Y033750
X067785Y015250
X066785Y015250
X065785Y015250
X064785Y015250
X063785Y015250
X062785Y015250
X062429Y016750
X063429Y016750
X064429Y016750
X065429Y016750
X066429Y016750
X067429Y016750
X095785Y066250
X094785Y066250
X093785Y066250
X092785Y066250
X091785Y066250
X090785Y066250
X091429Y067750
X092429Y067750
X093429Y067750
X094429Y067750
X095429Y067750
X096429Y067750
X094785Y032250
X093785Y032250
X092785Y032250
X091785Y032250
X090785Y032250
X090429Y033750
X091429Y033750
X092429Y033750
X093429Y033750
X094429Y033750
X095429Y033750
X095785Y015250
X094785Y015250
X093785Y015250
X092785Y015250
X091785Y015250
X090785Y015250
X090429Y016750
X091429Y016750
X092429Y016750
X093429Y016750
X094429Y016750
X095429Y016750
X067785Y049250
X066785Y049250
X065785Y049250
X064785Y049250
X063785Y049250
X063429Y050750
X064429Y050750
X065429Y050750
X066429Y050750
X067429Y050750
X068429Y050750
X094785Y049250
X093785Y049250
X092785Y049250
X091785Y049250
X090785Y049250
X089785Y049250
X089429Y050750
X090429Y050750
X091429Y050750
X092429Y050750
X093429Y050750
X094429Y050750
M30