%MOIN*%
%OFA0B0*%
%FSLAX46Y46*%
%IPPOS*%
%LPD*%
%ADD10R,0.062992125984251982X0.062992125984251982*%
%ADD11C,0.062992125984251982*%
%ADD12C,0.15748031496062992*%
%ADD13C,0.031496062992125991*%
%ADD14C,0.00984251968503937*%
%ADD25R,0.062992125984251982X0.062992125984251982*%
%ADD26C,0.062992125984251982*%
%ADD27C,0.15748031496062992*%
%ADD28C,0.031496062992125991*%
%ADD29C,0.00984251968503937*%
%ADD30R,0.062992125984251982X0.062992125984251982*%
%ADD31C,0.062992125984251982*%
%ADD32C,0.15748031496062992*%
%ADD33C,0.031496062992125991*%
%ADD34C,0.00984251968503937*%
%ADD35R,0.062992125984251982X0.062992125984251982*%
%ADD36C,0.062992125984251982*%
%ADD37C,0.15748031496062992*%
%ADD38C,0.031496062992125991*%
%ADD39C,0.00984251968503937*%
%ADD40R,0.062992125984251982X0.062992125984251982*%
%ADD41C,0.062992125984251982*%
%ADD42C,0.15748031496062992*%
%ADD43C,0.031496062992125991*%
%ADD44C,0.00984251968503937*%
%ADD45R,0.062992125984251982X0.062992125984251982*%
%ADD46C,0.062992125984251982*%
%ADD47C,0.15748031496062992*%
%ADD48C,0.031496062992125991*%
%ADD49C,0.00984251968503937*%
D10*
X-0003149606Y0003346456D02*
X0002185393Y0000356456D03*
D11*
X0002076338Y0000356456D03*
X0001967283Y0000356456D03*
X0001858228Y0000356456D03*
X0001749173Y0000356456D03*
X0002130866Y0000244645D03*
X0002021811Y0000244645D03*
X0001912755Y0000244645D03*
X0001803700Y0000244645D03*
D12*
X0001475157Y0000300551D03*
X0002459409Y0000300551D03*
X0000155157Y0000300551D03*
X0001139409Y0000300551D03*
D11*
X0000483700Y0000244645D03*
X0000592755Y0000244645D03*
X0000701810Y0000244645D03*
X0000810866Y0000244645D03*
X0000429173Y0000356456D03*
X0000538228Y0000356456D03*
X0000647283Y0000356456D03*
X0000756338Y0000356456D03*
D10*
X0000865393Y0000356456D03*
X0003505393Y0000356456D03*
D11*
X0003396338Y0000356456D03*
X0003287283Y0000356456D03*
X0003178228Y0000356456D03*
X0003069173Y0000356456D03*
X0003450866Y0000244645D03*
X0003341811Y0000244645D03*
X0003232755Y0000244645D03*
X0003123700Y0000244645D03*
D12*
X0003779409Y0000300551D03*
X0002795157Y0000300551D03*
D13*
X0001805393Y0000521456D03*
X0001045393Y0000461456D03*
X0001310393Y0000101456D03*
D14*
X0000602755Y0000200103D02*
X0000756402Y0000046456D01*
X0000602755Y0000244645D02*
X0000602755Y0000200103D01*
X0002044842Y0000324960D02*
X0002076338Y0000356456D01*
X0002012992Y0000324960D02*
X0002044842Y0000324960D01*
X0001969645Y0000281614D02*
X0002012992Y0000324960D01*
X0001969645Y0000224330D02*
X0001969645Y0000281614D01*
X0001791771Y0000046456D02*
X0001969645Y0000224330D01*
X0001790393Y0000046456D02*
X0001791771Y0000046456D01*
X0001790393Y0000046456D02*
X0001800590Y0000046456D01*
X0000756402Y0000046456D02*
X0001790393Y0000046456D01*
X0002053307Y0000213149D02*
X0002021811Y0000244645D01*
X0002078976Y0000187480D02*
X0002053307Y0000213149D01*
X0003180590Y0000187480D02*
X0002078976Y0000187480D01*
X0003232755Y0000239645D02*
X0003180590Y0000187480D01*
X0001967283Y0000356456D02*
X0001805393Y0000518346D01*
X0001805393Y0000518346D02*
X0001805393Y0000521456D01*
X0001749173Y0000356456D02*
X0001644173Y0000461456D01*
X0001644173Y0000461456D02*
X0001045393Y0000461456D01*
X0000787834Y0000324960D02*
X0000756338Y0000356456D01*
X0000808503Y0000304291D02*
X0000787834Y0000324960D01*
X0000837559Y0000304291D02*
X0000808503Y0000304291D01*
X0000940708Y0000201141D02*
X0000837559Y0000304291D01*
X0001232979Y0000201141D02*
X0000940708Y0000201141D01*
X0001310393Y0000123727D02*
X0001232979Y0000201141D01*
X0001310393Y0000101456D02*
X0001310393Y0000123727D01*
G04 next file*
G04 #@! TF.GenerationSoftware,KiCad,Pcbnew,(5.1.2)-2*
G04 #@! TF.CreationDate,2019-11-27T23:52:17-06:00*
G04 #@! TF.ProjectId,ti99-joystick,74693939-2d6a-46f7-9973-7469636b2e6b,rev?*
G04 #@! TF.SameCoordinates,Original*
G04 #@! TF.FileFunction,Copper,L2,Bot*
G04 #@! TF.FilePolarity,Positive*
G04 Gerber Fmt 4.6, Leading zero omitted, Abs format (unit mm)*
G04 Created by KiCad (PCBNEW (5.1.2)-2) date 2019-11-27 23:52:17*
G04 APERTURE LIST*
G04 APERTURE END LIST*
D25*
X-0003149606Y0004015748D02*
X0002185393Y0001025748D03*
D26*
X0002076338Y0001025748D03*
X0001967283Y0001025748D03*
X0001858228Y0001025748D03*
X0001749173Y0001025748D03*
X0002130866Y0000913937D03*
X0002021811Y0000913937D03*
X0001912755Y0000913937D03*
X0001803700Y0000913937D03*
D27*
X0001475157Y0000969842D03*
X0002459409Y0000969842D03*
X0000155157Y0000969842D03*
X0001139409Y0000969842D03*
D26*
X0000483700Y0000913937D03*
X0000592755Y0000913937D03*
X0000701810Y0000913937D03*
X0000810866Y0000913937D03*
X0000429173Y0001025748D03*
X0000538228Y0001025748D03*
X0000647283Y0001025748D03*
X0000756338Y0001025748D03*
D25*
X0000865393Y0001025748D03*
X0003505393Y0001025748D03*
D26*
X0003396338Y0001025748D03*
X0003287283Y0001025748D03*
X0003178228Y0001025748D03*
X0003069173Y0001025748D03*
X0003450866Y0000913937D03*
X0003341811Y0000913937D03*
X0003232755Y0000913937D03*
X0003123700Y0000913937D03*
D27*
X0003779409Y0000969842D03*
X0002795157Y0000969842D03*
D28*
X0001805393Y0001190748D03*
X0001045393Y0001130748D03*
X0001310393Y0000770748D03*
D29*
X0000602755Y0000869394D02*
X0000756402Y0000715748D01*
X0000602755Y0000913937D02*
X0000602755Y0000869394D01*
X0002044842Y0000994252D02*
X0002076338Y0001025748D01*
X0002012992Y0000994252D02*
X0002044842Y0000994252D01*
X0001969645Y0000950905D02*
X0002012992Y0000994252D01*
X0001969645Y0000893621D02*
X0001969645Y0000950905D01*
X0001791771Y0000715748D02*
X0001969645Y0000893621D01*
X0001790393Y0000715748D02*
X0001791771Y0000715748D01*
X0001790393Y0000715748D02*
X0001800590Y0000715748D01*
X0000756402Y0000715748D02*
X0001790393Y0000715748D01*
X0002053307Y0000882440D02*
X0002021811Y0000913937D01*
X0002078976Y0000856771D02*
X0002053307Y0000882440D01*
X0003180590Y0000856771D02*
X0002078976Y0000856771D01*
X0003232755Y0000908937D02*
X0003180590Y0000856771D01*
X0001967283Y0001025748D02*
X0001805393Y0001187637D01*
X0001805393Y0001187637D02*
X0001805393Y0001190748D01*
X0001749173Y0001025748D02*
X0001644173Y0001130748D01*
X0001644173Y0001130748D02*
X0001045393Y0001130748D01*
X0000787834Y0000994252D02*
X0000756338Y0001025748D01*
X0000808503Y0000973582D02*
X0000787834Y0000994252D01*
X0000837559Y0000973582D02*
X0000808503Y0000973582D01*
X0000940708Y0000870432D02*
X0000837559Y0000973582D01*
X0001232979Y0000870432D02*
X0000940708Y0000870432D01*
X0001310393Y0000793019D02*
X0001232979Y0000870432D01*
X0001310393Y0000770748D02*
X0001310393Y0000793019D01*
G04 next file*
G04 #@! TF.GenerationSoftware,KiCad,Pcbnew,(5.1.2)-2*
G04 #@! TF.CreationDate,2019-11-27T23:52:17-06:00*
G04 #@! TF.ProjectId,ti99-joystick,74693939-2d6a-46f7-9973-7469636b2e6b,rev?*
G04 #@! TF.SameCoordinates,Original*
G04 #@! TF.FileFunction,Copper,L2,Bot*
G04 #@! TF.FilePolarity,Positive*
G04 Gerber Fmt 4.6, Leading zero omitted, Abs format (unit mm)*
G04 Created by KiCad (PCBNEW (5.1.2)-2) date 2019-11-27 23:52:17*
G04 APERTURE LIST*
G04 APERTURE END LIST*
D30*
X-0003149606Y0004685039D02*
X0002185393Y0001695039D03*
D31*
X0002076338Y0001695039D03*
X0001967283Y0001695039D03*
X0001858228Y0001695039D03*
X0001749173Y0001695039D03*
X0002130866Y0001583228D03*
X0002021811Y0001583228D03*
X0001912755Y0001583228D03*
X0001803700Y0001583228D03*
D32*
X0001475157Y0001639133D03*
X0002459409Y0001639133D03*
X0000155157Y0001639133D03*
X0001139409Y0001639133D03*
D31*
X0000483700Y0001583228D03*
X0000592755Y0001583228D03*
X0000701810Y0001583228D03*
X0000810866Y0001583228D03*
X0000429173Y0001695039D03*
X0000538228Y0001695039D03*
X0000647283Y0001695039D03*
X0000756338Y0001695039D03*
D30*
X0000865393Y0001695039D03*
X0003505393Y0001695039D03*
D31*
X0003396338Y0001695039D03*
X0003287283Y0001695039D03*
X0003178228Y0001695039D03*
X0003069173Y0001695039D03*
X0003450866Y0001583228D03*
X0003341811Y0001583228D03*
X0003232755Y0001583228D03*
X0003123700Y0001583228D03*
D32*
X0003779409Y0001639133D03*
X0002795157Y0001639133D03*
D33*
X0001805393Y0001860039D03*
X0001045393Y0001800039D03*
X0001310393Y0001440039D03*
D34*
X0000602755Y0001538686D02*
X0000756402Y0001385039D01*
X0000602755Y0001583228D02*
X0000602755Y0001538686D01*
X0002044842Y0001663543D02*
X0002076338Y0001695039D01*
X0002012992Y0001663543D02*
X0002044842Y0001663543D01*
X0001969645Y0001620196D02*
X0002012992Y0001663543D01*
X0001969645Y0001562913D02*
X0001969645Y0001620196D01*
X0001791771Y0001385039D02*
X0001969645Y0001562913D01*
X0001790393Y0001385039D02*
X0001791771Y0001385039D01*
X0001790393Y0001385039D02*
X0001800590Y0001385039D01*
X0000756402Y0001385039D02*
X0001790393Y0001385039D01*
X0002053307Y0001551732D02*
X0002021811Y0001583228D01*
X0002078976Y0001526062D02*
X0002053307Y0001551732D01*
X0003180590Y0001526062D02*
X0002078976Y0001526062D01*
X0003232755Y0001578228D02*
X0003180590Y0001526062D01*
X0001967283Y0001695039D02*
X0001805393Y0001856929D01*
X0001805393Y0001856929D02*
X0001805393Y0001860039D01*
X0001749173Y0001695039D02*
X0001644173Y0001800039D01*
X0001644173Y0001800039D02*
X0001045393Y0001800039D01*
X0000787834Y0001663543D02*
X0000756338Y0001695039D01*
X0000808503Y0001642873D02*
X0000787834Y0001663543D01*
X0000837559Y0001642873D02*
X0000808503Y0001642873D01*
X0000940708Y0001539724D02*
X0000837559Y0001642873D01*
X0001232979Y0001539724D02*
X0000940708Y0001539724D01*
X0001310393Y0001462310D02*
X0001232979Y0001539724D01*
X0001310393Y0001440039D02*
X0001310393Y0001462310D01*
G04 next file*
G04 #@! TF.GenerationSoftware,KiCad,Pcbnew,(5.1.2)-2*
G04 #@! TF.CreationDate,2019-11-27T23:52:17-06:00*
G04 #@! TF.ProjectId,ti99-joystick,74693939-2d6a-46f7-9973-7469636b2e6b,rev?*
G04 #@! TF.SameCoordinates,Original*
G04 #@! TF.FileFunction,Copper,L2,Bot*
G04 #@! TF.FilePolarity,Positive*
G04 Gerber Fmt 4.6, Leading zero omitted, Abs format (unit mm)*
G04 Created by KiCad (PCBNEW (5.1.2)-2) date 2019-11-27 23:52:17*
G04 APERTURE LIST*
G04 APERTURE END LIST*
D35*
X-0003149606Y0005354330D02*
X0002185393Y0002364330D03*
D36*
X0002076338Y0002364330D03*
X0001967283Y0002364330D03*
X0001858228Y0002364330D03*
X0001749173Y0002364330D03*
X0002130866Y0002252519D03*
X0002021811Y0002252519D03*
X0001912755Y0002252519D03*
X0001803700Y0002252519D03*
D37*
X0001475157Y0002308425D03*
X0002459409Y0002308425D03*
X0000155157Y0002308425D03*
X0001139409Y0002308425D03*
D36*
X0000483700Y0002252519D03*
X0000592755Y0002252519D03*
X0000701810Y0002252519D03*
X0000810866Y0002252519D03*
X0000429173Y0002364330D03*
X0000538228Y0002364330D03*
X0000647283Y0002364330D03*
X0000756338Y0002364330D03*
D35*
X0000865393Y0002364330D03*
X0003505393Y0002364330D03*
D36*
X0003396338Y0002364330D03*
X0003287283Y0002364330D03*
X0003178228Y0002364330D03*
X0003069173Y0002364330D03*
X0003450866Y0002252519D03*
X0003341811Y0002252519D03*
X0003232755Y0002252519D03*
X0003123700Y0002252519D03*
D37*
X0003779409Y0002308425D03*
X0002795157Y0002308425D03*
D38*
X0001805393Y0002529330D03*
X0001045393Y0002469330D03*
X0001310393Y0002109330D03*
D39*
X0000602755Y0002207977D02*
X0000756402Y0002054330D01*
X0000602755Y0002252519D02*
X0000602755Y0002207977D01*
X0002044842Y0002332834D02*
X0002076338Y0002364330D01*
X0002012992Y0002332834D02*
X0002044842Y0002332834D01*
X0001969645Y0002289488D02*
X0002012992Y0002332834D01*
X0001969645Y0002232204D02*
X0001969645Y0002289488D01*
X0001791771Y0002054330D02*
X0001969645Y0002232204D01*
X0001790393Y0002054330D02*
X0001791771Y0002054330D01*
X0001790393Y0002054330D02*
X0001800590Y0002054330D01*
X0000756402Y0002054330D02*
X0001790393Y0002054330D01*
X0002053307Y0002221023D02*
X0002021811Y0002252519D01*
X0002078976Y0002195354D02*
X0002053307Y0002221023D01*
X0003180590Y0002195354D02*
X0002078976Y0002195354D01*
X0003232755Y0002247519D02*
X0003180590Y0002195354D01*
X0001967283Y0002364330D02*
X0001805393Y0002526220D01*
X0001805393Y0002526220D02*
X0001805393Y0002529330D01*
X0001749173Y0002364330D02*
X0001644173Y0002469330D01*
X0001644173Y0002469330D02*
X0001045393Y0002469330D01*
X0000787834Y0002332834D02*
X0000756338Y0002364330D01*
X0000808503Y0002312165D02*
X0000787834Y0002332834D01*
X0000837559Y0002312165D02*
X0000808503Y0002312165D01*
X0000940708Y0002209015D02*
X0000837559Y0002312165D01*
X0001232979Y0002209015D02*
X0000940708Y0002209015D01*
X0001310393Y0002131601D02*
X0001232979Y0002209015D01*
X0001310393Y0002109330D02*
X0001310393Y0002131601D01*
G04 next file*
G04 #@! TF.GenerationSoftware,KiCad,Pcbnew,(5.1.2)-2*
G04 #@! TF.CreationDate,2019-11-27T23:52:17-06:00*
G04 #@! TF.ProjectId,ti99-joystick,74693939-2d6a-46f7-9973-7469636b2e6b,rev?*
G04 #@! TF.SameCoordinates,Original*
G04 #@! TF.FileFunction,Copper,L2,Bot*
G04 #@! TF.FilePolarity,Positive*
G04 Gerber Fmt 4.6, Leading zero omitted, Abs format (unit mm)*
G04 Created by KiCad (PCBNEW (5.1.2)-2) date 2019-11-27 23:52:17*
G04 APERTURE LIST*
G04 APERTURE END LIST*
D40*
X-0003149606Y0006023622D02*
X0002185393Y0003033622D03*
D41*
X0002076338Y0003033622D03*
X0001967283Y0003033622D03*
X0001858228Y0003033622D03*
X0001749173Y0003033622D03*
X0002130866Y0002921811D03*
X0002021811Y0002921811D03*
X0001912755Y0002921811D03*
X0001803700Y0002921811D03*
D42*
X0001475157Y0002977716D03*
X0002459409Y0002977716D03*
X0000155157Y0002977716D03*
X0001139409Y0002977716D03*
D41*
X0000483700Y0002921811D03*
X0000592755Y0002921811D03*
X0000701810Y0002921811D03*
X0000810866Y0002921811D03*
X0000429173Y0003033622D03*
X0000538228Y0003033622D03*
X0000647283Y0003033622D03*
X0000756338Y0003033622D03*
D40*
X0000865393Y0003033622D03*
X0003505393Y0003033622D03*
D41*
X0003396338Y0003033622D03*
X0003287283Y0003033622D03*
X0003178228Y0003033622D03*
X0003069173Y0003033622D03*
X0003450866Y0002921811D03*
X0003341811Y0002921811D03*
X0003232755Y0002921811D03*
X0003123700Y0002921811D03*
D42*
X0003779409Y0002977716D03*
X0002795157Y0002977716D03*
D43*
X0001805393Y0003198622D03*
X0001045393Y0003138622D03*
X0001310393Y0002778622D03*
D44*
X0000602755Y0002877268D02*
X0000756402Y0002723622D01*
X0000602755Y0002921811D02*
X0000602755Y0002877268D01*
X0002044842Y0003002126D02*
X0002076338Y0003033622D01*
X0002012992Y0003002126D02*
X0002044842Y0003002126D01*
X0001969645Y0002958779D02*
X0002012992Y0003002126D01*
X0001969645Y0002901495D02*
X0001969645Y0002958779D01*
X0001791771Y0002723622D02*
X0001969645Y0002901495D01*
X0001790393Y0002723622D02*
X0001791771Y0002723622D01*
X0001790393Y0002723622D02*
X0001800590Y0002723622D01*
X0000756402Y0002723622D02*
X0001790393Y0002723622D01*
X0002053307Y0002890315D02*
X0002021811Y0002921811D01*
X0002078976Y0002864645D02*
X0002053307Y0002890315D01*
X0003180590Y0002864645D02*
X0002078976Y0002864645D01*
X0003232755Y0002916811D02*
X0003180590Y0002864645D01*
X0001967283Y0003033622D02*
X0001805393Y0003195511D01*
X0001805393Y0003195511D02*
X0001805393Y0003198622D01*
X0001749173Y0003033622D02*
X0001644173Y0003138622D01*
X0001644173Y0003138622D02*
X0001045393Y0003138622D01*
X0000787834Y0003002126D02*
X0000756338Y0003033622D01*
X0000808503Y0002981456D02*
X0000787834Y0003002126D01*
X0000837559Y0002981456D02*
X0000808503Y0002981456D01*
X0000940708Y0002878307D02*
X0000837559Y0002981456D01*
X0001232979Y0002878307D02*
X0000940708Y0002878307D01*
X0001310393Y0002800893D02*
X0001232979Y0002878307D01*
X0001310393Y0002778622D02*
X0001310393Y0002800893D01*
G04 next file*
G04 #@! TF.GenerationSoftware,KiCad,Pcbnew,(5.1.2)-2*
G04 #@! TF.CreationDate,2019-11-27T23:52:17-06:00*
G04 #@! TF.ProjectId,ti99-joystick,74693939-2d6a-46f7-9973-7469636b2e6b,rev?*
G04 #@! TF.SameCoordinates,Original*
G04 #@! TF.FileFunction,Copper,L2,Bot*
G04 #@! TF.FilePolarity,Positive*
G04 Gerber Fmt 4.6, Leading zero omitted, Abs format (unit mm)*
G04 Created by KiCad (PCBNEW (5.1.2)-2) date 2019-11-27 23:52:17*
G04 APERTURE LIST*
G04 APERTURE END LIST*
D45*
X-0003149606Y0006692913D02*
X0002185393Y0003702913D03*
D46*
X0002076338Y0003702913D03*
X0001967283Y0003702913D03*
X0001858228Y0003702913D03*
X0001749173Y0003702913D03*
X0002130866Y0003591102D03*
X0002021811Y0003591102D03*
X0001912755Y0003591102D03*
X0001803700Y0003591102D03*
D47*
X0001475157Y0003647007D03*
X0002459409Y0003647007D03*
X0000155157Y0003647007D03*
X0001139409Y0003647007D03*
D46*
X0000483700Y0003591102D03*
X0000592755Y0003591102D03*
X0000701810Y0003591102D03*
X0000810866Y0003591102D03*
X0000429173Y0003702913D03*
X0000538228Y0003702913D03*
X0000647283Y0003702913D03*
X0000756338Y0003702913D03*
D45*
X0000865393Y0003702913D03*
X0003505393Y0003702913D03*
D46*
X0003396338Y0003702913D03*
X0003287283Y0003702913D03*
X0003178228Y0003702913D03*
X0003069173Y0003702913D03*
X0003450866Y0003591102D03*
X0003341811Y0003591102D03*
X0003232755Y0003591102D03*
X0003123700Y0003591102D03*
D47*
X0003779409Y0003647007D03*
X0002795157Y0003647007D03*
D48*
X0001805393Y0003867913D03*
X0001045393Y0003807913D03*
X0001310393Y0003447913D03*
D49*
X0000602755Y0003546560D02*
X0000756402Y0003392913D01*
X0000602755Y0003591102D02*
X0000602755Y0003546560D01*
X0002044842Y0003671417D02*
X0002076338Y0003702913D01*
X0002012992Y0003671417D02*
X0002044842Y0003671417D01*
X0001969645Y0003628070D02*
X0002012992Y0003671417D01*
X0001969645Y0003570787D02*
X0001969645Y0003628070D01*
X0001791771Y0003392913D02*
X0001969645Y0003570787D01*
X0001790393Y0003392913D02*
X0001791771Y0003392913D01*
X0001790393Y0003392913D02*
X0001800590Y0003392913D01*
X0000756402Y0003392913D02*
X0001790393Y0003392913D01*
X0002053307Y0003559606D02*
X0002021811Y0003591102D01*
X0002078976Y0003533936D02*
X0002053307Y0003559606D01*
X0003180590Y0003533936D02*
X0002078976Y0003533936D01*
X0003232755Y0003586102D02*
X0003180590Y0003533936D01*
X0001967283Y0003702913D02*
X0001805393Y0003864803D01*
X0001805393Y0003864803D02*
X0001805393Y0003867913D01*
X0001749173Y0003702913D02*
X0001644173Y0003807913D01*
X0001644173Y0003807913D02*
X0001045393Y0003807913D01*
X0000787834Y0003671417D02*
X0000756338Y0003702913D01*
X0000808503Y0003650747D02*
X0000787834Y0003671417D01*
X0000837559Y0003650747D02*
X0000808503Y0003650747D01*
X0000940708Y0003547598D02*
X0000837559Y0003650747D01*
X0001232979Y0003547598D02*
X0000940708Y0003547598D01*
X0001310393Y0003470184D02*
X0001232979Y0003547598D01*
X0001310393Y0003447913D02*
X0001310393Y0003470184D01*
M02*