%MOIN*%
%OFA0B0*%
%FSLAX46Y46*%
%IPPOS*%
%LPD*%
%ADD10R,0.062992125984251982X0.062992125984251982*%
%ADD11C,0.062992125984251982*%
%ADD12C,0.15748031496062992*%
%ADD13R,0.12992125984251968X0.066929133858267723*%
%ADD14C,0.031496062992125991*%
%ADD15C,0.00984251968503937*%
%ADD26R,0.062992125984251982X0.062992125984251982*%
%ADD27C,0.062992125984251982*%
%ADD28C,0.15748031496062992*%
%ADD29R,0.12992125984251968X0.066929133858267723*%
%ADD30C,0.031496062992125991*%
%ADD31C,0.00984251968503937*%
%ADD32R,0.062992125984251982X0.062992125984251982*%
%ADD33C,0.062992125984251982*%
%ADD34C,0.15748031496062992*%
%ADD35R,0.12992125984251968X0.066929133858267723*%
%ADD36C,0.031496062992125991*%
%ADD37C,0.00984251968503937*%
%ADD38R,0.062992125984251982X0.062992125984251982*%
%ADD39C,0.062992125984251982*%
%ADD40C,0.15748031496062992*%
%ADD41R,0.12992125984251968X0.066929133858267723*%
%ADD42C,0.031496062992125991*%
%ADD43C,0.00984251968503937*%
%ADD44R,0.062992125984251982X0.062992125984251982*%
%ADD45C,0.062992125984251982*%
%ADD46C,0.15748031496062992*%
%ADD47R,0.12992125984251968X0.066929133858267723*%
%ADD48C,0.031496062992125991*%
%ADD49C,0.00984251968503937*%
%ADD50R,0.062992125984251982X0.062992125984251982*%
%ADD51C,0.062992125984251982*%
%ADD52C,0.15748031496062992*%
%ADD53R,0.12992125984251968X0.066929133858267723*%
%ADD54C,0.031496062992125991*%
%ADD55C,0.00984251968503937*%
D10*
X-0003149606Y0003346456D02*
X0002185393Y0000356456D03*
D11*
X0002076338Y0000356456D03*
X0001967283Y0000356456D03*
X0001858228Y0000356456D03*
X0001749173Y0000356456D03*
X0002130866Y0000244645D03*
X0002021811Y0000244645D03*
X0001912755Y0000244645D03*
X0001803700Y0000244645D03*
D12*
X0001475157Y0000300551D03*
X0002459409Y0000300551D03*
X0000155157Y0000300551D03*
X0001139409Y0000300551D03*
D11*
X0000483700Y0000244645D03*
X0000592755Y0000244645D03*
X0000701810Y0000244645D03*
X0000810866Y0000244645D03*
X0000429173Y0000356456D03*
X0000538228Y0000356456D03*
X0000647283Y0000356456D03*
X0000756338Y0000356456D03*
D10*
X0000865393Y0000356456D03*
X0003505393Y0000356456D03*
D11*
X0003396338Y0000356456D03*
X0003287283Y0000356456D03*
X0003178228Y0000356456D03*
X0003069173Y0000356456D03*
X0003450866Y0000244645D03*
X0003341811Y0000244645D03*
X0003232755Y0000244645D03*
X0003123700Y0000244645D03*
D12*
X0003779409Y0000300551D03*
X0002795157Y0000300551D03*
D13*
X0002883858Y0000101456D03*
X0003100393Y0000101456D03*
X0001417125Y0000521456D03*
X0001633661Y0000521456D03*
X0003633661Y0000126456D03*
X0003417125Y0000126456D03*
X0000947125Y0000111456D03*
X0001163661Y0000111456D03*
X0002302125Y0000521456D03*
X0002518661Y0000521456D03*
X0000863661Y0000521456D03*
X0000647125Y0000521456D03*
X0002946929Y0000481456D03*
X0002730393Y0000481456D03*
X0000237125Y0000116456D03*
X0000453661Y0000116456D03*
X0002302125Y0000076456D03*
X0002518661Y0000076456D03*
X0001648661Y0000101456D03*
X0001432125Y0000101456D03*
D14*
X0001805393Y0000521456D03*
X0001045393Y0000461456D03*
X0001310393Y0000101456D03*
D15*
X0001783122Y0000521456D02*
X0001633661Y0000521456D01*
X0001805393Y0000521456D02*
X0001783122Y0000521456D01*
X0002852362Y0000101456D02*
X0002883858Y0000101456D01*
X0002809055Y0000144763D02*
X0002852362Y0000101456D01*
X0002044488Y0000144763D02*
X0002809055Y0000144763D01*
X0001967283Y0000221968D02*
X0002044488Y0000144763D01*
X0001967283Y0000356456D02*
X0001967283Y0000221968D01*
X0003546732Y0000356456D02*
X0003505393Y0000356456D01*
X0003719291Y0000183897D02*
X0003546732Y0000356456D01*
X0003719291Y0000076456D02*
X0003719291Y0000183897D01*
X0003713700Y0000070865D02*
X0003719291Y0000076456D01*
X0003205787Y0000070865D02*
X0003713700Y0000070865D01*
X0003175196Y0000101456D02*
X0003205787Y0000070865D01*
X0003100393Y0000101456D02*
X0003175196Y0000101456D01*
X0001437125Y0000521456D02*
X0001405629Y0000521456D01*
X0001342322Y0000521456D02*
X0001417125Y0000521456D01*
X0001159291Y0000521456D02*
X0001342322Y0000521456D01*
X0000994291Y0000356456D02*
X0001159291Y0000521456D01*
X0000865393Y0000356456D02*
X0000994291Y0000356456D01*
X0003594055Y0000096456D02*
X0003648661Y0000096456D01*
X0003569055Y0000126456D02*
X0003633661Y0000126456D01*
X0003450866Y0000244645D02*
X0003569055Y0000126456D01*
X0001238464Y0000111456D02*
X0001163661Y0000111456D01*
X0001282598Y0000155590D02*
X0001238464Y0000111456D01*
X0001791850Y0000155590D02*
X0001282598Y0000155590D01*
X0001858228Y0000221968D02*
X0001791850Y0000155590D01*
X0001858228Y0000356456D02*
X0001858228Y0000221968D01*
X0003357322Y0000096456D02*
X0003432125Y0000096456D01*
X0003342322Y0000126456D02*
X0003417125Y0000126456D01*
X0003313188Y0000155590D02*
X0003342322Y0000126456D01*
X0003135551Y0000155590D02*
X0003313188Y0000155590D01*
X0002882519Y0000408622D02*
X0003135551Y0000155590D01*
X0001910393Y0000408622D02*
X0002882519Y0000408622D01*
X0001858228Y0000356456D02*
X0001910393Y0000408622D01*
X0000855408Y0000244645D02*
X0000810866Y0000244645D01*
X0000857244Y0000244645D02*
X0000855408Y0000244645D01*
X0000947125Y0000154763D02*
X0000857244Y0000244645D01*
X0000947125Y0000111456D02*
X0000947125Y0000154763D01*
X0000985393Y0000521456D02*
X0000863661Y0000521456D01*
X0001045393Y0000461456D02*
X0000985393Y0000521456D01*
X0002227322Y0000521456D02*
X0002302125Y0000521456D01*
X0001859291Y0000521456D02*
X0002227322Y0000521456D01*
X0001749173Y0000411338D02*
X0001859291Y0000521456D01*
X0001749173Y0000356456D02*
X0001749173Y0000411338D01*
X0002561732Y0000521456D02*
X0002596732Y0000556456D01*
X0002486929Y0000521456D02*
X0002561732Y0000521456D01*
X0003082283Y0000556456D02*
X0003282283Y0000356456D01*
X0002596732Y0000556456D02*
X0003082283Y0000556456D01*
X0003282283Y0000356456D02*
X0003287283Y0000351456D01*
X0000647283Y0000521299D02*
X0000647125Y0000521456D01*
X0000647283Y0000356456D02*
X0000647283Y0000521299D01*
X0003048228Y0000481456D02*
X0003178228Y0000351456D01*
X0002946929Y0000481456D02*
X0003048228Y0000481456D01*
X0001772204Y0000213149D02*
X0001803700Y0000244645D01*
X0001760196Y0000201141D02*
X0001772204Y0000213149D01*
X0001050708Y0000201141D02*
X0001760196Y0000201141D01*
X0000955039Y0000296811D02*
X0001050708Y0000201141D01*
X0000785826Y0000296811D02*
X0000955039Y0000296811D01*
X0000758700Y0000269685D02*
X0000785826Y0000296811D01*
X0000758700Y0000224330D02*
X0000758700Y0000269685D01*
X0000650826Y0000116456D02*
X0000758700Y0000224330D01*
X0000453661Y0000116456D02*
X0000650826Y0000116456D01*
X0002698897Y0000481456D02*
X0002730393Y0000481456D01*
X0002655590Y0000438149D02*
X0002698897Y0000481456D01*
X0001862716Y0000438149D02*
X0002655590Y0000438149D01*
X0001803700Y0000379133D02*
X0001862716Y0000438149D01*
X0001803700Y0000244645D02*
X0001803700Y0000379133D01*
X0000268622Y0000116456D02*
X0000237125Y0000116456D01*
X0000456456Y0000304291D02*
X0000268622Y0000116456D01*
X0000486062Y0000304291D02*
X0000456456Y0000304291D01*
X0000538228Y0000356456D02*
X0000486062Y0000304291D01*
X0001723464Y0000101456D02*
X0001648661Y0000101456D01*
X0001814109Y0000101456D02*
X0001723464Y0000101456D01*
X0001912755Y0000200103D02*
X0001814109Y0000101456D01*
X0002227322Y0000076456D02*
X0002302125Y0000076456D01*
X0002036402Y0000076456D02*
X0002227322Y0000076456D01*
X0001912755Y0000200103D02*
X0002036402Y0000076456D01*
X0001912755Y0000244645D02*
X0001912755Y0000200103D01*
X0002546732Y0000056456D02*
X0002471929Y0000056456D01*
X0003427834Y0000387952D02*
X0003396338Y0000356456D01*
X0003448503Y0000408622D02*
X0003427834Y0000387952D01*
X0003818464Y0000408622D02*
X0003448503Y0000408622D01*
X0003878818Y0000348267D02*
X0003818464Y0000408622D01*
X0003878818Y0000199793D02*
X0003878818Y0000348267D01*
X0003712175Y0000033149D02*
X0003878818Y0000199793D01*
X0002593464Y0000033149D02*
X0003712175Y0000033149D01*
X0002550157Y0000076456D02*
X0002593464Y0000033149D01*
X0002518661Y0000076456D02*
X0002550157Y0000076456D01*
X0001432125Y0000101456D02*
X0001310393Y0000101456D01*
G04 next file*
G04 #@! TF.GenerationSoftware,KiCad,Pcbnew,(5.1.2)-2*
G04 #@! TF.CreationDate,2019-11-27T23:52:17-06:00*
G04 #@! TF.ProjectId,ti99-joystick,74693939-2d6a-46f7-9973-7469636b2e6b,rev?*
G04 #@! TF.SameCoordinates,Original*
G04 #@! TF.FileFunction,Copper,L1,Top*
G04 #@! TF.FilePolarity,Positive*
G04 Gerber Fmt 4.6, Leading zero omitted, Abs format (unit mm)*
G04 Created by KiCad (PCBNEW (5.1.2)-2) date 2019-11-27 23:52:17*
G04 APERTURE LIST*
G04 APERTURE END LIST*
D26*
X-0003149606Y0004015748D02*
X0002185393Y0001025748D03*
D27*
X0002076338Y0001025748D03*
X0001967283Y0001025748D03*
X0001858228Y0001025748D03*
X0001749173Y0001025748D03*
X0002130866Y0000913937D03*
X0002021811Y0000913937D03*
X0001912755Y0000913937D03*
X0001803700Y0000913937D03*
D28*
X0001475157Y0000969842D03*
X0002459409Y0000969842D03*
X0000155157Y0000969842D03*
X0001139409Y0000969842D03*
D27*
X0000483700Y0000913937D03*
X0000592755Y0000913937D03*
X0000701810Y0000913937D03*
X0000810866Y0000913937D03*
X0000429173Y0001025748D03*
X0000538228Y0001025748D03*
X0000647283Y0001025748D03*
X0000756338Y0001025748D03*
D26*
X0000865393Y0001025748D03*
X0003505393Y0001025748D03*
D27*
X0003396338Y0001025748D03*
X0003287283Y0001025748D03*
X0003178228Y0001025748D03*
X0003069173Y0001025748D03*
X0003450866Y0000913937D03*
X0003341811Y0000913937D03*
X0003232755Y0000913937D03*
X0003123700Y0000913937D03*
D28*
X0003779409Y0000969842D03*
X0002795157Y0000969842D03*
D29*
X0002883858Y0000770748D03*
X0003100393Y0000770748D03*
X0001417125Y0001190748D03*
X0001633661Y0001190748D03*
X0003633661Y0000795748D03*
X0003417125Y0000795748D03*
X0000947125Y0000780748D03*
X0001163661Y0000780748D03*
X0002302125Y0001190748D03*
X0002518661Y0001190748D03*
X0000863661Y0001190748D03*
X0000647125Y0001190748D03*
X0002946929Y0001150748D03*
X0002730393Y0001150748D03*
X0000237125Y0000785748D03*
X0000453661Y0000785748D03*
X0002302125Y0000745747D03*
X0002518661Y0000745747D03*
X0001648661Y0000770748D03*
X0001432125Y0000770748D03*
D30*
X0001805393Y0001190748D03*
X0001045393Y0001130748D03*
X0001310393Y0000770748D03*
D31*
X0001783122Y0001190748D02*
X0001633661Y0001190748D01*
X0001805393Y0001190748D02*
X0001783122Y0001190748D01*
X0002852362Y0000770748D02*
X0002883858Y0000770748D01*
X0002809055Y0000814055D02*
X0002852362Y0000770748D01*
X0002044488Y0000814055D02*
X0002809055Y0000814055D01*
X0001967283Y0000891259D02*
X0002044488Y0000814055D01*
X0001967283Y0001025748D02*
X0001967283Y0000891259D01*
X0003546732Y0001025748D02*
X0003505393Y0001025748D01*
X0003719291Y0000853188D02*
X0003546732Y0001025748D01*
X0003719291Y0000745747D02*
X0003719291Y0000853188D01*
X0003713700Y0000740157D02*
X0003719291Y0000745747D01*
X0003205787Y0000740157D02*
X0003713700Y0000740157D01*
X0003175196Y0000770748D02*
X0003205787Y0000740157D01*
X0003100393Y0000770748D02*
X0003175196Y0000770748D01*
X0001437125Y0001190748D02*
X0001405629Y0001190748D01*
X0001342322Y0001190748D02*
X0001417125Y0001190748D01*
X0001159291Y0001190748D02*
X0001342322Y0001190748D01*
X0000994291Y0001025748D02*
X0001159291Y0001190748D01*
X0000865393Y0001025748D02*
X0000994291Y0001025748D01*
X0003594055Y0000765748D02*
X0003648661Y0000765748D01*
X0003569055Y0000795748D02*
X0003633661Y0000795748D01*
X0003450866Y0000913937D02*
X0003569055Y0000795748D01*
X0001238464Y0000780748D02*
X0001163661Y0000780748D01*
X0001282598Y0000824881D02*
X0001238464Y0000780748D01*
X0001791850Y0000824881D02*
X0001282598Y0000824881D01*
X0001858228Y0000891259D02*
X0001791850Y0000824881D01*
X0001858228Y0001025748D02*
X0001858228Y0000891259D01*
X0003357322Y0000765748D02*
X0003432125Y0000765748D01*
X0003342322Y0000795748D02*
X0003417125Y0000795748D01*
X0003313188Y0000824881D02*
X0003342322Y0000795748D01*
X0003135551Y0000824881D02*
X0003313188Y0000824881D01*
X0002882519Y0001077913D02*
X0003135551Y0000824881D01*
X0001910393Y0001077913D02*
X0002882519Y0001077913D01*
X0001858228Y0001025748D02*
X0001910393Y0001077913D01*
X0000855408Y0000913937D02*
X0000810866Y0000913937D01*
X0000857244Y0000913937D02*
X0000855408Y0000913937D01*
X0000947125Y0000824055D02*
X0000857244Y0000913937D01*
X0000947125Y0000780748D02*
X0000947125Y0000824055D01*
X0000985393Y0001190748D02*
X0000863661Y0001190748D01*
X0001045393Y0001130748D02*
X0000985393Y0001190748D01*
X0002227322Y0001190748D02*
X0002302125Y0001190748D01*
X0001859291Y0001190748D02*
X0002227322Y0001190748D01*
X0001749173Y0001080629D02*
X0001859291Y0001190748D01*
X0001749173Y0001025748D02*
X0001749173Y0001080629D01*
X0002561732Y0001190748D02*
X0002596732Y0001225748D01*
X0002486929Y0001190748D02*
X0002561732Y0001190748D01*
X0003082283Y0001225748D02*
X0003282283Y0001025748D01*
X0002596732Y0001225748D02*
X0003082283Y0001225748D01*
X0003282283Y0001025748D02*
X0003287283Y0001020748D01*
X0000647283Y0001190590D02*
X0000647125Y0001190748D01*
X0000647283Y0001025748D02*
X0000647283Y0001190590D01*
X0003048228Y0001150748D02*
X0003178228Y0001020748D01*
X0002946929Y0001150748D02*
X0003048228Y0001150748D01*
X0001772204Y0000882440D02*
X0001803700Y0000913937D01*
X0001760196Y0000870432D02*
X0001772204Y0000882440D01*
X0001050708Y0000870432D02*
X0001760196Y0000870432D01*
X0000955039Y0000966102D02*
X0001050708Y0000870432D01*
X0000785826Y0000966102D02*
X0000955039Y0000966102D01*
X0000758700Y0000938976D02*
X0000785826Y0000966102D01*
X0000758700Y0000893621D02*
X0000758700Y0000938976D01*
X0000650826Y0000785748D02*
X0000758700Y0000893621D01*
X0000453661Y0000785748D02*
X0000650826Y0000785748D01*
X0002698897Y0001150748D02*
X0002730393Y0001150748D01*
X0002655590Y0001107440D02*
X0002698897Y0001150748D01*
X0001862716Y0001107440D02*
X0002655590Y0001107440D01*
X0001803700Y0001048425D02*
X0001862716Y0001107440D01*
X0001803700Y0000913937D02*
X0001803700Y0001048425D01*
X0000268622Y0000785748D02*
X0000237125Y0000785748D01*
X0000456456Y0000973582D02*
X0000268622Y0000785748D01*
X0000486062Y0000973582D02*
X0000456456Y0000973582D01*
X0000538228Y0001025748D02*
X0000486062Y0000973582D01*
X0001723464Y0000770748D02*
X0001648661Y0000770748D01*
X0001814109Y0000770748D02*
X0001723464Y0000770748D01*
X0001912755Y0000869394D02*
X0001814109Y0000770748D01*
X0002227322Y0000745747D02*
X0002302125Y0000745747D01*
X0002036402Y0000745747D02*
X0002227322Y0000745747D01*
X0001912755Y0000869394D02*
X0002036402Y0000745747D01*
X0001912755Y0000913937D02*
X0001912755Y0000869394D01*
X0002546732Y0000725747D02*
X0002471929Y0000725747D01*
X0003427834Y0001057244D02*
X0003396338Y0001025748D01*
X0003448503Y0001077913D02*
X0003427834Y0001057244D01*
X0003818464Y0001077913D02*
X0003448503Y0001077913D01*
X0003878818Y0001017559D02*
X0003818464Y0001077913D01*
X0003878818Y0000869084D02*
X0003878818Y0001017559D01*
X0003712175Y0000702440D02*
X0003878818Y0000869084D01*
X0002593464Y0000702440D02*
X0003712175Y0000702440D01*
X0002550157Y0000745747D02*
X0002593464Y0000702440D01*
X0002518661Y0000745747D02*
X0002550157Y0000745747D01*
X0001432125Y0000770748D02*
X0001310393Y0000770748D01*
G04 next file*
G04 #@! TF.GenerationSoftware,KiCad,Pcbnew,(5.1.2)-2*
G04 #@! TF.CreationDate,2019-11-27T23:52:17-06:00*
G04 #@! TF.ProjectId,ti99-joystick,74693939-2d6a-46f7-9973-7469636b2e6b,rev?*
G04 #@! TF.SameCoordinates,Original*
G04 #@! TF.FileFunction,Copper,L1,Top*
G04 #@! TF.FilePolarity,Positive*
G04 Gerber Fmt 4.6, Leading zero omitted, Abs format (unit mm)*
G04 Created by KiCad (PCBNEW (5.1.2)-2) date 2019-11-27 23:52:17*
G04 APERTURE LIST*
G04 APERTURE END LIST*
D32*
X-0003149606Y0004685039D02*
X0002185393Y0001695039D03*
D33*
X0002076338Y0001695039D03*
X0001967283Y0001695039D03*
X0001858228Y0001695039D03*
X0001749173Y0001695039D03*
X0002130866Y0001583228D03*
X0002021811Y0001583228D03*
X0001912755Y0001583228D03*
X0001803700Y0001583228D03*
D34*
X0001475157Y0001639133D03*
X0002459409Y0001639133D03*
X0000155157Y0001639133D03*
X0001139409Y0001639133D03*
D33*
X0000483700Y0001583228D03*
X0000592755Y0001583228D03*
X0000701810Y0001583228D03*
X0000810866Y0001583228D03*
X0000429173Y0001695039D03*
X0000538228Y0001695039D03*
X0000647283Y0001695039D03*
X0000756338Y0001695039D03*
D32*
X0000865393Y0001695039D03*
X0003505393Y0001695039D03*
D33*
X0003396338Y0001695039D03*
X0003287283Y0001695039D03*
X0003178228Y0001695039D03*
X0003069173Y0001695039D03*
X0003450866Y0001583228D03*
X0003341811Y0001583228D03*
X0003232755Y0001583228D03*
X0003123700Y0001583228D03*
D34*
X0003779409Y0001639133D03*
X0002795157Y0001639133D03*
D35*
X0002883858Y0001440039D03*
X0003100393Y0001440039D03*
X0001417125Y0001860039D03*
X0001633661Y0001860039D03*
X0003633661Y0001465039D03*
X0003417125Y0001465039D03*
X0000947125Y0001450039D03*
X0001163661Y0001450039D03*
X0002302125Y0001860039D03*
X0002518661Y0001860039D03*
X0000863661Y0001860039D03*
X0000647125Y0001860039D03*
X0002946929Y0001820039D03*
X0002730393Y0001820039D03*
X0000237125Y0001455039D03*
X0000453661Y0001455039D03*
X0002302125Y0001415039D03*
X0002518661Y0001415039D03*
X0001648661Y0001440039D03*
X0001432125Y0001440039D03*
D36*
X0001805393Y0001860039D03*
X0001045393Y0001800039D03*
X0001310393Y0001440039D03*
D37*
X0001783122Y0001860039D02*
X0001633661Y0001860039D01*
X0001805393Y0001860039D02*
X0001783122Y0001860039D01*
X0002852362Y0001440039D02*
X0002883858Y0001440039D01*
X0002809055Y0001483346D02*
X0002852362Y0001440039D01*
X0002044488Y0001483346D02*
X0002809055Y0001483346D01*
X0001967283Y0001560551D02*
X0002044488Y0001483346D01*
X0001967283Y0001695039D02*
X0001967283Y0001560551D01*
X0003546732Y0001695039D02*
X0003505393Y0001695039D01*
X0003719291Y0001522480D02*
X0003546732Y0001695039D01*
X0003719291Y0001415039D02*
X0003719291Y0001522480D01*
X0003713700Y0001409448D02*
X0003719291Y0001415039D01*
X0003205787Y0001409448D02*
X0003713700Y0001409448D01*
X0003175196Y0001440039D02*
X0003205787Y0001409448D01*
X0003100393Y0001440039D02*
X0003175196Y0001440039D01*
X0001437125Y0001860039D02*
X0001405629Y0001860039D01*
X0001342322Y0001860039D02*
X0001417125Y0001860039D01*
X0001159291Y0001860039D02*
X0001342322Y0001860039D01*
X0000994291Y0001695039D02*
X0001159291Y0001860039D01*
X0000865393Y0001695039D02*
X0000994291Y0001695039D01*
X0003594055Y0001435039D02*
X0003648661Y0001435039D01*
X0003569055Y0001465039D02*
X0003633661Y0001465039D01*
X0003450866Y0001583228D02*
X0003569055Y0001465039D01*
X0001238464Y0001450039D02*
X0001163661Y0001450039D01*
X0001282598Y0001494173D02*
X0001238464Y0001450039D01*
X0001791850Y0001494173D02*
X0001282598Y0001494173D01*
X0001858228Y0001560551D02*
X0001791850Y0001494173D01*
X0001858228Y0001695039D02*
X0001858228Y0001560551D01*
X0003357322Y0001435039D02*
X0003432125Y0001435039D01*
X0003342322Y0001465039D02*
X0003417125Y0001465039D01*
X0003313188Y0001494173D02*
X0003342322Y0001465039D01*
X0003135551Y0001494173D02*
X0003313188Y0001494173D01*
X0002882519Y0001747204D02*
X0003135551Y0001494173D01*
X0001910393Y0001747204D02*
X0002882519Y0001747204D01*
X0001858228Y0001695039D02*
X0001910393Y0001747204D01*
X0000855408Y0001583228D02*
X0000810866Y0001583228D01*
X0000857244Y0001583228D02*
X0000855408Y0001583228D01*
X0000947125Y0001493346D02*
X0000857244Y0001583228D01*
X0000947125Y0001450039D02*
X0000947125Y0001493346D01*
X0000985393Y0001860039D02*
X0000863661Y0001860039D01*
X0001045393Y0001800039D02*
X0000985393Y0001860039D01*
X0002227322Y0001860039D02*
X0002302125Y0001860039D01*
X0001859291Y0001860039D02*
X0002227322Y0001860039D01*
X0001749173Y0001749921D02*
X0001859291Y0001860039D01*
X0001749173Y0001695039D02*
X0001749173Y0001749921D01*
X0002561732Y0001860039D02*
X0002596732Y0001895039D01*
X0002486929Y0001860039D02*
X0002561732Y0001860039D01*
X0003082283Y0001895039D02*
X0003282283Y0001695039D01*
X0002596732Y0001895039D02*
X0003082283Y0001895039D01*
X0003282283Y0001695039D02*
X0003287283Y0001690039D01*
X0000647283Y0001859881D02*
X0000647125Y0001860039D01*
X0000647283Y0001695039D02*
X0000647283Y0001859881D01*
X0003048228Y0001820039D02*
X0003178228Y0001690039D01*
X0002946929Y0001820039D02*
X0003048228Y0001820039D01*
X0001772204Y0001551732D02*
X0001803700Y0001583228D01*
X0001760196Y0001539724D02*
X0001772204Y0001551732D01*
X0001050708Y0001539724D02*
X0001760196Y0001539724D01*
X0000955039Y0001635393D02*
X0001050708Y0001539724D01*
X0000785826Y0001635393D02*
X0000955039Y0001635393D01*
X0000758700Y0001608267D02*
X0000785826Y0001635393D01*
X0000758700Y0001562913D02*
X0000758700Y0001608267D01*
X0000650826Y0001455039D02*
X0000758700Y0001562913D01*
X0000453661Y0001455039D02*
X0000650826Y0001455039D01*
X0002698897Y0001820039D02*
X0002730393Y0001820039D01*
X0002655590Y0001776732D02*
X0002698897Y0001820039D01*
X0001862716Y0001776732D02*
X0002655590Y0001776732D01*
X0001803700Y0001717716D02*
X0001862716Y0001776732D01*
X0001803700Y0001583228D02*
X0001803700Y0001717716D01*
X0000268622Y0001455039D02*
X0000237125Y0001455039D01*
X0000456456Y0001642873D02*
X0000268622Y0001455039D01*
X0000486062Y0001642873D02*
X0000456456Y0001642873D01*
X0000538228Y0001695039D02*
X0000486062Y0001642873D01*
X0001723464Y0001440039D02*
X0001648661Y0001440039D01*
X0001814109Y0001440039D02*
X0001723464Y0001440039D01*
X0001912755Y0001538686D02*
X0001814109Y0001440039D01*
X0002227322Y0001415039D02*
X0002302125Y0001415039D01*
X0002036402Y0001415039D02*
X0002227322Y0001415039D01*
X0001912755Y0001538686D02*
X0002036402Y0001415039D01*
X0001912755Y0001583228D02*
X0001912755Y0001538686D01*
X0002546732Y0001395039D02*
X0002471929Y0001395039D01*
X0003427834Y0001726535D02*
X0003396338Y0001695039D01*
X0003448503Y0001747204D02*
X0003427834Y0001726535D01*
X0003818464Y0001747204D02*
X0003448503Y0001747204D01*
X0003878818Y0001686850D02*
X0003818464Y0001747204D01*
X0003878818Y0001538375D02*
X0003878818Y0001686850D01*
X0003712175Y0001371732D02*
X0003878818Y0001538375D01*
X0002593464Y0001371732D02*
X0003712175Y0001371732D01*
X0002550157Y0001415039D02*
X0002593464Y0001371732D01*
X0002518661Y0001415039D02*
X0002550157Y0001415039D01*
X0001432125Y0001440039D02*
X0001310393Y0001440039D01*
G04 next file*
G04 #@! TF.GenerationSoftware,KiCad,Pcbnew,(5.1.2)-2*
G04 #@! TF.CreationDate,2019-11-27T23:52:17-06:00*
G04 #@! TF.ProjectId,ti99-joystick,74693939-2d6a-46f7-9973-7469636b2e6b,rev?*
G04 #@! TF.SameCoordinates,Original*
G04 #@! TF.FileFunction,Copper,L1,Top*
G04 #@! TF.FilePolarity,Positive*
G04 Gerber Fmt 4.6, Leading zero omitted, Abs format (unit mm)*
G04 Created by KiCad (PCBNEW (5.1.2)-2) date 2019-11-27 23:52:17*
G04 APERTURE LIST*
G04 APERTURE END LIST*
D38*
X-0003149606Y0005354330D02*
X0002185393Y0002364330D03*
D39*
X0002076338Y0002364330D03*
X0001967283Y0002364330D03*
X0001858228Y0002364330D03*
X0001749173Y0002364330D03*
X0002130866Y0002252519D03*
X0002021811Y0002252519D03*
X0001912755Y0002252519D03*
X0001803700Y0002252519D03*
D40*
X0001475157Y0002308425D03*
X0002459409Y0002308425D03*
X0000155157Y0002308425D03*
X0001139409Y0002308425D03*
D39*
X0000483700Y0002252519D03*
X0000592755Y0002252519D03*
X0000701810Y0002252519D03*
X0000810866Y0002252519D03*
X0000429173Y0002364330D03*
X0000538228Y0002364330D03*
X0000647283Y0002364330D03*
X0000756338Y0002364330D03*
D38*
X0000865393Y0002364330D03*
X0003505393Y0002364330D03*
D39*
X0003396338Y0002364330D03*
X0003287283Y0002364330D03*
X0003178228Y0002364330D03*
X0003069173Y0002364330D03*
X0003450866Y0002252519D03*
X0003341811Y0002252519D03*
X0003232755Y0002252519D03*
X0003123700Y0002252519D03*
D40*
X0003779409Y0002308425D03*
X0002795157Y0002308425D03*
D41*
X0002883858Y0002109330D03*
X0003100393Y0002109330D03*
X0001417125Y0002529330D03*
X0001633661Y0002529330D03*
X0003633661Y0002134330D03*
X0003417125Y0002134330D03*
X0000947125Y0002119330D03*
X0001163661Y0002119330D03*
X0002302125Y0002529330D03*
X0002518661Y0002529330D03*
X0000863661Y0002529330D03*
X0000647125Y0002529330D03*
X0002946929Y0002489330D03*
X0002730393Y0002489330D03*
X0000237125Y0002124330D03*
X0000453661Y0002124330D03*
X0002302125Y0002084330D03*
X0002518661Y0002084330D03*
X0001648661Y0002109330D03*
X0001432125Y0002109330D03*
D42*
X0001805393Y0002529330D03*
X0001045393Y0002469330D03*
X0001310393Y0002109330D03*
D43*
X0001783122Y0002529330D02*
X0001633661Y0002529330D01*
X0001805393Y0002529330D02*
X0001783122Y0002529330D01*
X0002852362Y0002109330D02*
X0002883858Y0002109330D01*
X0002809055Y0002152637D02*
X0002852362Y0002109330D01*
X0002044488Y0002152637D02*
X0002809055Y0002152637D01*
X0001967283Y0002229842D02*
X0002044488Y0002152637D01*
X0001967283Y0002364330D02*
X0001967283Y0002229842D01*
X0003546732Y0002364330D02*
X0003505393Y0002364330D01*
X0003719291Y0002191771D02*
X0003546732Y0002364330D01*
X0003719291Y0002084330D02*
X0003719291Y0002191771D01*
X0003713700Y0002078739D02*
X0003719291Y0002084330D01*
X0003205787Y0002078739D02*
X0003713700Y0002078739D01*
X0003175196Y0002109330D02*
X0003205787Y0002078739D01*
X0003100393Y0002109330D02*
X0003175196Y0002109330D01*
X0001437125Y0002529330D02*
X0001405629Y0002529330D01*
X0001342322Y0002529330D02*
X0001417125Y0002529330D01*
X0001159291Y0002529330D02*
X0001342322Y0002529330D01*
X0000994291Y0002364330D02*
X0001159291Y0002529330D01*
X0000865393Y0002364330D02*
X0000994291Y0002364330D01*
X0003594055Y0002104330D02*
X0003648661Y0002104330D01*
X0003569055Y0002134330D02*
X0003633661Y0002134330D01*
X0003450866Y0002252519D02*
X0003569055Y0002134330D01*
X0001238464Y0002119330D02*
X0001163661Y0002119330D01*
X0001282598Y0002163464D02*
X0001238464Y0002119330D01*
X0001791850Y0002163464D02*
X0001282598Y0002163464D01*
X0001858228Y0002229842D02*
X0001791850Y0002163464D01*
X0001858228Y0002364330D02*
X0001858228Y0002229842D01*
X0003357322Y0002104330D02*
X0003432125Y0002104330D01*
X0003342322Y0002134330D02*
X0003417125Y0002134330D01*
X0003313188Y0002163464D02*
X0003342322Y0002134330D01*
X0003135551Y0002163464D02*
X0003313188Y0002163464D01*
X0002882519Y0002416496D02*
X0003135551Y0002163464D01*
X0001910393Y0002416496D02*
X0002882519Y0002416496D01*
X0001858228Y0002364330D02*
X0001910393Y0002416496D01*
X0000855408Y0002252519D02*
X0000810866Y0002252519D01*
X0000857244Y0002252519D02*
X0000855408Y0002252519D01*
X0000947125Y0002162637D02*
X0000857244Y0002252519D01*
X0000947125Y0002119330D02*
X0000947125Y0002162637D01*
X0000985393Y0002529330D02*
X0000863661Y0002529330D01*
X0001045393Y0002469330D02*
X0000985393Y0002529330D01*
X0002227322Y0002529330D02*
X0002302125Y0002529330D01*
X0001859291Y0002529330D02*
X0002227322Y0002529330D01*
X0001749173Y0002419212D02*
X0001859291Y0002529330D01*
X0001749173Y0002364330D02*
X0001749173Y0002419212D01*
X0002561732Y0002529330D02*
X0002596732Y0002564330D01*
X0002486929Y0002529330D02*
X0002561732Y0002529330D01*
X0003082283Y0002564330D02*
X0003282283Y0002364330D01*
X0002596732Y0002564330D02*
X0003082283Y0002564330D01*
X0003282283Y0002364330D02*
X0003287283Y0002359330D01*
X0000647283Y0002529173D02*
X0000647125Y0002529330D01*
X0000647283Y0002364330D02*
X0000647283Y0002529173D01*
X0003048228Y0002489330D02*
X0003178228Y0002359330D01*
X0002946929Y0002489330D02*
X0003048228Y0002489330D01*
X0001772204Y0002221023D02*
X0001803700Y0002252519D01*
X0001760196Y0002209015D02*
X0001772204Y0002221023D01*
X0001050708Y0002209015D02*
X0001760196Y0002209015D01*
X0000955039Y0002304685D02*
X0001050708Y0002209015D01*
X0000785826Y0002304685D02*
X0000955039Y0002304685D01*
X0000758700Y0002277559D02*
X0000785826Y0002304685D01*
X0000758700Y0002232204D02*
X0000758700Y0002277559D01*
X0000650826Y0002124330D02*
X0000758700Y0002232204D01*
X0000453661Y0002124330D02*
X0000650826Y0002124330D01*
X0002698897Y0002489330D02*
X0002730393Y0002489330D01*
X0002655590Y0002446023D02*
X0002698897Y0002489330D01*
X0001862716Y0002446023D02*
X0002655590Y0002446023D01*
X0001803700Y0002387007D02*
X0001862716Y0002446023D01*
X0001803700Y0002252519D02*
X0001803700Y0002387007D01*
X0000268622Y0002124330D02*
X0000237125Y0002124330D01*
X0000456456Y0002312165D02*
X0000268622Y0002124330D01*
X0000486062Y0002312165D02*
X0000456456Y0002312165D01*
X0000538228Y0002364330D02*
X0000486062Y0002312165D01*
X0001723464Y0002109330D02*
X0001648661Y0002109330D01*
X0001814109Y0002109330D02*
X0001723464Y0002109330D01*
X0001912755Y0002207977D02*
X0001814109Y0002109330D01*
X0002227322Y0002084330D02*
X0002302125Y0002084330D01*
X0002036402Y0002084330D02*
X0002227322Y0002084330D01*
X0001912755Y0002207977D02*
X0002036402Y0002084330D01*
X0001912755Y0002252519D02*
X0001912755Y0002207977D01*
X0002546732Y0002064330D02*
X0002471929Y0002064330D01*
X0003427834Y0002395826D02*
X0003396338Y0002364330D01*
X0003448503Y0002416496D02*
X0003427834Y0002395826D01*
X0003818464Y0002416496D02*
X0003448503Y0002416496D01*
X0003878818Y0002356141D02*
X0003818464Y0002416496D01*
X0003878818Y0002207667D02*
X0003878818Y0002356141D01*
X0003712175Y0002041023D02*
X0003878818Y0002207667D01*
X0002593464Y0002041023D02*
X0003712175Y0002041023D01*
X0002550157Y0002084330D02*
X0002593464Y0002041023D01*
X0002518661Y0002084330D02*
X0002550157Y0002084330D01*
X0001432125Y0002109330D02*
X0001310393Y0002109330D01*
G04 next file*
G04 #@! TF.GenerationSoftware,KiCad,Pcbnew,(5.1.2)-2*
G04 #@! TF.CreationDate,2019-11-27T23:52:17-06:00*
G04 #@! TF.ProjectId,ti99-joystick,74693939-2d6a-46f7-9973-7469636b2e6b,rev?*
G04 #@! TF.SameCoordinates,Original*
G04 #@! TF.FileFunction,Copper,L1,Top*
G04 #@! TF.FilePolarity,Positive*
G04 Gerber Fmt 4.6, Leading zero omitted, Abs format (unit mm)*
G04 Created by KiCad (PCBNEW (5.1.2)-2) date 2019-11-27 23:52:17*
G04 APERTURE LIST*
G04 APERTURE END LIST*
D44*
X-0003149606Y0006023622D02*
X0002185393Y0003033622D03*
D45*
X0002076338Y0003033622D03*
X0001967283Y0003033622D03*
X0001858228Y0003033622D03*
X0001749173Y0003033622D03*
X0002130866Y0002921811D03*
X0002021811Y0002921811D03*
X0001912755Y0002921811D03*
X0001803700Y0002921811D03*
D46*
X0001475157Y0002977716D03*
X0002459409Y0002977716D03*
X0000155157Y0002977716D03*
X0001139409Y0002977716D03*
D45*
X0000483700Y0002921811D03*
X0000592755Y0002921811D03*
X0000701810Y0002921811D03*
X0000810866Y0002921811D03*
X0000429173Y0003033622D03*
X0000538228Y0003033622D03*
X0000647283Y0003033622D03*
X0000756338Y0003033622D03*
D44*
X0000865393Y0003033622D03*
X0003505393Y0003033622D03*
D45*
X0003396338Y0003033622D03*
X0003287283Y0003033622D03*
X0003178228Y0003033622D03*
X0003069173Y0003033622D03*
X0003450866Y0002921811D03*
X0003341811Y0002921811D03*
X0003232755Y0002921811D03*
X0003123700Y0002921811D03*
D46*
X0003779409Y0002977716D03*
X0002795157Y0002977716D03*
D47*
X0002883858Y0002778622D03*
X0003100393Y0002778622D03*
X0001417125Y0003198622D03*
X0001633661Y0003198622D03*
X0003633661Y0002803622D03*
X0003417125Y0002803622D03*
X0000947125Y0002788622D03*
X0001163661Y0002788622D03*
X0002302125Y0003198622D03*
X0002518661Y0003198622D03*
X0000863661Y0003198622D03*
X0000647125Y0003198622D03*
X0002946929Y0003158622D03*
X0002730393Y0003158622D03*
X0000237125Y0002793622D03*
X0000453661Y0002793622D03*
X0002302125Y0002753622D03*
X0002518661Y0002753622D03*
X0001648661Y0002778622D03*
X0001432125Y0002778622D03*
D48*
X0001805393Y0003198622D03*
X0001045393Y0003138622D03*
X0001310393Y0002778622D03*
D49*
X0001783122Y0003198622D02*
X0001633661Y0003198622D01*
X0001805393Y0003198622D02*
X0001783122Y0003198622D01*
X0002852362Y0002778622D02*
X0002883858Y0002778622D01*
X0002809055Y0002821929D02*
X0002852362Y0002778622D01*
X0002044488Y0002821929D02*
X0002809055Y0002821929D01*
X0001967283Y0002899133D02*
X0002044488Y0002821929D01*
X0001967283Y0003033622D02*
X0001967283Y0002899133D01*
X0003546732Y0003033622D02*
X0003505393Y0003033622D01*
X0003719291Y0002861062D02*
X0003546732Y0003033622D01*
X0003719291Y0002753622D02*
X0003719291Y0002861062D01*
X0003713700Y0002748031D02*
X0003719291Y0002753622D01*
X0003205787Y0002748031D02*
X0003713700Y0002748031D01*
X0003175196Y0002778622D02*
X0003205787Y0002748031D01*
X0003100393Y0002778622D02*
X0003175196Y0002778622D01*
X0001437125Y0003198622D02*
X0001405629Y0003198622D01*
X0001342322Y0003198622D02*
X0001417125Y0003198622D01*
X0001159291Y0003198622D02*
X0001342322Y0003198622D01*
X0000994291Y0003033622D02*
X0001159291Y0003198622D01*
X0000865393Y0003033622D02*
X0000994291Y0003033622D01*
X0003594055Y0002773622D02*
X0003648661Y0002773622D01*
X0003569055Y0002803622D02*
X0003633661Y0002803622D01*
X0003450866Y0002921811D02*
X0003569055Y0002803622D01*
X0001238464Y0002788622D02*
X0001163661Y0002788622D01*
X0001282598Y0002832755D02*
X0001238464Y0002788622D01*
X0001791850Y0002832755D02*
X0001282598Y0002832755D01*
X0001858228Y0002899133D02*
X0001791850Y0002832755D01*
X0001858228Y0003033622D02*
X0001858228Y0002899133D01*
X0003357322Y0002773622D02*
X0003432125Y0002773622D01*
X0003342322Y0002803622D02*
X0003417125Y0002803622D01*
X0003313188Y0002832755D02*
X0003342322Y0002803622D01*
X0003135551Y0002832755D02*
X0003313188Y0002832755D01*
X0002882519Y0003085787D02*
X0003135551Y0002832755D01*
X0001910393Y0003085787D02*
X0002882519Y0003085787D01*
X0001858228Y0003033622D02*
X0001910393Y0003085787D01*
X0000855408Y0002921811D02*
X0000810866Y0002921811D01*
X0000857244Y0002921811D02*
X0000855408Y0002921811D01*
X0000947125Y0002831929D02*
X0000857244Y0002921811D01*
X0000947125Y0002788622D02*
X0000947125Y0002831929D01*
X0000985393Y0003198622D02*
X0000863661Y0003198622D01*
X0001045393Y0003138622D02*
X0000985393Y0003198622D01*
X0002227322Y0003198622D02*
X0002302125Y0003198622D01*
X0001859291Y0003198622D02*
X0002227322Y0003198622D01*
X0001749173Y0003088503D02*
X0001859291Y0003198622D01*
X0001749173Y0003033622D02*
X0001749173Y0003088503D01*
X0002561732Y0003198622D02*
X0002596732Y0003233622D01*
X0002486929Y0003198622D02*
X0002561732Y0003198622D01*
X0003082283Y0003233622D02*
X0003282283Y0003033622D01*
X0002596732Y0003233622D02*
X0003082283Y0003233622D01*
X0003282283Y0003033622D02*
X0003287283Y0003028622D01*
X0000647283Y0003198464D02*
X0000647125Y0003198622D01*
X0000647283Y0003033622D02*
X0000647283Y0003198464D01*
X0003048228Y0003158622D02*
X0003178228Y0003028622D01*
X0002946929Y0003158622D02*
X0003048228Y0003158622D01*
X0001772204Y0002890315D02*
X0001803700Y0002921811D01*
X0001760196Y0002878307D02*
X0001772204Y0002890315D01*
X0001050708Y0002878307D02*
X0001760196Y0002878307D01*
X0000955039Y0002973976D02*
X0001050708Y0002878307D01*
X0000785826Y0002973976D02*
X0000955039Y0002973976D01*
X0000758700Y0002946850D02*
X0000785826Y0002973976D01*
X0000758700Y0002901495D02*
X0000758700Y0002946850D01*
X0000650826Y0002793622D02*
X0000758700Y0002901495D01*
X0000453661Y0002793622D02*
X0000650826Y0002793622D01*
X0002698897Y0003158622D02*
X0002730393Y0003158622D01*
X0002655590Y0003115314D02*
X0002698897Y0003158622D01*
X0001862716Y0003115314D02*
X0002655590Y0003115314D01*
X0001803700Y0003056299D02*
X0001862716Y0003115314D01*
X0001803700Y0002921811D02*
X0001803700Y0003056299D01*
X0000268622Y0002793622D02*
X0000237125Y0002793622D01*
X0000456456Y0002981456D02*
X0000268622Y0002793622D01*
X0000486062Y0002981456D02*
X0000456456Y0002981456D01*
X0000538228Y0003033622D02*
X0000486062Y0002981456D01*
X0001723464Y0002778622D02*
X0001648661Y0002778622D01*
X0001814109Y0002778622D02*
X0001723464Y0002778622D01*
X0001912755Y0002877268D02*
X0001814109Y0002778622D01*
X0002227322Y0002753622D02*
X0002302125Y0002753622D01*
X0002036402Y0002753622D02*
X0002227322Y0002753622D01*
X0001912755Y0002877268D02*
X0002036402Y0002753622D01*
X0001912755Y0002921811D02*
X0001912755Y0002877268D01*
X0002546732Y0002733622D02*
X0002471929Y0002733622D01*
X0003427834Y0003065118D02*
X0003396338Y0003033622D01*
X0003448503Y0003085787D02*
X0003427834Y0003065118D01*
X0003818464Y0003085787D02*
X0003448503Y0003085787D01*
X0003878818Y0003025433D02*
X0003818464Y0003085787D01*
X0003878818Y0002876958D02*
X0003878818Y0003025433D01*
X0003712175Y0002710314D02*
X0003878818Y0002876958D01*
X0002593464Y0002710314D02*
X0003712175Y0002710314D01*
X0002550157Y0002753622D02*
X0002593464Y0002710314D01*
X0002518661Y0002753622D02*
X0002550157Y0002753622D01*
X0001432125Y0002778622D02*
X0001310393Y0002778622D01*
G04 next file*
G04 #@! TF.GenerationSoftware,KiCad,Pcbnew,(5.1.2)-2*
G04 #@! TF.CreationDate,2019-11-27T23:52:17-06:00*
G04 #@! TF.ProjectId,ti99-joystick,74693939-2d6a-46f7-9973-7469636b2e6b,rev?*
G04 #@! TF.SameCoordinates,Original*
G04 #@! TF.FileFunction,Copper,L1,Top*
G04 #@! TF.FilePolarity,Positive*
G04 Gerber Fmt 4.6, Leading zero omitted, Abs format (unit mm)*
G04 Created by KiCad (PCBNEW (5.1.2)-2) date 2019-11-27 23:52:17*
G04 APERTURE LIST*
G04 APERTURE END LIST*
D50*
X-0003149606Y0006692913D02*
X0002185393Y0003702913D03*
D51*
X0002076338Y0003702913D03*
X0001967283Y0003702913D03*
X0001858228Y0003702913D03*
X0001749173Y0003702913D03*
X0002130866Y0003591102D03*
X0002021811Y0003591102D03*
X0001912755Y0003591102D03*
X0001803700Y0003591102D03*
D52*
X0001475157Y0003647007D03*
X0002459409Y0003647007D03*
X0000155157Y0003647007D03*
X0001139409Y0003647007D03*
D51*
X0000483700Y0003591102D03*
X0000592755Y0003591102D03*
X0000701810Y0003591102D03*
X0000810866Y0003591102D03*
X0000429173Y0003702913D03*
X0000538228Y0003702913D03*
X0000647283Y0003702913D03*
X0000756338Y0003702913D03*
D50*
X0000865393Y0003702913D03*
X0003505393Y0003702913D03*
D51*
X0003396338Y0003702913D03*
X0003287283Y0003702913D03*
X0003178228Y0003702913D03*
X0003069173Y0003702913D03*
X0003450866Y0003591102D03*
X0003341811Y0003591102D03*
X0003232755Y0003591102D03*
X0003123700Y0003591102D03*
D52*
X0003779409Y0003647007D03*
X0002795157Y0003647007D03*
D53*
X0002883858Y0003447913D03*
X0003100393Y0003447913D03*
X0001417125Y0003867913D03*
X0001633661Y0003867913D03*
X0003633661Y0003472913D03*
X0003417125Y0003472913D03*
X0000947125Y0003457913D03*
X0001163661Y0003457913D03*
X0002302125Y0003867913D03*
X0002518661Y0003867913D03*
X0000863661Y0003867913D03*
X0000647125Y0003867913D03*
X0002946929Y0003827913D03*
X0002730393Y0003827913D03*
X0000237125Y0003462913D03*
X0000453661Y0003462913D03*
X0002302125Y0003422913D03*
X0002518661Y0003422913D03*
X0001648661Y0003447913D03*
X0001432125Y0003447913D03*
D54*
X0001805393Y0003867913D03*
X0001045393Y0003807913D03*
X0001310393Y0003447913D03*
D55*
X0001783122Y0003867913D02*
X0001633661Y0003867913D01*
X0001805393Y0003867913D02*
X0001783122Y0003867913D01*
X0002852362Y0003447913D02*
X0002883858Y0003447913D01*
X0002809055Y0003491220D02*
X0002852362Y0003447913D01*
X0002044488Y0003491220D02*
X0002809055Y0003491220D01*
X0001967283Y0003568425D02*
X0002044488Y0003491220D01*
X0001967283Y0003702913D02*
X0001967283Y0003568425D01*
X0003546732Y0003702913D02*
X0003505393Y0003702913D01*
X0003719291Y0003530354D02*
X0003546732Y0003702913D01*
X0003719291Y0003422913D02*
X0003719291Y0003530354D01*
X0003713700Y0003417322D02*
X0003719291Y0003422913D01*
X0003205787Y0003417322D02*
X0003713700Y0003417322D01*
X0003175196Y0003447913D02*
X0003205787Y0003417322D01*
X0003100393Y0003447913D02*
X0003175196Y0003447913D01*
X0001437125Y0003867913D02*
X0001405629Y0003867913D01*
X0001342322Y0003867913D02*
X0001417125Y0003867913D01*
X0001159291Y0003867913D02*
X0001342322Y0003867913D01*
X0000994291Y0003702913D02*
X0001159291Y0003867913D01*
X0000865393Y0003702913D02*
X0000994291Y0003702913D01*
X0003594055Y0003442913D02*
X0003648661Y0003442913D01*
X0003569055Y0003472913D02*
X0003633661Y0003472913D01*
X0003450866Y0003591102D02*
X0003569055Y0003472913D01*
X0001238464Y0003457913D02*
X0001163661Y0003457913D01*
X0001282598Y0003502047D02*
X0001238464Y0003457913D01*
X0001791850Y0003502047D02*
X0001282598Y0003502047D01*
X0001858228Y0003568425D02*
X0001791850Y0003502047D01*
X0001858228Y0003702913D02*
X0001858228Y0003568425D01*
X0003357322Y0003442913D02*
X0003432125Y0003442913D01*
X0003342322Y0003472913D02*
X0003417125Y0003472913D01*
X0003313188Y0003502047D02*
X0003342322Y0003472913D01*
X0003135551Y0003502047D02*
X0003313188Y0003502047D01*
X0002882519Y0003755078D02*
X0003135551Y0003502047D01*
X0001910393Y0003755078D02*
X0002882519Y0003755078D01*
X0001858228Y0003702913D02*
X0001910393Y0003755078D01*
X0000855408Y0003591102D02*
X0000810866Y0003591102D01*
X0000857244Y0003591102D02*
X0000855408Y0003591102D01*
X0000947125Y0003501220D02*
X0000857244Y0003591102D01*
X0000947125Y0003457913D02*
X0000947125Y0003501220D01*
X0000985393Y0003867913D02*
X0000863661Y0003867913D01*
X0001045393Y0003807913D02*
X0000985393Y0003867913D01*
X0002227322Y0003867913D02*
X0002302125Y0003867913D01*
X0001859291Y0003867913D02*
X0002227322Y0003867913D01*
X0001749173Y0003757795D02*
X0001859291Y0003867913D01*
X0001749173Y0003702913D02*
X0001749173Y0003757795D01*
X0002561732Y0003867913D02*
X0002596732Y0003902913D01*
X0002486929Y0003867913D02*
X0002561732Y0003867913D01*
X0003082283Y0003902913D02*
X0003282283Y0003702913D01*
X0002596732Y0003902913D02*
X0003082283Y0003902913D01*
X0003282283Y0003702913D02*
X0003287283Y0003697913D01*
X0000647283Y0003867755D02*
X0000647125Y0003867913D01*
X0000647283Y0003702913D02*
X0000647283Y0003867755D01*
X0003048228Y0003827913D02*
X0003178228Y0003697913D01*
X0002946929Y0003827913D02*
X0003048228Y0003827913D01*
X0001772204Y0003559606D02*
X0001803700Y0003591102D01*
X0001760196Y0003547598D02*
X0001772204Y0003559606D01*
X0001050708Y0003547598D02*
X0001760196Y0003547598D01*
X0000955039Y0003643267D02*
X0001050708Y0003547598D01*
X0000785826Y0003643267D02*
X0000955039Y0003643267D01*
X0000758700Y0003616141D02*
X0000785826Y0003643267D01*
X0000758700Y0003570787D02*
X0000758700Y0003616141D01*
X0000650826Y0003462913D02*
X0000758700Y0003570787D01*
X0000453661Y0003462913D02*
X0000650826Y0003462913D01*
X0002698897Y0003827913D02*
X0002730393Y0003827913D01*
X0002655590Y0003784606D02*
X0002698897Y0003827913D01*
X0001862716Y0003784606D02*
X0002655590Y0003784606D01*
X0001803700Y0003725590D02*
X0001862716Y0003784606D01*
X0001803700Y0003591102D02*
X0001803700Y0003725590D01*
X0000268622Y0003462913D02*
X0000237125Y0003462913D01*
X0000456456Y0003650747D02*
X0000268622Y0003462913D01*
X0000486062Y0003650747D02*
X0000456456Y0003650747D01*
X0000538228Y0003702913D02*
X0000486062Y0003650747D01*
X0001723464Y0003447913D02*
X0001648661Y0003447913D01*
X0001814109Y0003447913D02*
X0001723464Y0003447913D01*
X0001912755Y0003546560D02*
X0001814109Y0003447913D01*
X0002227322Y0003422913D02*
X0002302125Y0003422913D01*
X0002036402Y0003422913D02*
X0002227322Y0003422913D01*
X0001912755Y0003546560D02*
X0002036402Y0003422913D01*
X0001912755Y0003591102D02*
X0001912755Y0003546560D01*
X0002546732Y0003402913D02*
X0002471929Y0003402913D01*
X0003427834Y0003734409D02*
X0003396338Y0003702913D01*
X0003448503Y0003755078D02*
X0003427834Y0003734409D01*
X0003818464Y0003755078D02*
X0003448503Y0003755078D01*
X0003878818Y0003694724D02*
X0003818464Y0003755078D01*
X0003878818Y0003546249D02*
X0003878818Y0003694724D01*
X0003712175Y0003379606D02*
X0003878818Y0003546249D01*
X0002593464Y0003379606D02*
X0003712175Y0003379606D01*
X0002550157Y0003422913D02*
X0002593464Y0003379606D01*
X0002518661Y0003422913D02*
X0002550157Y0003422913D01*
X0001432125Y0003447913D02*
X0001310393Y0003447913D01*
M02*