%MOIN*%
%OFA0B0*%
%FSLAX44Y44*%
%IPPOS*%
%LPD*%
%ADD10C,0*%
D10*
X00027080Y00026771D02*
X00027080Y00026771D01*
X00035677Y00026771D01*
X00035726Y00026771D01*
X00035787Y00026766D01*
X00035847Y00026752D01*
X00035904Y00026728D01*
X00035957Y00026696D01*
X00036004Y00026656D01*
X00036044Y00026609D01*
X00036076Y00026556D01*
X00036100Y00026499D01*
X00036114Y00026439D01*
X00036119Y00026377D01*
X00036114Y00026316D01*
X00036100Y00026256D01*
X00036076Y00026199D01*
X00036044Y00026146D01*
X00036004Y00026099D01*
X00035957Y00026059D01*
X00035904Y00026027D01*
X00035847Y00026003D01*
X00035787Y00025989D01*
X00035726Y00025984D01*
X00027032Y00025984D01*
X00026970Y00025989D01*
X00026910Y00026003D01*
X00026853Y00026027D01*
X00026800Y00026059D01*
X00026753Y00026099D01*
X00026713Y00026146D01*
X00026681Y00026199D01*
X00026657Y00026256D01*
X00026643Y00026316D01*
X00026638Y00026377D01*
X00026643Y00026439D01*
X00026657Y00026499D01*
X00026681Y00026556D01*
X00026713Y00026609D01*
X00026753Y00026656D01*
X00026800Y00026696D01*
X00026853Y00026728D01*
X00026910Y00026752D01*
X00026970Y00026766D01*
X00027032Y00026771D01*
X00027080Y00026771D01*
X00026993Y00019291D02*
X00026993Y00019291D01*
X00026932Y00019296D01*
X00026872Y00019310D01*
X00026814Y00019334D01*
X00026762Y00019366D01*
X00026715Y00019406D01*
X00026675Y00019453D01*
X00026642Y00019506D01*
X00026619Y00019563D01*
X00026604Y00019623D01*
X00026599Y00019685D01*
X00026604Y00019746D01*
X00026619Y00019806D01*
X00026642Y00019863D01*
X00026675Y00019916D01*
X00026715Y00019963D01*
X00026762Y00020003D01*
X00026814Y00020035D01*
X00026872Y00020059D01*
X00026932Y00020073D01*
X00026993Y00020078D01*
X00027101Y00020078D01*
X00035147Y00020078D01*
X00035291Y00020078D01*
X00035353Y00020073D01*
X00035413Y00020059D01*
X00035470Y00020035D01*
X00035522Y00020003D01*
X00035569Y00019963D01*
X00035609Y00019916D01*
X00035642Y00019863D01*
X00035665Y00019806D01*
X00035680Y00019746D01*
X00035685Y00019685D01*
X00035680Y00019623D01*
X00035665Y00019563D01*
X00035642Y00019506D01*
X00035609Y00019453D01*
X00035569Y00019406D01*
X00035522Y00019366D01*
X00035470Y00019334D01*
X00035413Y00019310D01*
X00035353Y00019296D01*
X00035291Y00019291D01*
X00026993Y00019291D01*
X00026735Y00005905D02*
X00026735Y00005905D01*
X00026674Y00005910D01*
X00026614Y00005924D01*
X00026557Y00005948D01*
X00026504Y00005980D01*
X00026457Y00006020D01*
X00026417Y00006067D01*
X00026385Y00006120D01*
X00026361Y00006177D01*
X00026347Y00006237D01*
X00026342Y00006299D01*
X00026347Y00006360D01*
X00026361Y00006420D01*
X00026385Y00006477D01*
X00026417Y00006530D01*
X00026457Y00006577D01*
X00026504Y00006617D01*
X00026557Y00006650D01*
X00026614Y00006673D01*
X00026674Y00006688D01*
X00026735Y00006692D01*
X00026853Y00006692D01*
X00035500Y00006692D01*
X00035500Y00006692D01*
X00035562Y00006688D01*
X00035622Y00006673D01*
X00035679Y00006650D01*
X00035732Y00006617D01*
X00035779Y00006577D01*
X00035819Y00006530D01*
X00035851Y00006477D01*
X00035875Y00006420D01*
X00035889Y00006360D01*
X00035894Y00006299D01*
X00035889Y00006237D01*
X00035875Y00006177D01*
X00035851Y00006120D01*
X00035819Y00006067D01*
X00035779Y00006020D01*
X00035732Y00005980D01*
X00035679Y00005948D01*
X00035622Y00005924D01*
X00035562Y00005910D01*
X00035500Y00005905D01*
X00026735Y00005905D01*
X00026996Y00012598D02*
X00026996Y00012598D01*
X00026935Y00012603D01*
X00026875Y00012617D01*
X00026818Y00012641D01*
X00026765Y00012673D01*
X00026718Y00012713D01*
X00026678Y00012760D01*
X00026646Y00012813D01*
X00026622Y00012870D01*
X00026608Y00012930D01*
X00026603Y00012992D01*
X00026608Y00013053D01*
X00026622Y00013113D01*
X00026646Y00013170D01*
X00026678Y00013223D01*
X00026718Y00013270D01*
X00026765Y00013310D01*
X00026818Y00013342D01*
X00026875Y00013366D01*
X00026935Y00013380D01*
X00026996Y00013385D01*
X00027019Y00013385D01*
X00035438Y00013385D01*
X00035460Y00013385D01*
X00035522Y00013380D01*
X00035582Y00013366D01*
X00035639Y00013342D01*
X00035692Y00013310D01*
X00035739Y00013270D01*
X00035779Y00013223D01*
X00035811Y00013170D01*
X00035835Y00013113D01*
X00035849Y00013053D01*
X00035854Y00012992D01*
X00035849Y00012930D01*
X00035835Y00012870D01*
X00035811Y00012813D01*
X00035779Y00012760D01*
X00035739Y00012713D01*
X00035692Y00012673D01*
X00035639Y00012641D01*
X00035582Y00012617D01*
X00035522Y00012603D01*
X00035460Y00012598D01*
X00026996Y00012598D01*
X00015785Y00005905D02*
X00015785Y00005905D01*
X00015723Y00005910D01*
X00015663Y00005924D01*
X00015606Y00005948D01*
X00015553Y00005980D01*
X00015506Y00006020D01*
X00015466Y00006067D01*
X00015434Y00006120D01*
X00015410Y00006177D01*
X00015396Y00006237D01*
X00015391Y00006299D01*
X00015396Y00006360D01*
X00015410Y00006420D01*
X00015434Y00006477D01*
X00015466Y00006530D01*
X00015506Y00006577D01*
X00015553Y00006617D01*
X00015606Y00006650D01*
X00015663Y00006673D01*
X00015723Y00006688D01*
X00015785Y00006692D01*
X00015795Y00006692D01*
X00024536Y00006692D01*
X00024653Y00006692D01*
X00024715Y00006688D01*
X00024775Y00006673D01*
X00024832Y00006650D01*
X00024885Y00006617D01*
X00024932Y00006577D01*
X00024972Y00006530D01*
X00025004Y00006477D01*
X00025028Y00006420D01*
X00025042Y00006360D01*
X00025047Y00006299D01*
X00025042Y00006237D01*
X00025028Y00006177D01*
X00025004Y00006120D01*
X00024972Y00006067D01*
X00024932Y00006020D01*
X00024885Y00005980D01*
X00024832Y00005948D01*
X00024775Y00005924D01*
X00024715Y00005910D01*
X00024653Y00005905D01*
X00015785Y00005905D01*
X00015934Y00012598D02*
X00015934Y00012598D01*
X00015873Y00012603D01*
X00015813Y00012617D01*
X00015756Y00012641D01*
X00015703Y00012673D01*
X00015656Y00012713D01*
X00015616Y00012760D01*
X00015583Y00012813D01*
X00015560Y00012870D01*
X00015545Y00012930D01*
X00015541Y00012992D01*
X00015545Y00013053D01*
X00015560Y00013113D01*
X00015583Y00013170D01*
X00015616Y00013223D01*
X00015656Y00013270D01*
X00015703Y00013310D01*
X00015756Y00013342D01*
X00015813Y00013366D01*
X00015873Y00013380D01*
X00015934Y00013385D01*
X00016028Y00013385D01*
X00024770Y00013385D01*
X00024793Y00013385D01*
X00024855Y00013380D01*
X00024915Y00013366D01*
X00024972Y00013342D01*
X00025024Y00013310D01*
X00025071Y00013270D01*
X00025112Y00013223D01*
X00025144Y00013170D01*
X00025167Y00013113D01*
X00025182Y00013053D01*
X00025187Y00012992D01*
X00025182Y00012930D01*
X00025167Y00012870D01*
X00025144Y00012813D01*
X00025112Y00012760D01*
X00025071Y00012713D01*
X00025024Y00012673D01*
X00024972Y00012641D01*
X00024915Y00012617D01*
X00024855Y00012603D01*
X00024793Y00012598D01*
X00015934Y00012598D01*
X00016472Y00019291D02*
X00016472Y00019291D01*
X00016410Y00019296D01*
X00016350Y00019310D01*
X00016293Y00019334D01*
X00016241Y00019366D01*
X00016194Y00019406D01*
X00016154Y00019453D01*
X00016121Y00019506D01*
X00016098Y00019563D01*
X00016083Y00019623D01*
X00016078Y00019685D01*
X00016083Y00019746D01*
X00016098Y00019806D01*
X00016121Y00019863D01*
X00016154Y00019916D01*
X00016194Y00019963D01*
X00016241Y00020003D01*
X00016293Y00020035D01*
X00016350Y00020059D01*
X00016410Y00020073D01*
X00016472Y00020078D01*
X00016507Y00020078D01*
X00024789Y00020078D01*
X00024896Y00020078D01*
X00024958Y00020073D01*
X00025018Y00020059D01*
X00025075Y00020035D01*
X00025128Y00020003D01*
X00025175Y00019963D01*
X00025215Y00019916D01*
X00025247Y00019863D01*
X00025271Y00019806D01*
X00025285Y00019746D01*
X00025290Y00019685D01*
X00025285Y00019623D01*
X00025271Y00019563D01*
X00025247Y00019506D01*
X00025215Y00019453D01*
X00025175Y00019406D01*
X00025128Y00019366D01*
X00025075Y00019334D01*
X00025018Y00019310D01*
X00024958Y00019296D01*
X00024896Y00019291D01*
X00016472Y00019291D01*
X00016735Y00025984D02*
X00016735Y00025984D01*
X00016673Y00025989D01*
X00016613Y00026003D01*
X00016556Y00026027D01*
X00016503Y00026059D01*
X00016456Y00026099D01*
X00016416Y00026146D01*
X00016384Y00026199D01*
X00016360Y00026256D01*
X00016346Y00026316D01*
X00016341Y00026377D01*
X00016346Y00026439D01*
X00016360Y00026499D01*
X00016384Y00026556D01*
X00016416Y00026609D01*
X00016456Y00026656D01*
X00016503Y00026696D01*
X00016556Y00026728D01*
X00016613Y00026752D01*
X00016673Y00026766D01*
X00016735Y00026771D01*
X00016748Y00026771D01*
X00024809Y00026771D01*
X00024858Y00026771D01*
X00024919Y00026766D01*
X00024979Y00026752D01*
X00025036Y00026728D01*
X00025089Y00026696D01*
X00025136Y00026656D01*
X00025176Y00026609D01*
X00025209Y00026556D01*
X00025232Y00026499D01*
X00025247Y00026439D01*
X00025251Y00026377D01*
X00025247Y00026316D01*
X00025232Y00026256D01*
X00025209Y00026199D01*
X00025176Y00026146D01*
X00025136Y00026099D01*
X00025089Y00026059D01*
X00025036Y00026027D01*
X00024979Y00026003D01*
X00024919Y00025989D01*
X00024858Y00025984D01*
X00016735Y00025984D01*
X00002814Y00005905D02*
X00002814Y00005905D01*
X00002752Y00005910D01*
X00002692Y00005924D01*
X00002635Y00005948D01*
X00002582Y00005980D01*
X00002535Y00006020D01*
X00002495Y00006067D01*
X00002463Y00006120D01*
X00002439Y00006177D01*
X00002425Y00006237D01*
X00002420Y00006299D01*
X00002425Y00006360D01*
X00002439Y00006420D01*
X00002463Y00006477D01*
X00002495Y00006530D01*
X00002535Y00006577D01*
X00002582Y00006617D01*
X00002635Y00006650D01*
X00002692Y00006673D01*
X00002752Y00006688D01*
X00002814Y00006692D01*
X00002823Y00006692D01*
X00013558Y00006692D01*
X00013568Y00006692D01*
X00013629Y00006688D01*
X00013689Y00006673D01*
X00013747Y00006650D01*
X00013799Y00006617D01*
X00013846Y00006577D01*
X00013886Y00006530D01*
X00013919Y00006477D01*
X00013942Y00006420D01*
X00013957Y00006360D01*
X00013961Y00006299D01*
X00013957Y00006237D01*
X00013942Y00006177D01*
X00013919Y00006120D01*
X00013886Y00006067D01*
X00013846Y00006020D01*
X00013799Y00005980D01*
X00013747Y00005948D01*
X00013689Y00005924D01*
X00013629Y00005910D01*
X00013568Y00005905D01*
X00002814Y00005905D01*
X00002857Y00012598D02*
X00002857Y00012598D01*
X00002795Y00012603D01*
X00002735Y00012617D01*
X00002678Y00012641D01*
X00002625Y00012673D01*
X00002578Y00012713D01*
X00002538Y00012760D01*
X00002506Y00012813D01*
X00002482Y00012870D01*
X00002468Y00012930D01*
X00002463Y00012992D01*
X00002468Y00013053D01*
X00002482Y00013113D01*
X00002506Y00013170D01*
X00002538Y00013223D01*
X00002578Y00013270D01*
X00002625Y00013310D01*
X00002678Y00013342D01*
X00002735Y00013366D01*
X00002795Y00013380D01*
X00002857Y00013385D01*
X00002880Y00013385D01*
X00013725Y00013385D01*
X00013819Y00013385D01*
X00013881Y00013380D01*
X00013941Y00013366D01*
X00013998Y00013342D01*
X00014050Y00013310D01*
X00014097Y00013270D01*
X00014138Y00013223D01*
X00014170Y00013170D01*
X00014194Y00013113D01*
X00014208Y00013053D01*
X00014213Y00012992D01*
X00014208Y00012930D01*
X00014194Y00012870D01*
X00014170Y00012813D01*
X00014138Y00012760D01*
X00014097Y00012713D01*
X00014050Y00012673D01*
X00013998Y00012641D01*
X00013941Y00012617D01*
X00013881Y00012603D01*
X00013819Y00012598D01*
X00002857Y00012598D01*
X00003035Y00019291D02*
X00003035Y00019291D01*
X00003000Y00019291D01*
X00002938Y00019296D01*
X00002878Y00019310D01*
X00002821Y00019334D01*
X00002769Y00019366D01*
X00002722Y00019406D01*
X00002681Y00019453D01*
X00002649Y00019506D01*
X00002626Y00019563D01*
X00002611Y00019623D01*
X00002606Y00019685D01*
X00002611Y00019746D01*
X00002626Y00019806D01*
X00002649Y00019863D01*
X00002681Y00019916D01*
X00002722Y00019963D01*
X00002769Y00020003D01*
X00002821Y00020035D01*
X00002878Y00020059D01*
X00002938Y00020073D01*
X00003000Y00020078D01*
X00014247Y00020078D01*
X00014283Y00020078D01*
X00014345Y00020073D01*
X00014405Y00020059D01*
X00014462Y00020035D01*
X00014514Y00020003D01*
X00014561Y00019963D01*
X00014601Y00019916D01*
X00014634Y00019863D01*
X00014657Y00019806D01*
X00014672Y00019746D01*
X00014677Y00019685D01*
X00014672Y00019623D01*
X00014657Y00019563D01*
X00014634Y00019506D01*
X00014601Y00019453D01*
X00014561Y00019406D01*
X00014514Y00019366D01*
X00014462Y00019334D01*
X00014405Y00019310D01*
X00014345Y00019296D01*
X00014283Y00019291D01*
X00003035Y00019291D01*
X00003143Y00025984D02*
X00003143Y00025984D01*
X00003081Y00025989D01*
X00003021Y00026003D01*
X00002964Y00026027D01*
X00002911Y00026059D01*
X00002864Y00026099D01*
X00002824Y00026146D01*
X00002792Y00026199D01*
X00002768Y00026256D01*
X00002754Y00026316D01*
X00002749Y00026377D01*
X00002754Y00026439D01*
X00002768Y00026499D01*
X00002792Y00026556D01*
X00002824Y00026609D01*
X00002864Y00026656D01*
X00002911Y00026696D01*
X00002964Y00026728D01*
X00003021Y00026752D01*
X00003081Y00026766D01*
X00003143Y00026771D01*
X00003191Y00026771D01*
X00014508Y00026771D01*
X00014521Y00026771D01*
X00014582Y00026766D01*
X00014643Y00026752D01*
X00014700Y00026728D01*
X00014752Y00026696D01*
X00014799Y00026656D01*
X00014839Y00026609D01*
X00014872Y00026556D01*
X00014895Y00026499D01*
X00014910Y00026439D01*
X00014915Y00026377D01*
X00014910Y00026316D01*
X00014895Y00026256D01*
X00014872Y00026199D01*
X00014839Y00026146D01*
X00014799Y00026099D01*
X00014752Y00026059D01*
X00014700Y00026027D01*
X00014643Y00026003D01*
X00014582Y00025989D01*
X00014521Y00025984D01*
X00003143Y00025984D01*
X00035610Y00033464D02*
X00035610Y00033464D01*
X00035707Y00033464D01*
X00035769Y00033459D01*
X00035829Y00033445D01*
X00035886Y00033421D01*
X00035938Y00033389D01*
X00035985Y00033349D01*
X00036026Y00033302D01*
X00036058Y00033249D01*
X00036081Y00033192D01*
X00036096Y00033132D01*
X00036101Y00033070D01*
X00036096Y00033009D01*
X00036081Y00032949D01*
X00036058Y00032892D01*
X00036026Y00032839D01*
X00035985Y00032792D01*
X00035938Y00032752D01*
X00035886Y00032720D01*
X00035829Y00032696D01*
X00035769Y00032682D01*
X00035707Y00032677D01*
X00027264Y00032677D01*
X00027254Y00032677D01*
X00027192Y00032682D01*
X00027132Y00032696D01*
X00027075Y00032720D01*
X00027022Y00032752D01*
X00026975Y00032792D01*
X00026935Y00032839D01*
X00026903Y00032892D01*
X00026879Y00032949D01*
X00026865Y00033009D01*
X00026860Y00033070D01*
X00026865Y00033132D01*
X00026879Y00033192D01*
X00026903Y00033249D01*
X00026935Y00033302D01*
X00026975Y00033349D01*
X00027022Y00033389D01*
X00027075Y00033421D01*
X00027132Y00033445D01*
X00027192Y00033459D01*
X00027254Y00033464D01*
X00035610Y00033464D01*
X00016861Y00032677D02*
X00016861Y00032677D01*
X00016830Y00032678D01*
X00016799Y00032682D01*
X00016769Y00032688D01*
X00016739Y00032696D01*
X00016710Y00032707D01*
X00016682Y00032720D01*
X00016655Y00032735D01*
X00016630Y00032752D01*
X00016605Y00032771D01*
X00016583Y00032792D01*
X00016562Y00032815D01*
X00016543Y00032839D01*
X00016525Y00032865D01*
X00016510Y00032892D01*
X00016497Y00032920D01*
X00016487Y00032949D01*
X00016478Y00032978D01*
X00016472Y00033009D01*
X00016469Y00033039D01*
X00016861Y00033070D01*
X00016469Y00033101D01*
X00016472Y00033132D01*
X00016478Y00033162D01*
X00016487Y00033192D01*
X00016497Y00033221D01*
X00016510Y00033249D01*
X00016525Y00033276D01*
X00016543Y00033302D01*
X00016562Y00033326D01*
X00016583Y00033349D01*
X00016605Y00033370D01*
X00016630Y00033389D01*
X00016655Y00033406D01*
X00016682Y00033421D01*
X00016710Y00033434D01*
X00016739Y00033445D01*
X00016769Y00033453D01*
X00016799Y00033459D01*
X00016830Y00033463D01*
X00016861Y00033464D01*
X00025037Y00033464D01*
X00025098Y00033459D01*
X00025158Y00033445D01*
X00025215Y00033421D01*
X00025268Y00033389D01*
X00025315Y00033349D01*
X00025355Y00033302D01*
X00025387Y00033249D01*
X00025411Y00033192D01*
X00025425Y00033132D01*
X00025430Y00033070D01*
X00025425Y00033009D01*
X00025411Y00032949D01*
X00025387Y00032892D01*
X00025355Y00032839D01*
X00025315Y00032792D01*
X00025268Y00032752D01*
X00025215Y00032720D01*
X00025158Y00032696D01*
X00025098Y00032682D01*
X00025037Y00032677D01*
X00025027Y00032677D01*
X00016861Y00032677D01*
X00003475Y00032677D02*
X00003475Y00032677D01*
X00003475Y00032677D01*
X00003414Y00032682D01*
X00003354Y00032696D01*
X00003297Y00032720D01*
X00003244Y00032752D01*
X00003197Y00032792D01*
X00003157Y00032839D01*
X00003124Y00032892D01*
X00003101Y00032949D01*
X00003086Y00033009D01*
X00003082Y00033070D01*
X00003086Y00033132D01*
X00003101Y00033192D01*
X00003124Y00033249D01*
X00003157Y00033302D01*
X00003197Y00033349D01*
X00003244Y00033389D01*
X00003297Y00033421D01*
X00003354Y00033445D01*
X00003414Y00033459D01*
X00003475Y00033464D01*
X00014634Y00033464D01*
X00014696Y00033459D01*
X00014756Y00033445D01*
X00014813Y00033421D01*
X00014865Y00033389D01*
X00014912Y00033349D01*
X00014952Y00033302D01*
X00014985Y00033249D01*
X00015008Y00033192D01*
X00015023Y00033132D01*
X00015028Y00033070D01*
X00015023Y00033009D01*
X00015008Y00032949D01*
X00014985Y00032892D01*
X00014952Y00032839D01*
X00014912Y00032792D01*
X00014865Y00032752D01*
X00014813Y00032720D01*
X00014756Y00032696D01*
X00014696Y00032682D01*
X00014634Y00032677D01*
X00014634Y00032677D01*
X00003475Y00032677D01*
X00001248Y00033464D02*
X00001248Y00033464D01*
X00001310Y00033459D01*
X00001370Y00033445D01*
X00001427Y00033421D01*
X00001480Y00033389D01*
X00001527Y00033349D01*
X00001567Y00033302D01*
X00001599Y00033249D01*
X00001623Y00033192D01*
X00001637Y00033132D01*
X00001642Y00033070D01*
X00001637Y00033009D01*
X00001623Y00032949D01*
X00001599Y00032892D01*
X00001567Y00032839D01*
X00001527Y00032792D01*
X00001480Y00032752D01*
X00001427Y00032720D01*
X00001370Y00032696D01*
X00001310Y00032682D01*
X00001248Y00032677D01*
X00001248Y00032677D01*
X00000000Y00032677D01*
X00000000Y00026771D01*
X00000920Y00026771D01*
X00000969Y00026771D01*
X00001030Y00026766D01*
X00001090Y00026752D01*
X00001147Y00026728D01*
X00001200Y00026696D01*
X00001247Y00026656D01*
X00001287Y00026609D01*
X00001319Y00026556D01*
X00001343Y00026499D01*
X00001357Y00026439D01*
X00001362Y00026377D01*
X00001357Y00026316D01*
X00001343Y00026256D01*
X00001319Y00026199D01*
X00001287Y00026146D01*
X00001247Y00026099D01*
X00001200Y00026059D01*
X00001147Y00026027D01*
X00001090Y00026003D01*
X00001030Y00025989D01*
X00000969Y00025984D01*
X00000000Y00025984D01*
X00000000Y00020078D01*
X00000811Y00020078D01*
X00000872Y00020073D01*
X00000933Y00020059D01*
X00000990Y00020035D01*
X00001042Y00020003D01*
X00001089Y00019963D01*
X00001129Y00019916D01*
X00001162Y00019863D01*
X00001185Y00019806D01*
X00001200Y00019746D01*
X00001205Y00019685D01*
X00001200Y00019623D01*
X00001185Y00019563D01*
X00001162Y00019506D01*
X00001129Y00019453D01*
X00001089Y00019406D01*
X00001042Y00019366D01*
X00000990Y00019334D01*
X00000933Y00019310D01*
X00000872Y00019296D01*
X00000811Y00019291D01*
X00000775Y00019291D01*
X00000000Y00019291D01*
X00000000Y00013385D01*
X00000631Y00013385D01*
X00000653Y00013385D01*
X00000715Y00013380D01*
X00000775Y00013366D01*
X00000832Y00013342D01*
X00000885Y00013310D01*
X00000932Y00013270D01*
X00000972Y00013223D01*
X00001004Y00013170D01*
X00001028Y00013113D01*
X00001042Y00013053D01*
X00001047Y00012992D01*
X00001042Y00012930D01*
X00001028Y00012870D01*
X00001004Y00012813D01*
X00000972Y00012760D01*
X00000932Y00012713D01*
X00000885Y00012673D01*
X00000832Y00012641D01*
X00000775Y00012617D01*
X00000715Y00012603D01*
X00000653Y00012598D01*
X00000000Y00012598D01*
X00000000Y00006692D01*
X00000587Y00006692D01*
X00000597Y00006692D01*
X00000658Y00006688D01*
X00000718Y00006673D01*
X00000775Y00006650D01*
X00000828Y00006617D01*
X00000875Y00006577D01*
X00000915Y00006530D01*
X00000947Y00006477D01*
X00000971Y00006420D01*
X00000985Y00006360D01*
X00000990Y00006299D01*
X00000985Y00006237D01*
X00000971Y00006177D01*
X00000947Y00006120D01*
X00000915Y00006067D01*
X00000875Y00006020D01*
X00000828Y00005980D01*
X00000775Y00005948D01*
X00000718Y00005924D01*
X00000658Y00005910D01*
X00000597Y00005905D01*
X00000000Y00005905D01*
X00000000Y00000000D01*
X00039370Y00000000D01*
X00039370Y00005905D01*
X00037727Y00005905D01*
X00037666Y00005910D01*
X00037606Y00005924D01*
X00037548Y00005948D01*
X00037496Y00005980D01*
X00037449Y00006020D01*
X00037409Y00006067D01*
X00037376Y00006120D01*
X00037353Y00006177D01*
X00037338Y00006237D01*
X00037334Y00006299D01*
X00037338Y00006360D01*
X00037353Y00006420D01*
X00037376Y00006477D01*
X00037409Y00006530D01*
X00037449Y00006577D01*
X00037496Y00006617D01*
X00037548Y00006650D01*
X00037606Y00006673D01*
X00037666Y00006688D01*
X00037727Y00006692D01*
X00037727Y00006692D01*
X00039370Y00006692D01*
X00039370Y00012598D01*
X00037664Y00012598D01*
X00037602Y00012603D01*
X00037542Y00012617D01*
X00037485Y00012641D01*
X00037433Y00012673D01*
X00037386Y00012713D01*
X00037345Y00012760D01*
X00037313Y00012813D01*
X00037289Y00012870D01*
X00037275Y00012930D01*
X00037270Y00012992D01*
X00037275Y00013053D01*
X00037289Y00013113D01*
X00037313Y00013170D01*
X00037345Y00013223D01*
X00037386Y00013270D01*
X00037433Y00013310D01*
X00037485Y00013342D01*
X00037542Y00013366D01*
X00037602Y00013380D01*
X00037664Y00013385D01*
X00037687Y00013385D01*
X00039370Y00013385D01*
X00039370Y00019291D01*
X00037333Y00019291D01*
X00037271Y00019296D01*
X00037211Y00019310D01*
X00037154Y00019334D01*
X00037101Y00019366D01*
X00037054Y00019406D01*
X00037014Y00019453D01*
X00036982Y00019506D01*
X00036958Y00019563D01*
X00036944Y00019623D01*
X00036939Y00019685D01*
X00036944Y00019746D01*
X00036958Y00019806D01*
X00036982Y00019863D01*
X00037014Y00019916D01*
X00037054Y00019963D01*
X00037101Y00020003D01*
X00037154Y00020035D01*
X00037211Y00020059D01*
X00037271Y00020073D01*
X00037333Y00020078D01*
X00037477Y00020078D01*
X00039370Y00020078D01*
X00039370Y00025984D01*
X00037900Y00025984D01*
X00037838Y00025989D01*
X00037778Y00026003D01*
X00037721Y00026027D01*
X00037668Y00026059D01*
X00037621Y00026099D01*
X00037581Y00026146D01*
X00037549Y00026199D01*
X00037525Y00026256D01*
X00037511Y00026316D01*
X00037506Y00026377D01*
X00037511Y00026439D01*
X00037525Y00026499D01*
X00037549Y00026556D01*
X00037581Y00026609D01*
X00037621Y00026656D01*
X00037668Y00026696D01*
X00037721Y00026728D01*
X00037778Y00026752D01*
X00037838Y00026766D01*
X00037900Y00026771D01*
X00037948Y00026771D01*
X00039370Y00026771D01*
X00039370Y00032677D01*
X00037818Y00032677D01*
X00037756Y00032682D01*
X00037696Y00032696D01*
X00037639Y00032720D01*
X00037587Y00032752D01*
X00037540Y00032792D01*
X00037500Y00032839D01*
X00037467Y00032892D01*
X00037444Y00032949D01*
X00037429Y00033009D01*
X00037424Y00033070D01*
X00037429Y00033132D01*
X00037444Y00033192D01*
X00037467Y00033249D01*
X00037500Y00033302D01*
X00037540Y00033349D01*
X00037587Y00033389D01*
X00037639Y00033421D01*
X00037696Y00033445D01*
X00037756Y00033459D01*
X00037818Y00033464D01*
X00037915Y00033464D01*
X00039370Y00033464D01*
X00039370Y00039370D01*
X00000000Y00039370D01*
X00000000Y00033464D01*
X00001248Y00033464D01*
M02*