%MOIN*%
%OFA0B0*%
%FSLAX46Y46*%
%IPPOS*%
%LPD*%
%ADD10C,0.0047244094488188976*%
%ADD21C,0.0047244094488188976*%
%ADD22C,0.0047244094488188976*%
%ADD23C,0.0047244094488188976*%
%ADD24C,0.0047244094488188976*%
%ADD25C,0.0047244094488188976*%
D10*
X0000956986Y0000389596D02*
X0000921582Y0000188808D01*
X0000337579Y0000389596D02*
X0000372984Y0000188808D01*
X0000857221Y0000134803D02*
X0000437345Y0000134803D01*
X0000892625Y0000466299D02*
X0000401941Y0000466299D01*
X0000865393Y0000567138D02*
X0000875236Y0000584186D01*
X0000855551Y0000584186D02*
X0000865393Y0000567138D01*
X0000875236Y0000584186D02*
X0000855551Y0000584186D01*
X0001256929Y0000093858D02*
X0001256929Y0000507244D01*
X0000079370Y0000052125D02*
X0001215196Y0000052125D01*
X0000037637Y0000507244D02*
X0000037637Y0000093858D01*
X0001215196Y0000548976D02*
X0000079370Y0000548976D01*
X0000372984Y0000188808D02*
G75*
G03X0000437345Y0000134803I0000064361J0000011348D01*
G01*
X0000921582Y0000188808D02*
G75*
G02X0000857221Y0000134803I-0000064361J0000011348D01*
G01*
X0000337579Y0000389596D02*
G75*
G02X0000401941Y0000466299I0000064361J0000011348D01*
G01*
X0000956986Y0000389596D02*
G75*
G03X0000892625Y0000466299I-0000064361J0000011348D01*
G01*
X0000079370Y0000052125D02*
G75*
G02X0000037637Y0000093858J0000041732D01*
G01*
X0001215196Y0000052125D02*
G75*
G03X0001256929Y0000093858J0000041732D01*
G01*
X0000037637Y0000507244D02*
G75*
G02X0000079370Y0000548976I0000041732D01*
G01*
X0001215196Y0000548976D02*
G75*
G02X0001256929Y0000507244J-0000041732D01*
G01*
X0003855196Y0000548976D02*
G75*
G02X0003896929Y0000507244J-0000041732D01*
G01*
X0002677637Y0000507244D02*
G75*
G02X0002719370Y0000548976I0000041732D01*
G01*
X0003855196Y0000052125D02*
G75*
G03X0003896929Y0000093858J0000041732D01*
G01*
X0002719370Y0000052125D02*
G75*
G02X0002677637Y0000093858J0000041732D01*
G01*
X0003596987Y0000389596D02*
G75*
G03X0003532625Y0000466299I-0000064361J0000011348D01*
G01*
X0002977579Y0000389596D02*
G75*
G02X0003041941Y0000466299I0000064361J0000011348D01*
G01*
X0003561582Y0000188808D02*
G75*
G02X0003497221Y0000134803I-0000064361J0000011348D01*
G01*
X0003012984Y0000188808D02*
G75*
G03X0003077345Y0000134803I0000064361J0000011348D01*
G01*
X0003855196Y0000548976D02*
X0002719370Y0000548976D01*
X0002677637Y0000507244D02*
X0002677637Y0000093858D01*
X0002719370Y0000052125D02*
X0003855196Y0000052125D01*
X0003896929Y0000093858D02*
X0003896929Y0000507244D01*
X0003515236Y0000584186D02*
X0003495551Y0000584186D01*
X0003495551Y0000584186D02*
X0003505393Y0000567138D01*
X0003505393Y0000567138D02*
X0003515236Y0000584186D01*
X0003532625Y0000466299D02*
X0003041941Y0000466299D01*
X0003497221Y0000134803D02*
X0003077345Y0000134803D01*
X0002977579Y0000389596D02*
X0003012984Y0000188808D01*
X0003596987Y0000389596D02*
X0003561582Y0000188808D01*
G04 next file*
G04 #@! TF.GenerationSoftware,KiCad,Pcbnew,(5.1.2)-2*
G04 #@! TF.CreationDate,2019-11-27T23:52:17-06:00*
G04 #@! TF.ProjectId,ti99-joystick,74693939-2d6a-46f7-9973-7469636b2e6b,rev?*
G04 #@! TF.SameCoordinates,Original*
G04 #@! TF.FileFunction,Legend,Bot*
G04 #@! TF.FilePolarity,Positive*
G04 Gerber Fmt 4.6, Leading zero omitted, Abs format (unit mm)*
G04 Created by KiCad (PCBNEW (5.1.2)-2) date 2019-11-27 23:52:17*
G04 APERTURE LIST*
G04 APERTURE END LIST*
D21*
X0000956986Y0001058887D02*
X0000921582Y0000858100D01*
X0000337579Y0001058887D02*
X0000372984Y0000858100D01*
X0000857221Y0000804094D02*
X0000437345Y0000804094D01*
X0000892625Y0001135590D02*
X0000401941Y0001135590D01*
X0000865393Y0001236430D02*
X0000875236Y0001253477D01*
X0000855551Y0001253477D02*
X0000865393Y0001236430D01*
X0000875236Y0001253477D02*
X0000855551Y0001253477D01*
X0001256929Y0000763149D02*
X0001256929Y0001176535D01*
X0000079370Y0000721417D02*
X0001215196Y0000721417D01*
X0000037637Y0001176535D02*
X0000037637Y0000763149D01*
X0001215196Y0001218267D02*
X0000079370Y0001218267D01*
X0000372984Y0000858100D02*
G75*
G03X0000437345Y0000804094I0000064361J0000011348D01*
G01*
X0000921582Y0000858100D02*
G75*
G02X0000857221Y0000804094I-0000064361J0000011348D01*
G01*
X0000337579Y0001058887D02*
G75*
G02X0000401941Y0001135590I0000064361J0000011348D01*
G01*
X0000956986Y0001058887D02*
G75*
G03X0000892625Y0001135590I-0000064361J0000011348D01*
G01*
X0000079370Y0000721417D02*
G75*
G02X0000037637Y0000763149J0000041732D01*
G01*
X0001215196Y0000721417D02*
G75*
G03X0001256929Y0000763149J0000041732D01*
G01*
X0000037637Y0001176535D02*
G75*
G02X0000079370Y0001218267I0000041732D01*
G01*
X0001215196Y0001218267D02*
G75*
G02X0001256929Y0001176535J-0000041732D01*
G01*
X0003855196Y0001218267D02*
G75*
G02X0003896929Y0001176535J-0000041732D01*
G01*
X0002677637Y0001176535D02*
G75*
G02X0002719370Y0001218267I0000041732D01*
G01*
X0003855196Y0000721417D02*
G75*
G03X0003896929Y0000763149J0000041732D01*
G01*
X0002719370Y0000721417D02*
G75*
G02X0002677637Y0000763149J0000041732D01*
G01*
X0003596987Y0001058887D02*
G75*
G03X0003532625Y0001135590I-0000064361J0000011348D01*
G01*
X0002977579Y0001058887D02*
G75*
G02X0003041941Y0001135590I0000064361J0000011348D01*
G01*
X0003561582Y0000858100D02*
G75*
G02X0003497221Y0000804094I-0000064361J0000011348D01*
G01*
X0003012984Y0000858100D02*
G75*
G03X0003077345Y0000804094I0000064361J0000011348D01*
G01*
X0003855196Y0001218267D02*
X0002719370Y0001218267D01*
X0002677637Y0001176535D02*
X0002677637Y0000763149D01*
X0002719370Y0000721417D02*
X0003855196Y0000721417D01*
X0003896929Y0000763149D02*
X0003896929Y0001176535D01*
X0003515236Y0001253477D02*
X0003495551Y0001253477D01*
X0003495551Y0001253477D02*
X0003505393Y0001236430D01*
X0003505393Y0001236430D02*
X0003515236Y0001253477D01*
X0003532625Y0001135590D02*
X0003041941Y0001135590D01*
X0003497221Y0000804094D02*
X0003077345Y0000804094D01*
X0002977579Y0001058887D02*
X0003012984Y0000858100D01*
X0003596987Y0001058887D02*
X0003561582Y0000858100D01*
G04 next file*
G04 #@! TF.GenerationSoftware,KiCad,Pcbnew,(5.1.2)-2*
G04 #@! TF.CreationDate,2019-11-27T23:52:17-06:00*
G04 #@! TF.ProjectId,ti99-joystick,74693939-2d6a-46f7-9973-7469636b2e6b,rev?*
G04 #@! TF.SameCoordinates,Original*
G04 #@! TF.FileFunction,Legend,Bot*
G04 #@! TF.FilePolarity,Positive*
G04 Gerber Fmt 4.6, Leading zero omitted, Abs format (unit mm)*
G04 Created by KiCad (PCBNEW (5.1.2)-2) date 2019-11-27 23:52:17*
G04 APERTURE LIST*
G04 APERTURE END LIST*
D22*
X0000956986Y0001728178D02*
X0000921582Y0001527391D01*
X0000337579Y0001728178D02*
X0000372984Y0001527391D01*
X0000857221Y0001473385D02*
X0000437345Y0001473385D01*
X0000892625Y0001804881D02*
X0000401941Y0001804881D01*
X0000865393Y0001905721D02*
X0000875236Y0001922769D01*
X0000855551Y0001922769D02*
X0000865393Y0001905721D01*
X0000875236Y0001922769D02*
X0000855551Y0001922769D01*
X0001256929Y0001432440D02*
X0001256929Y0001845826D01*
X0000079370Y0001390708D02*
X0001215196Y0001390708D01*
X0000037637Y0001845826D02*
X0000037637Y0001432440D01*
X0001215196Y0001887559D02*
X0000079370Y0001887559D01*
X0000372984Y0001527391D02*
G75*
G03X0000437345Y0001473385I0000064361J0000011348D01*
G01*
X0000921582Y0001527391D02*
G75*
G02X0000857221Y0001473385I-0000064361J0000011348D01*
G01*
X0000337579Y0001728178D02*
G75*
G02X0000401941Y0001804881I0000064361J0000011348D01*
G01*
X0000956986Y0001728178D02*
G75*
G03X0000892625Y0001804881I-0000064361J0000011348D01*
G01*
X0000079370Y0001390708D02*
G75*
G02X0000037637Y0001432440J0000041732D01*
G01*
X0001215196Y0001390708D02*
G75*
G03X0001256929Y0001432440J0000041732D01*
G01*
X0000037637Y0001845826D02*
G75*
G02X0000079370Y0001887559I0000041732D01*
G01*
X0001215196Y0001887559D02*
G75*
G02X0001256929Y0001845826J-0000041732D01*
G01*
X0003855196Y0001887559D02*
G75*
G02X0003896929Y0001845826J-0000041732D01*
G01*
X0002677637Y0001845826D02*
G75*
G02X0002719370Y0001887559I0000041732D01*
G01*
X0003855196Y0001390708D02*
G75*
G03X0003896929Y0001432440J0000041732D01*
G01*
X0002719370Y0001390708D02*
G75*
G02X0002677637Y0001432440J0000041732D01*
G01*
X0003596987Y0001728178D02*
G75*
G03X0003532625Y0001804881I-0000064361J0000011348D01*
G01*
X0002977579Y0001728178D02*
G75*
G02X0003041941Y0001804881I0000064361J0000011348D01*
G01*
X0003561582Y0001527391D02*
G75*
G02X0003497221Y0001473385I-0000064361J0000011348D01*
G01*
X0003012984Y0001527391D02*
G75*
G03X0003077345Y0001473385I0000064361J0000011348D01*
G01*
X0003855196Y0001887559D02*
X0002719370Y0001887559D01*
X0002677637Y0001845826D02*
X0002677637Y0001432440D01*
X0002719370Y0001390708D02*
X0003855196Y0001390708D01*
X0003896929Y0001432440D02*
X0003896929Y0001845826D01*
X0003515236Y0001922769D02*
X0003495551Y0001922769D01*
X0003495551Y0001922769D02*
X0003505393Y0001905721D01*
X0003505393Y0001905721D02*
X0003515236Y0001922769D01*
X0003532625Y0001804881D02*
X0003041941Y0001804881D01*
X0003497221Y0001473385D02*
X0003077345Y0001473385D01*
X0002977579Y0001728178D02*
X0003012984Y0001527391D01*
X0003596987Y0001728178D02*
X0003561582Y0001527391D01*
G04 next file*
G04 #@! TF.GenerationSoftware,KiCad,Pcbnew,(5.1.2)-2*
G04 #@! TF.CreationDate,2019-11-27T23:52:17-06:00*
G04 #@! TF.ProjectId,ti99-joystick,74693939-2d6a-46f7-9973-7469636b2e6b,rev?*
G04 #@! TF.SameCoordinates,Original*
G04 #@! TF.FileFunction,Legend,Bot*
G04 #@! TF.FilePolarity,Positive*
G04 Gerber Fmt 4.6, Leading zero omitted, Abs format (unit mm)*
G04 Created by KiCad (PCBNEW (5.1.2)-2) date 2019-11-27 23:52:17*
G04 APERTURE LIST*
G04 APERTURE END LIST*
D23*
X0000956986Y0002397470D02*
X0000921582Y0002196682D01*
X0000337579Y0002397470D02*
X0000372984Y0002196682D01*
X0000857221Y0002142677D02*
X0000437345Y0002142677D01*
X0000892625Y0002474173D02*
X0000401941Y0002474173D01*
X0000865393Y0002575012D02*
X0000875236Y0002592060D01*
X0000855551Y0002592060D02*
X0000865393Y0002575012D01*
X0000875236Y0002592060D02*
X0000855551Y0002592060D01*
X0001256929Y0002101732D02*
X0001256929Y0002515118D01*
X0000079370Y0002060000D02*
X0001215196Y0002060000D01*
X0000037637Y0002515118D02*
X0000037637Y0002101732D01*
X0001215196Y0002556850D02*
X0000079370Y0002556850D01*
X0000372984Y0002196682D02*
G75*
G03X0000437345Y0002142677I0000064361J0000011348D01*
G01*
X0000921582Y0002196682D02*
G75*
G02X0000857221Y0002142677I-0000064361J0000011348D01*
G01*
X0000337579Y0002397470D02*
G75*
G02X0000401941Y0002474173I0000064361J0000011348D01*
G01*
X0000956986Y0002397470D02*
G75*
G03X0000892625Y0002474173I-0000064361J0000011348D01*
G01*
X0000079370Y0002060000D02*
G75*
G02X0000037637Y0002101732J0000041732D01*
G01*
X0001215196Y0002060000D02*
G75*
G03X0001256929Y0002101732J0000041732D01*
G01*
X0000037637Y0002515118D02*
G75*
G02X0000079370Y0002556850I0000041732D01*
G01*
X0001215196Y0002556850D02*
G75*
G02X0001256929Y0002515118J-0000041732D01*
G01*
X0003855196Y0002556850D02*
G75*
G02X0003896929Y0002515118J-0000041732D01*
G01*
X0002677637Y0002515118D02*
G75*
G02X0002719370Y0002556850I0000041732D01*
G01*
X0003855196Y0002060000D02*
G75*
G03X0003896929Y0002101732J0000041732D01*
G01*
X0002719370Y0002060000D02*
G75*
G02X0002677637Y0002101732J0000041732D01*
G01*
X0003596987Y0002397470D02*
G75*
G03X0003532625Y0002474173I-0000064361J0000011348D01*
G01*
X0002977579Y0002397470D02*
G75*
G02X0003041941Y0002474173I0000064361J0000011348D01*
G01*
X0003561582Y0002196682D02*
G75*
G02X0003497221Y0002142677I-0000064361J0000011348D01*
G01*
X0003012984Y0002196682D02*
G75*
G03X0003077345Y0002142677I0000064361J0000011348D01*
G01*
X0003855196Y0002556850D02*
X0002719370Y0002556850D01*
X0002677637Y0002515118D02*
X0002677637Y0002101732D01*
X0002719370Y0002060000D02*
X0003855196Y0002060000D01*
X0003896929Y0002101732D02*
X0003896929Y0002515118D01*
X0003515236Y0002592060D02*
X0003495551Y0002592060D01*
X0003495551Y0002592060D02*
X0003505393Y0002575012D01*
X0003505393Y0002575012D02*
X0003515236Y0002592060D01*
X0003532625Y0002474173D02*
X0003041941Y0002474173D01*
X0003497221Y0002142677D02*
X0003077345Y0002142677D01*
X0002977579Y0002397470D02*
X0003012984Y0002196682D01*
X0003596987Y0002397470D02*
X0003561582Y0002196682D01*
G04 next file*
G04 #@! TF.GenerationSoftware,KiCad,Pcbnew,(5.1.2)-2*
G04 #@! TF.CreationDate,2019-11-27T23:52:17-06:00*
G04 #@! TF.ProjectId,ti99-joystick,74693939-2d6a-46f7-9973-7469636b2e6b,rev?*
G04 #@! TF.SameCoordinates,Original*
G04 #@! TF.FileFunction,Legend,Bot*
G04 #@! TF.FilePolarity,Positive*
G04 Gerber Fmt 4.6, Leading zero omitted, Abs format (unit mm)*
G04 Created by KiCad (PCBNEW (5.1.2)-2) date 2019-11-27 23:52:17*
G04 APERTURE LIST*
G04 APERTURE END LIST*
D24*
X0000956986Y0003066761D02*
X0000921582Y0002865974D01*
X0000337579Y0003066761D02*
X0000372984Y0002865974D01*
X0000857221Y0002811968D02*
X0000437345Y0002811968D01*
X0000892625Y0003143464D02*
X0000401941Y0003143464D01*
X0000865393Y0003244304D02*
X0000875236Y0003261351D01*
X0000855551Y0003261351D02*
X0000865393Y0003244304D01*
X0000875236Y0003261351D02*
X0000855551Y0003261351D01*
X0001256929Y0002771023D02*
X0001256929Y0003184409D01*
X0000079370Y0002729291D02*
X0001215196Y0002729291D01*
X0000037637Y0003184409D02*
X0000037637Y0002771023D01*
X0001215196Y0003226141D02*
X0000079370Y0003226141D01*
X0000372984Y0002865974D02*
G75*
G03X0000437345Y0002811968I0000064361J0000011348D01*
G01*
X0000921582Y0002865974D02*
G75*
G02X0000857221Y0002811968I-0000064361J0000011348D01*
G01*
X0000337579Y0003066761D02*
G75*
G02X0000401941Y0003143464I0000064361J0000011348D01*
G01*
X0000956986Y0003066761D02*
G75*
G03X0000892625Y0003143464I-0000064361J0000011348D01*
G01*
X0000079370Y0002729291D02*
G75*
G02X0000037637Y0002771023J0000041732D01*
G01*
X0001215196Y0002729291D02*
G75*
G03X0001256929Y0002771023J0000041732D01*
G01*
X0000037637Y0003184409D02*
G75*
G02X0000079370Y0003226141I0000041732D01*
G01*
X0001215196Y0003226141D02*
G75*
G02X0001256929Y0003184409J-0000041732D01*
G01*
X0003855196Y0003226141D02*
G75*
G02X0003896929Y0003184409J-0000041732D01*
G01*
X0002677637Y0003184409D02*
G75*
G02X0002719370Y0003226141I0000041732D01*
G01*
X0003855196Y0002729291D02*
G75*
G03X0003896929Y0002771023J0000041732D01*
G01*
X0002719370Y0002729291D02*
G75*
G02X0002677637Y0002771023J0000041732D01*
G01*
X0003596987Y0003066761D02*
G75*
G03X0003532625Y0003143464I-0000064361J0000011348D01*
G01*
X0002977579Y0003066761D02*
G75*
G02X0003041941Y0003143464I0000064361J0000011348D01*
G01*
X0003561582Y0002865974D02*
G75*
G02X0003497221Y0002811968I-0000064361J0000011348D01*
G01*
X0003012984Y0002865974D02*
G75*
G03X0003077345Y0002811968I0000064361J0000011348D01*
G01*
X0003855196Y0003226141D02*
X0002719370Y0003226141D01*
X0002677637Y0003184409D02*
X0002677637Y0002771023D01*
X0002719370Y0002729291D02*
X0003855196Y0002729291D01*
X0003896929Y0002771023D02*
X0003896929Y0003184409D01*
X0003515236Y0003261351D02*
X0003495551Y0003261351D01*
X0003495551Y0003261351D02*
X0003505393Y0003244304D01*
X0003505393Y0003244304D02*
X0003515236Y0003261351D01*
X0003532625Y0003143464D02*
X0003041941Y0003143464D01*
X0003497221Y0002811968D02*
X0003077345Y0002811968D01*
X0002977579Y0003066761D02*
X0003012984Y0002865974D01*
X0003596987Y0003066761D02*
X0003561582Y0002865974D01*
G04 next file*
G04 #@! TF.GenerationSoftware,KiCad,Pcbnew,(5.1.2)-2*
G04 #@! TF.CreationDate,2019-11-27T23:52:17-06:00*
G04 #@! TF.ProjectId,ti99-joystick,74693939-2d6a-46f7-9973-7469636b2e6b,rev?*
G04 #@! TF.SameCoordinates,Original*
G04 #@! TF.FileFunction,Legend,Bot*
G04 #@! TF.FilePolarity,Positive*
G04 Gerber Fmt 4.6, Leading zero omitted, Abs format (unit mm)*
G04 Created by KiCad (PCBNEW (5.1.2)-2) date 2019-11-27 23:52:17*
G04 APERTURE LIST*
G04 APERTURE END LIST*
D25*
X0000956986Y0003736052D02*
X0000921582Y0003535265D01*
X0000337579Y0003736052D02*
X0000372984Y0003535265D01*
X0000857221Y0003481259D02*
X0000437345Y0003481259D01*
X0000892625Y0003812755D02*
X0000401941Y0003812755D01*
X0000865393Y0003913595D02*
X0000875236Y0003930643D01*
X0000855551Y0003930643D02*
X0000865393Y0003913595D01*
X0000875236Y0003930643D02*
X0000855551Y0003930643D01*
X0001256929Y0003440314D02*
X0001256929Y0003853700D01*
X0000079370Y0003398582D02*
X0001215196Y0003398582D01*
X0000037637Y0003853700D02*
X0000037637Y0003440314D01*
X0001215196Y0003895433D02*
X0000079370Y0003895433D01*
X0000372984Y0003535265D02*
G75*
G03X0000437345Y0003481259I0000064361J0000011348D01*
G01*
X0000921582Y0003535265D02*
G75*
G02X0000857221Y0003481259I-0000064361J0000011348D01*
G01*
X0000337579Y0003736052D02*
G75*
G02X0000401941Y0003812755I0000064361J0000011348D01*
G01*
X0000956986Y0003736052D02*
G75*
G03X0000892625Y0003812755I-0000064361J0000011348D01*
G01*
X0000079370Y0003398582D02*
G75*
G02X0000037637Y0003440314J0000041732D01*
G01*
X0001215196Y0003398582D02*
G75*
G03X0001256929Y0003440314J0000041732D01*
G01*
X0000037637Y0003853700D02*
G75*
G02X0000079370Y0003895433I0000041732D01*
G01*
X0001215196Y0003895433D02*
G75*
G02X0001256929Y0003853700J-0000041732D01*
G01*
X0003855196Y0003895433D02*
G75*
G02X0003896929Y0003853700J-0000041732D01*
G01*
X0002677637Y0003853700D02*
G75*
G02X0002719370Y0003895433I0000041732D01*
G01*
X0003855196Y0003398582D02*
G75*
G03X0003896929Y0003440314J0000041732D01*
G01*
X0002719370Y0003398582D02*
G75*
G02X0002677637Y0003440314J0000041732D01*
G01*
X0003596987Y0003736052D02*
G75*
G03X0003532625Y0003812755I-0000064361J0000011348D01*
G01*
X0002977579Y0003736052D02*
G75*
G02X0003041941Y0003812755I0000064361J0000011348D01*
G01*
X0003561582Y0003535265D02*
G75*
G02X0003497221Y0003481259I-0000064361J0000011348D01*
G01*
X0003012984Y0003535265D02*
G75*
G03X0003077345Y0003481259I0000064361J0000011348D01*
G01*
X0003855196Y0003895433D02*
X0002719370Y0003895433D01*
X0002677637Y0003853700D02*
X0002677637Y0003440314D01*
X0002719370Y0003398582D02*
X0003855196Y0003398582D01*
X0003896929Y0003440314D02*
X0003896929Y0003853700D01*
X0003515236Y0003930643D02*
X0003495551Y0003930643D01*
X0003495551Y0003930643D02*
X0003505393Y0003913595D01*
X0003505393Y0003913595D02*
X0003515236Y0003930643D01*
X0003532625Y0003812755D02*
X0003041941Y0003812755D01*
X0003497221Y0003481259D02*
X0003077345Y0003481259D01*
X0002977579Y0003736052D02*
X0003012984Y0003535265D01*
X0003596987Y0003736052D02*
X0003561582Y0003535265D01*
M02*